M48
METRIC,LZ,000.000
;FILE_FORMAT=3:3
;TYPE=PLATED
;Layer: PTH_Through
;EasyEDA v6.5.51, 2025-12-08 09:47:30
;7167e3a2cd4a4cc2b36d8ec3c7a0698f,d159c27349c1460ca4c4e21dfb61053a,10
;Gerber Generator version 0.2
;Holesize 1 = 0.306 mm
T01C0.306
;Holesize 2 = 0.800 mm
T02C0.800
;Holesize 3 = 0.889 mm
T03C0.889
;Holesize 4 = 0.900 mm
T04C0.900
;Holesize 5 = 0.915 mm
T05C0.915
;Holesize 6 = 1.000 mm
T06C1.000
;Holesize 7 = 1.016 mm
T07C1.016
%
G05
G90
T01
X058176Y039493
X085471Y039243
X051999Y051024
X077614Y054183
X044478Y025108
X082425Y033811
X020930Y029401
X067719Y025764
X051774Y027151
X044668Y014300
X047210Y015005
X067050Y044915
T02
X030099Y011430
X037719Y011430
T03
X104394Y042672
X104394Y045847
X054483Y029464
X004064Y043180
X006604Y043180
X009144Y043180
X011684Y043180
X014224Y043180
X016764Y043180
X019304Y043180
X021844Y043180
X024384Y043180
X026924Y043180
X029464Y043180
X032004Y043180
X034544Y043180
X037084Y043180
X039624Y043180
X004064Y038354
X006604Y038354
X009144Y038354
X011684Y038354
X014224Y038354
X016764Y038354
X019304Y038354
X021844Y038354
X024384Y038354
X026924Y038354
X029464Y038354
X032004Y038354
X034544Y038354
X037084Y038354
X039624Y038354
X004064Y022860
X006604Y022860
X009144Y022860
X011684Y022860
X014224Y022860
X016764Y022860
X019304Y022860
X021844Y022860
X024384Y022860
X026924Y022860
X029464Y022860
X032004Y022860
X034544Y022860
X037084Y022860
X039624Y022860
X004064Y018034
X006604Y018034
X009144Y018034
X011684Y018034
X014224Y018034
X016764Y018034
X019304Y018034
X021844Y018034
X024384Y018034
X026924Y018034
X029464Y018034
X032004Y018034
X034544Y018034
X037084Y018034
X039624Y018034
X049403Y041275
X051943Y041275
X054483Y041275
X057023Y041275
X059563Y041275
X049403Y038481
X051943Y038481
X054483Y038481
X057023Y038481
X059563Y038481
X049403Y035687
X051943Y035687
X054483Y035687
X057023Y035687
X059563Y035687
X049403Y032893
X051943Y032893
X054483Y032893
X057023Y032893
X059563Y032893
X027559Y005207
X030099Y005207
X032639Y005207
X035179Y005207
X037719Y005207
X040259Y005207
X039624Y028194
X039624Y030734
X036449Y066167
X036449Y063627
X036449Y061087
X036449Y058547
X036449Y056007
X032766Y066167
X032766Y063627
X032766Y061087
X032766Y058547
X032766Y056007
X028956Y066167
X028956Y063627
X028956Y061087
X028956Y058547
X028956Y056007
X025146Y066167
X025146Y063627
X025146Y061087
X025146Y058547
X025146Y056007
X073914Y027051
X073914Y024511
X089408Y025146
X086868Y025146
X084328Y025146
X081788Y025146
X071247Y020447
X039624Y045593
X037084Y045593
X034544Y045593
X032004Y045593
X029464Y045593
X026924Y045593
X024384Y045593
X021844Y045593
X019304Y045593
X016764Y045593
X014224Y045593
X011684Y045593
X009144Y045593
X006604Y045593
X004064Y045593
X039624Y040767
X037084Y040767
X034544Y040767
X032004Y040767
X029464Y040767
X026924Y040767
X024384Y040767
X021844Y040767
X019304Y040767
X016764Y040767
X014224Y040767
X011684Y040767
X009144Y040767
X006604Y040767
X004064Y040767
X039624Y025273
X037084Y025273
X034544Y025273
X032004Y025273
X029464Y025273
X026924Y025273
X024384Y025273
X021844Y025273
X019304Y025273
X016764Y025273
X014224Y025273
X011684Y025273
X009144Y025273
X006604Y025273
X004064Y025273
X039624Y020447
X037084Y020447
X034544Y020447
X032004Y020447
X029464Y020447
X026924Y020447
X024384Y020447
X021844Y020447
X019304Y020447
X016764Y020447
X014224Y020447
X011684Y020447
X009144Y020447
X006604Y020447
X004064Y020447
X076708Y040386
X076708Y042926
X076708Y045466
X076708Y048006
X076708Y050546
X076708Y053086
X076708Y055626
X076708Y058166
X076708Y060706
X076708Y063246
X094488Y014986
X094488Y017526
X094488Y020066
X094488Y022606
X094488Y025146
X094488Y027686
X094488Y030226
X094488Y032766
X094488Y035306
X094488Y037846
T04
X054356Y017272
X056642Y017272
T05
X068326Y028321
X068453Y023368
X068453Y020828
X068453Y018288
X068453Y015748
X068453Y013208
X068453Y010668
X068453Y008128
X068453Y005588
X068326Y066294
X068326Y063754
X068326Y061214
X068326Y058674
X068326Y056134
X068326Y053594
X068326Y051054
X068326Y048514
X068326Y045974
X068326Y043434
X068326Y040894
X068326Y038354
X068326Y035814
X068326Y033274
X068326Y030734
X042926Y030607
X042926Y033147
X042926Y035687
X042926Y038227
X042926Y040767
X042926Y043307
X042926Y045847
X042926Y048387
X042926Y050927
X042926Y053467
X042926Y056007
X042926Y058547
X042926Y061087
X042926Y063627
X042926Y066167
X042926Y005334
X042926Y007874
X042926Y010414
X042926Y012954
X042926Y015494
X042926Y018034
X042926Y020574
X042926Y023114
X042926Y028194
X062103Y043815
X059563Y043815
X057023Y043815
X054483Y043815
X051943Y043815
X049403Y043815
T06
X095626Y055546G85X095626Y058246
X015626Y055546G85X015626Y058246
X012954Y053213
X015494Y053213
X018034Y053213
X020574Y053213
X020574Y060833
X018034Y060833
X015494Y060833
X012954Y060833
T07
X090679Y056770
X090679Y059310
X090679Y061850
X090679Y054230
X090679Y051690
X080519Y056770
X080519Y054230
X080519Y051690
X080519Y049150
X080519Y059310
X080519Y061850
X080518Y064389
M30
