G04 Layer: BoardOutlineLayer*
G04 EasyEDA v6.5.51, 2025-12-08 09:47:30*
G04 7167e3a2cd4a4cc2b36d8ec3c7a0698f,d159c27349c1460ca4c4e21dfb61053a,10*
G04 Gerber Generator version 0.2*
G04 Scale: 100 percent, Rotated: No, Reflected: No *
G04 Dimensions in millimeters *
G04 leading zeros omitted , absolute positions ,4 integer and 5 decimal *
%FSLAX45Y45*%
%MOMM*%

%ADD10C,0.2540*%
%ADD11C,0.0141*%
D10*
X10756900Y2108200D02*
G01*
X10786282Y2105355D01*
X10813752Y2097181D01*
X10838781Y2084219D01*
X10860819Y2067011D01*
X10884618Y2038388D01*
X10897580Y2013366D01*
X10905741Y1985888D01*
X10908593Y1956508D01*
X10905741Y1927120D01*
X10897580Y1899643D01*
X10884618Y1874621D01*
X10860819Y1845995D01*
X10838781Y1828787D01*
X10813752Y1815828D01*
X10786282Y1807654D01*
X10756900Y1804814D01*
X10727507Y1807654D01*
X10700037Y1815828D01*
X10675007Y1828787D01*
X10652980Y1845995D01*
X10629181Y1874621D01*
X10616219Y1899643D01*
X10608048Y1927120D01*
X10605208Y1956508D01*
X10608048Y1985888D01*
X10616219Y2013366D01*
X10629181Y2038388D01*
X10646394Y2060427D01*
X10675007Y2084219D01*
X10700037Y2097181D01*
X10727507Y2105355D01*
X10756900Y2108200D01*
X10756900Y6019800D02*
G01*
X10786282Y6016952D01*
X10813752Y6008786D01*
X10838781Y5995819D01*
X10860819Y5978611D01*
X10884618Y5949993D01*
X10897580Y5924966D01*
X10905741Y5897493D01*
X10908593Y5868106D01*
X10905741Y5838718D01*
X10897580Y5811248D01*
X10884618Y5786219D01*
X10860819Y5757595D01*
X10838781Y5740387D01*
X10813752Y5727428D01*
X10786282Y5719259D01*
X10756900Y5716414D01*
X10727507Y5719259D01*
X10700037Y5727428D01*
X10675007Y5740387D01*
X10652980Y5757595D01*
X10629181Y5786219D01*
X10616219Y5811248D01*
X10608048Y5838718D01*
X10605208Y5868106D01*
X10608048Y5897493D01*
X10616219Y5924966D01*
X10629181Y5949993D01*
X10646394Y5972025D01*
X10675007Y5995819D01*
X10700037Y6008786D01*
X10727507Y6016952D01*
X10756900Y6019800D01*
X355600Y1397000D02*
G01*
X384987Y1394155D01*
X412462Y1385986D01*
X437487Y1373027D01*
X459519Y1355818D01*
X483318Y1327195D01*
X496280Y1302166D01*
X504451Y1274696D01*
X507298Y1245308D01*
X504451Y1215920D01*
X496280Y1188448D01*
X483318Y1163421D01*
X466110Y1141389D01*
X437487Y1117594D01*
X412462Y1104628D01*
X384987Y1096454D01*
X355600Y1093614D01*
X326217Y1096454D01*
X298742Y1104628D01*
X273718Y1117594D01*
X245094Y1141389D01*
X227886Y1163421D01*
X214924Y1188448D01*
X206753Y1215920D01*
X203906Y1245308D01*
X206753Y1274696D01*
X214924Y1302166D01*
X227886Y1327195D01*
X245094Y1349227D01*
X273718Y1373027D01*
X298742Y1385986D01*
X326217Y1394155D01*
X355600Y1397000D01*
X355600Y5321300D02*
G01*
X384987Y5318460D01*
X412462Y5310286D01*
X437487Y5297327D01*
X459519Y5280118D01*
X483318Y5251493D01*
X496280Y5226471D01*
X504451Y5198993D01*
X507298Y5169606D01*
X504451Y5140225D01*
X496280Y5112748D01*
X483318Y5087726D01*
X466110Y5065687D01*
X437487Y5041894D01*
X412462Y5028933D01*
X384987Y5020759D01*
X355600Y5017914D01*
X326217Y5020759D01*
X298742Y5028933D01*
X273718Y5041894D01*
X245094Y5065687D01*
X227886Y5087726D01*
X214924Y5112748D01*
X206753Y5140225D01*
X203906Y5169606D01*
X206753Y5198993D01*
X214924Y5226471D01*
X227886Y5251493D01*
X245094Y5273527D01*
X273718Y5297327D01*
X298742Y5310286D01*
X326217Y5318460D01*
X355600Y5321300D01*
X10769600Y6197600D02*
G01*
X10635488Y6237731D01*
X10508488Y6288531D01*
X10439400Y6324600D01*
X10381488Y6390131D01*
X10292588Y6504431D01*
X10241788Y6606031D01*
X10216388Y6733031D01*
X10210800Y6908800D01*
X10210800Y7099300D01*
X8610600Y7099300D01*
X8610600Y6946900D01*
X7899400Y6946900D01*
X7899400Y7099300D01*
X6235700Y7099300D01*
X6235700Y6705600D01*
X4876800Y6705600D01*
X4876800Y7099300D01*
X3213100Y7099300D01*
X3213100Y6946900D01*
X2501900Y6946900D01*
X2501900Y7099300D01*
X901700Y7099300D01*
X901700Y6045200D01*
X869187Y5932931D01*
X831087Y5831331D01*
X800100Y5765800D01*
X742187Y5704331D01*
X640587Y5615431D01*
X513587Y5539231D01*
X348487Y5501131D01*
X0Y5499100D01*
X0Y901700D01*
X342900Y901700D01*
X508000Y850900D01*
X589787Y814831D01*
X691387Y738631D01*
X780287Y649731D01*
X850900Y533400D01*
X894587Y357631D01*
X894587Y2031D01*
X2501900Y0D01*
X2501900Y152400D01*
X3213100Y152400D01*
X3213100Y0D01*
X4247388Y2031D01*
X4247388Y230631D01*
X4348988Y230631D01*
X4348988Y383031D01*
X4450588Y383031D01*
X4450588Y1284731D01*
X5352288Y1284731D01*
X5352288Y383031D01*
X5453888Y383031D01*
X5453888Y230631D01*
X5847588Y230631D01*
X5847588Y1233931D01*
X5707888Y1233931D01*
X5705602Y2186431D01*
X6698488Y2186431D01*
X6698488Y1233931D01*
X6546088Y1233931D01*
X6546088Y230631D01*
X6850888Y230631D01*
X6850888Y2031D01*
X7892288Y2031D01*
X7892288Y141731D01*
X8590788Y141731D01*
X8590788Y2031D01*
X10198100Y0D01*
X10203688Y1081531D01*
X10229088Y1183131D01*
X10292588Y1322831D01*
X10394188Y1437131D01*
X10529061Y1528571D01*
X10711688Y1589531D01*
X11099800Y1587500D01*
X11099800Y6197600D01*
X10769600Y6197600D01*

%LPD*%
M02*
