G04 Layer: TopLayer*
G04 EasyEDA v6.5.51, 2025-12-08 09:47:30*
G04 7167e3a2cd4a4cc2b36d8ec3c7a0698f,d159c27349c1460ca4c4e21dfb61053a,10*
G04 Gerber Generator version 0.2*
G04 Scale: 100 percent, Rotated: No, Reflected: No *
G04 Dimensions in millimeters *
G04 leading zeros omitted , absolute positions ,4 integer and 5 decimal *
%FSLAX45Y45*%
%MOMM*%

%AMMACRO1*4,1,5,-0.9843,1.016,0.9843,1.016,0.9843,-1.016,-0.9843,-1.016,-0.9843,0.0635,-0.9843,1.016,0*%
%AMMACRO2*4,1,5,0.9843,-1.016,-0.9843,-1.016,-0.9843,1.016,0.9843,1.016,0.9843,-0.0635,0.9843,-1.016,0*%
%AMMACRO3*21,1,$1,$2,0,0,$3*%
%ADD10C,0.2540*%
%ADD11MACRO1*%
%ADD12MACRO2*%
%ADD13R,5.0800X2.5400*%
%ADD14MACRO3,1.5748X1.5748X-90.0000*%
%ADD15C,1.5748*%
%ADD16MACRO3,1.5748X1.5748X0.0000*%
%ADD17O,1.499997X4.199992*%
%ADD18C,2.0000*%
%ADD19C,0.0166*%
%ADD20R,1.5748X1.5748*%
%ADD21C,1.6000*%
%ADD22C,2.0320*%
%ADD23C,1.5240*%
%ADD24R,1.5000X1.5000*%
%ADD25C,0.6100*%

%LPD*%
D10*
X9342145Y3784600D02*
G01*
X8870137Y3312591D01*
X7263206Y3312591D01*
X6856095Y3719703D01*
X6672249Y3719703D01*
X6437020Y3954932D01*
X5823153Y3954932D01*
X5817565Y3949344D01*
X9448800Y3784600D02*
G01*
X9342145Y3784600D01*
X5199888Y5102377D02*
G01*
X5823077Y5102377D01*
X6709054Y4216400D01*
X6936892Y4216400D01*
X7229017Y3924274D01*
X8547125Y3924274D01*
X7761376Y5418302D02*
G01*
X6921169Y5418302D01*
X6867474Y5471998D01*
X6776821Y5471998D01*
X6648119Y5600700D01*
X4292600Y5600700D01*
X6845300Y2336800D02*
G01*
X4621834Y2336800D01*
X4447844Y2510789D01*
X5194300Y3848100D02*
G01*
X4940300Y3848100D01*
X5448300Y3848100D02*
G01*
X5194300Y3848100D01*
X5702300Y3848100D02*
G01*
X5448300Y3848100D01*
X5956300Y3848100D02*
G01*
X5702300Y3848100D01*
X4025900Y520700D02*
G01*
X3919245Y520700D01*
X3919245Y520700D02*
G01*
X3919245Y547370D01*
X3829964Y636651D01*
X3125850Y636651D01*
X3009900Y520700D01*
X1803400Y6083300D02*
G01*
X2057400Y6083300D01*
X1549400Y6083300D02*
G01*
X1803400Y6083300D01*
X1295400Y6083300D02*
G01*
X1549400Y6083300D01*
X3276600Y6108700D02*
G01*
X3089656Y6108700D01*
X2962656Y5981700D01*
X2159000Y5981700D01*
X2057400Y6083300D01*
X8051876Y5930976D02*
G01*
X7947075Y5930976D01*
X7946999Y5930900D01*
X9448800Y2006600D02*
G01*
X9271000Y1828800D01*
X6845300Y1828800D01*
X5194300Y3568700D02*
G01*
X4940300Y3568700D01*
X5448300Y3568700D02*
G01*
X5194300Y3568700D01*
X5702300Y3568700D02*
G01*
X5448300Y3568700D01*
X5956300Y3568700D02*
G01*
X5702300Y3568700D01*
X7999475Y5676976D02*
G01*
X7945907Y5676976D01*
X7820482Y5802401D01*
X7820482Y5832678D01*
X7693634Y5959525D01*
X7630795Y5959525D01*
X7608620Y5981700D01*
X3022600Y5981700D01*
X2895600Y5854700D01*
X7999475Y5676976D02*
G01*
X7947075Y5676976D01*
X7946999Y5676900D01*
X8051876Y5676976D02*
G01*
X7999475Y5676976D01*
X4292600Y3314700D02*
G01*
X4182465Y3424834D01*
X4182465Y3621201D01*
X4238345Y3677081D01*
X4831918Y3677081D01*
X4940300Y3568700D01*
X1676400Y4076700D02*
G01*
X1565275Y4187825D01*
X1565275Y4448175D01*
X1676400Y4559300D01*
X1930400Y3835400D02*
G01*
X1819275Y3946525D01*
X1819275Y4206875D01*
X1930400Y4318000D01*
X8178800Y2514600D02*
G01*
X7988300Y2705100D01*
X7391400Y2705100D01*
X5194300Y3289300D02*
G01*
X4940300Y3289300D01*
X5448300Y3289300D02*
G01*
X5194300Y3289300D01*
X5702300Y3289300D02*
G01*
X5448300Y3289300D01*
X5956300Y3289300D02*
G01*
X5702300Y3289300D01*
X7999475Y5422976D02*
G01*
X7945907Y5422976D01*
X7820482Y5548401D01*
X7820482Y5578678D01*
X7693634Y5705525D01*
X7630795Y5705525D01*
X7608646Y5727674D01*
X2641625Y5727674D01*
X2514600Y5854700D01*
X7999475Y5422976D02*
G01*
X7947075Y5422976D01*
X7946999Y5422900D01*
X8051876Y5422976D02*
G01*
X7999475Y5422976D01*
X4292600Y3568700D02*
G01*
X4572000Y3289300D01*
X4940300Y3289300D01*
X10439400Y4267200D02*
G01*
X9128582Y4267200D01*
X8242477Y3381095D01*
X2093036Y2940050D02*
G01*
X4609109Y2940050D01*
X5098059Y2451100D01*
X7391400Y2451100D01*
X7391400Y2451100D02*
G01*
X7498054Y2451100D01*
X8432800Y2514600D02*
G01*
X8324443Y2406243D01*
X7542911Y2406243D01*
X7498054Y2451100D01*
X5177383Y2715132D02*
G01*
X5316143Y2576372D01*
X6771893Y2576372D01*
X4466767Y1430045D02*
G01*
X4058945Y1430045D01*
X3771900Y1143000D01*
X5194300Y4127500D02*
G01*
X4940300Y4127500D01*
X5702300Y4127500D02*
G01*
X5448300Y4127500D01*
X5956300Y4127500D02*
G01*
X5702300Y4127500D01*
X2755900Y520700D02*
G01*
X3378200Y1143000D01*
X3771900Y1143000D01*
X8051876Y6184976D02*
G01*
X7947075Y6184976D01*
X7946999Y6184900D01*
X7946999Y6184900D02*
G01*
X7820659Y6184900D01*
X7670800Y6070600D02*
G01*
X7706359Y6070600D01*
X7820659Y6184900D01*
X4292600Y787400D02*
G01*
X4396892Y891692D01*
X4396892Y1288338D01*
X4423918Y1315364D01*
X4535906Y1315364D01*
X4721047Y1500504D01*
X2057400Y5321300D02*
G01*
X3406495Y5321300D01*
X4277512Y4450283D01*
X4495190Y4450283D01*
X4689703Y4255770D01*
X5234584Y4255770D01*
X5321300Y4169054D01*
X5321300Y4098696D01*
X5412028Y4007967D01*
X6751167Y4007967D01*
X6832600Y4089400D01*
X5448300Y2946400D02*
G01*
X5554954Y2946400D01*
X5554954Y2946400D02*
G01*
X5790565Y3182010D01*
X8019389Y3182010D01*
X8686800Y2514600D01*
X9067876Y5676976D02*
G01*
X8064500Y4673600D01*
X7076693Y4673600D01*
X6894601Y4491507D01*
X6705015Y4491507D01*
X9067876Y5676976D02*
G01*
X9172498Y5676976D01*
X9172575Y5676900D01*
X4292600Y2819400D02*
G01*
X3962400Y2819400D01*
X4292600Y3060700D02*
G01*
X3975100Y3060700D01*
X3962400Y3073400D01*
X6832600Y4851400D02*
G01*
X6949719Y4968519D01*
X6949719Y5142992D01*
X6860311Y5232400D01*
X6808622Y5232400D01*
X6561404Y5479618D01*
X1633626Y5479618D01*
X1593138Y5439130D01*
X1413230Y5439130D01*
X1295400Y5321300D01*
X9067876Y5168976D02*
G01*
X9172498Y5168976D01*
X9172575Y5168900D01*
X9067876Y5422976D02*
G01*
X9172498Y5422976D01*
X9172575Y5422900D01*
X9067876Y5930976D02*
G01*
X9172524Y5930976D01*
X9172600Y5930900D01*
X9067876Y6184976D02*
G01*
X9172524Y6184976D01*
X9172600Y6184900D01*
X8051876Y4914976D02*
G01*
X7947075Y4914976D01*
X7946999Y4914900D01*
X8051876Y5168976D02*
G01*
X7947075Y5168976D01*
X7946999Y5168900D01*
X8051800Y6438900D02*
G01*
X7946999Y6438900D01*
X7124700Y2044700D02*
G01*
X6883400Y2044700D01*
X6845300Y2082800D01*
X6197600Y2768600D02*
G01*
X6479514Y2768600D01*
X6479514Y2768600D02*
G01*
X6784314Y3073400D01*
X6832600Y3073400D01*
X5956300Y4381500D02*
G01*
X5830570Y4255770D01*
X5407507Y4255770D01*
X5321300Y4341977D01*
X5321300Y4420565D01*
X5157165Y4584700D01*
X4292600Y4584700D01*
X5448300Y4381500D02*
G01*
X4991100Y4838700D01*
X4292600Y4838700D01*
X8834145Y2514600D02*
G01*
X8834145Y2487929D01*
X8577224Y2231009D01*
X5698312Y2231009D01*
X5026380Y1559077D01*
X4302277Y1559077D01*
X4292600Y1549400D01*
X8940800Y2514600D02*
G01*
X8834145Y2514600D01*
X3962400Y2286000D02*
G01*
X3962400Y2179345D01*
X3962400Y1803400D02*
G01*
X3962400Y1910054D01*
X3962400Y1910054D02*
G01*
X3935729Y1910054D01*
X3851275Y1994509D01*
X3851275Y2094890D01*
X3935729Y2179345D01*
X3962400Y2179345D01*
X4914900Y1930400D02*
G01*
X4632985Y1930400D01*
X4632985Y1930400D02*
G01*
X4378985Y1676400D01*
X3543300Y1676400D01*
X3009900Y1143000D01*
X1549400Y5321300D02*
G01*
X1666849Y5438749D01*
X3860368Y5438749D01*
X4079417Y5219700D01*
X6718300Y5219700D01*
X6832600Y5105400D01*
D11*
G01*
X7946999Y6438897D03*
G01*
X7946999Y6184900D03*
G01*
X7946999Y5930900D03*
G01*
X7946999Y5676900D03*
G01*
X7946999Y5422900D03*
G01*
X7946999Y5168900D03*
G01*
X7946999Y4914902D03*
D12*
G01*
X9172597Y6184900D03*
G01*
X9172597Y5930900D03*
G01*
X9172575Y5676900D03*
G01*
X9172575Y5422900D03*
G01*
X9172575Y5168900D03*
D13*
G01*
X6197600Y2768600D03*
G01*
X4914900Y1930400D03*
D14*
G01*
X10439400Y4267200D03*
G01*
X10439400Y4584700D03*
G01*
X5448300Y2946400D03*
D15*
G01*
X406400Y4318000D03*
G01*
X660400Y4318000D03*
G01*
X914400Y4318000D03*
G01*
X1168400Y4318000D03*
G01*
X1422400Y4318000D03*
G01*
X1676400Y4318000D03*
G01*
X1930400Y4318000D03*
G01*
X2184400Y4318000D03*
G01*
X2438400Y4318000D03*
G01*
X2692400Y4318000D03*
G01*
X2946400Y4318000D03*
G01*
X3200400Y4318000D03*
G01*
X3454400Y4318000D03*
G01*
X3708400Y4318000D03*
D16*
G01*
X3962400Y4318000D03*
D15*
G01*
X406400Y3835400D03*
G01*
X660400Y3835400D03*
G01*
X914400Y3835400D03*
G01*
X1168400Y3835400D03*
G01*
X1422400Y3835400D03*
G01*
X1676400Y3835400D03*
G01*
X1930400Y3835400D03*
G01*
X2184400Y3835400D03*
G01*
X2438400Y3835400D03*
G01*
X2692400Y3835400D03*
G01*
X2946400Y3835400D03*
G01*
X3200400Y3835400D03*
G01*
X3454400Y3835400D03*
G01*
X3708400Y3835400D03*
D16*
G01*
X3962400Y3835400D03*
D15*
G01*
X406400Y2286000D03*
G01*
X660400Y2286000D03*
G01*
X914400Y2286000D03*
G01*
X1168400Y2286000D03*
G01*
X1422400Y2286000D03*
G01*
X1676400Y2286000D03*
G01*
X1930400Y2286000D03*
G01*
X2184400Y2286000D03*
G01*
X2438400Y2286000D03*
G01*
X2692400Y2286000D03*
G01*
X2946400Y2286000D03*
G01*
X3200400Y2286000D03*
G01*
X3454400Y2286000D03*
G01*
X3708400Y2286000D03*
D16*
G01*
X3962400Y2286000D03*
D15*
G01*
X406400Y1803400D03*
G01*
X660400Y1803400D03*
G01*
X914400Y1803400D03*
G01*
X1168400Y1803400D03*
G01*
X1422400Y1803400D03*
G01*
X1676400Y1803400D03*
G01*
X1930400Y1803400D03*
G01*
X2184400Y1803400D03*
G01*
X2438400Y1803400D03*
G01*
X2692400Y1803400D03*
G01*
X2946400Y1803400D03*
G01*
X3200400Y1803400D03*
G01*
X3454400Y1803400D03*
G01*
X3708400Y1803400D03*
D16*
G01*
X3962400Y1803400D03*
D15*
G01*
X4940300Y4127500D03*
G01*
X5194300Y4127500D03*
G01*
X5448300Y4127500D03*
G01*
X5702300Y4127500D03*
D16*
G01*
X5956300Y4127500D03*
D15*
G01*
X4940300Y3848100D03*
G01*
X5194300Y3848100D03*
G01*
X5448300Y3848100D03*
G01*
X5702300Y3848100D03*
D16*
G01*
X5956300Y3848100D03*
D15*
G01*
X4940300Y3568700D03*
G01*
X5194300Y3568700D03*
G01*
X5448300Y3568700D03*
G01*
X5702300Y3568700D03*
D16*
G01*
X5956300Y3568700D03*
D15*
G01*
X4940300Y3289300D03*
G01*
X5194300Y3289300D03*
G01*
X5448300Y3289300D03*
G01*
X5702300Y3289300D03*
D16*
G01*
X5956300Y3289300D03*
D17*
G01*
X9562591Y5689600D03*
G01*
X1562607Y5689600D03*
D15*
G01*
X2755900Y520700D03*
G01*
X3009900Y520700D03*
G01*
X3263900Y520700D03*
G01*
X3517900Y520700D03*
G01*
X3771900Y520700D03*
D16*
G01*
X4025900Y520700D03*
D18*
G01*
X3009900Y1143000D03*
G01*
X3771900Y1143000D03*
D20*
G01*
X3962400Y2819400D03*
D15*
G01*
X3962400Y3073400D03*
D21*
G01*
X1295400Y5321300D03*
G01*
X1549400Y5321300D03*
G01*
X1803400Y5321300D03*
G01*
X2057400Y5321300D03*
G01*
X2057400Y6083300D03*
G01*
X1803400Y6083300D03*
G01*
X1549400Y6083300D03*
G01*
X1295400Y6083300D03*
D15*
G01*
X3644900Y6616700D03*
G01*
X3644900Y6362700D03*
G01*
X3644900Y6108700D03*
G01*
X3644900Y5854700D03*
D20*
G01*
X3644900Y5600700D03*
D15*
G01*
X3276600Y6616700D03*
G01*
X3276600Y6362700D03*
G01*
X3276600Y6108700D03*
G01*
X3276600Y5854700D03*
D20*
G01*
X3276600Y5600700D03*
D22*
G01*
X9067876Y5676976D03*
G01*
X9067876Y5930976D03*
G01*
X9067876Y6184976D03*
G01*
X9067876Y5422976D03*
G01*
X9067876Y5168976D03*
G01*
X8051876Y5676976D03*
G01*
X8051876Y5422976D03*
G01*
X8051876Y5168976D03*
G01*
X8051876Y4914976D03*
G01*
X8051876Y5930976D03*
G01*
X8051876Y6184976D03*
G01*
X8051800Y6438900D03*
D15*
G01*
X2895600Y6616700D03*
G01*
X2895600Y6362700D03*
G01*
X2895600Y6108700D03*
G01*
X2895600Y5854700D03*
D20*
G01*
X2895600Y5600700D03*
D15*
G01*
X2514600Y6616700D03*
G01*
X2514600Y6362700D03*
G01*
X2514600Y6108700D03*
G01*
X2514600Y5854700D03*
D20*
G01*
X2514600Y5600700D03*
D23*
G01*
X6832600Y2832100D03*
G01*
X6845300Y2336800D03*
G01*
X6845300Y2082800D03*
G01*
X6845300Y1828800D03*
G01*
X6845300Y1574800D03*
G01*
X6845300Y1320800D03*
G01*
X6845300Y1066800D03*
G01*
X6845300Y812800D03*
G01*
X6845300Y558800D03*
G01*
X6832600Y6629400D03*
G01*
X6832600Y6375400D03*
G01*
X6832600Y6121400D03*
G01*
X6832600Y5867400D03*
G01*
X6832600Y5613400D03*
G01*
X6832600Y5359400D03*
G01*
X6832600Y5105400D03*
G01*
X6832600Y4851400D03*
G01*
X6832600Y4597400D03*
G01*
X6832600Y4343400D03*
G01*
X6832600Y4089400D03*
G01*
X6832600Y3835400D03*
G01*
X6832600Y3581400D03*
G01*
X6832600Y3327400D03*
G01*
X6832600Y3073400D03*
G01*
X4292600Y3060700D03*
G01*
X4292600Y3314700D03*
G01*
X4292600Y3568700D03*
G01*
X4292600Y3822700D03*
G01*
X4292600Y4076700D03*
G01*
X4292600Y4330700D03*
G01*
X4292600Y4584700D03*
G01*
X4292600Y4838700D03*
G01*
X4292600Y5092700D03*
G01*
X4292600Y5346700D03*
G01*
X4292600Y5600700D03*
G01*
X4292600Y5854700D03*
G01*
X4292600Y6108700D03*
G01*
X4292600Y6362700D03*
G01*
X4292600Y6616700D03*
G01*
X4292600Y533400D03*
G01*
X4292600Y787400D03*
G01*
X4292600Y1041400D03*
G01*
X4292600Y1295400D03*
G01*
X4292600Y1549400D03*
G01*
X4292600Y1803400D03*
G01*
X4292600Y2057400D03*
G01*
X4292600Y2311400D03*
G01*
X4292600Y2819400D03*
D24*
G01*
X5435600Y1727200D03*
G01*
X5664200Y1727200D03*
D20*
G01*
X7391400Y2705100D03*
G01*
X7391400Y2451100D03*
D23*
G01*
X6210300Y4381500D03*
G01*
X5956300Y4381500D03*
G01*
X5702300Y4381500D03*
G01*
X5448300Y4381500D03*
G01*
X5194300Y4381500D03*
G01*
X4940300Y4381500D03*
D20*
G01*
X8940800Y2514600D03*
D15*
G01*
X8686800Y2514600D03*
G01*
X8432800Y2514600D03*
G01*
X8178800Y2514600D03*
D20*
G01*
X7124700Y2044700D03*
D15*
G01*
X3962400Y4559300D03*
G01*
X3708400Y4559300D03*
G01*
X3454400Y4559300D03*
G01*
X3200400Y4559300D03*
G01*
X2946400Y4559300D03*
G01*
X2692400Y4559300D03*
G01*
X2438400Y4559300D03*
G01*
X2184400Y4559300D03*
G01*
X1930400Y4559300D03*
G01*
X1676400Y4559300D03*
G01*
X1422400Y4559300D03*
G01*
X1168400Y4559300D03*
G01*
X914400Y4559300D03*
G01*
X660400Y4559300D03*
D20*
G01*
X406400Y4559300D03*
D15*
G01*
X3962400Y4076700D03*
G01*
X3708400Y4076700D03*
G01*
X3454400Y4076700D03*
G01*
X3200400Y4076700D03*
G01*
X2946400Y4076700D03*
G01*
X2692400Y4076700D03*
G01*
X2438400Y4076700D03*
G01*
X2184400Y4076700D03*
G01*
X1930400Y4076700D03*
G01*
X1676400Y4076700D03*
G01*
X1422400Y4076700D03*
G01*
X1168400Y4076700D03*
G01*
X914400Y4076700D03*
G01*
X660400Y4076700D03*
D20*
G01*
X406400Y4076700D03*
D15*
G01*
X3962400Y2527300D03*
G01*
X3708400Y2527300D03*
G01*
X3454400Y2527300D03*
G01*
X3200400Y2527300D03*
G01*
X2946400Y2527300D03*
G01*
X2692400Y2527300D03*
G01*
X2438400Y2527300D03*
G01*
X2184400Y2527300D03*
G01*
X1930400Y2527300D03*
G01*
X1676400Y2527300D03*
G01*
X1422400Y2527300D03*
G01*
X1168400Y2527300D03*
G01*
X914400Y2527300D03*
G01*
X660400Y2527300D03*
D20*
G01*
X406400Y2527300D03*
D15*
G01*
X3962400Y2044700D03*
G01*
X3708400Y2044700D03*
G01*
X3454400Y2044700D03*
G01*
X3200400Y2044700D03*
G01*
X2946400Y2044700D03*
G01*
X2692400Y2044700D03*
G01*
X2438400Y2044700D03*
G01*
X2184400Y2044700D03*
G01*
X1930400Y2044700D03*
G01*
X1676400Y2044700D03*
G01*
X1422400Y2044700D03*
G01*
X1168400Y2044700D03*
G01*
X914400Y2044700D03*
G01*
X660400Y2044700D03*
D20*
G01*
X406400Y2044700D03*
D15*
G01*
X7670800Y4038600D03*
G01*
X7670800Y4292600D03*
G01*
X7670800Y4546600D03*
G01*
X7670800Y4800600D03*
G01*
X7670800Y5054600D03*
G01*
X7670800Y5308600D03*
G01*
X7670800Y5562600D03*
G01*
X7670800Y5816600D03*
G01*
X7670800Y6070600D03*
D20*
G01*
X7670800Y6324600D03*
D15*
G01*
X9448800Y1498600D03*
G01*
X9448800Y1752600D03*
G01*
X9448800Y2006600D03*
G01*
X9448800Y2260600D03*
G01*
X9448800Y2514600D03*
G01*
X9448800Y2768600D03*
G01*
X9448800Y3022600D03*
G01*
X9448800Y3276600D03*
G01*
X9448800Y3530600D03*
D20*
G01*
X9448800Y3784600D03*
D25*
G01*
X5817565Y3949344D03*
G01*
X8547125Y3924274D03*
G01*
X5199888Y5102377D03*
G01*
X7761376Y5418302D03*
G01*
X4447844Y2510789D03*
G01*
X8242477Y3381095D03*
G01*
X2093036Y2940050D03*
G01*
X6771893Y2576372D03*
G01*
X5177383Y2715132D03*
G01*
X4466767Y1430045D03*
G01*
X4721047Y1500504D03*
G01*
X6705015Y4491507D03*
M02*
