G04 Layer: TopSilkscreenLayer*
G04 EasyEDA v6.5.51, 2025-12-08 09:47:30*
G04 7167e3a2cd4a4cc2b36d8ec3c7a0698f,d159c27349c1460ca4c4e21dfb61053a,10*
G04 Gerber Generator version 0.2*
G04 Scale: 100 percent, Rotated: No, Reflected: No *
G04 Dimensions in millimeters *
G04 leading zeros omitted , absolute positions ,4 integer and 5 decimal *
%FSLAX45Y45*%
%MOMM*%

%ADD10C,0.2032*%
%ADD11C,0.1524*%
%ADD12C,0.1000*%
%ADD13C,0.2540*%
%ADD14C,0.2030*%
%ADD15C,0.1270*%
%ADD16C,0.2030*%
%ADD17C,0.0152*%

%LPD*%
G36*
X1464716Y1805787D02*
G01*
X1456283Y1801012D01*
X1451457Y1794205D01*
X1449019Y1786331D01*
X1446733Y1777187D01*
X1446784Y1745894D01*
X1448257Y1739290D01*
X1449070Y1733397D01*
X1451305Y1726082D01*
X1453946Y1720951D01*
X1458417Y1715973D01*
X1462532Y1713788D01*
X1466951Y1712315D01*
X1472844Y1711045D01*
X1483106Y1713331D01*
X1488236Y1715719D01*
X1494586Y1721662D01*
X1496923Y1726793D01*
X1498244Y1735632D01*
X1498955Y1776780D01*
X1497177Y1789277D01*
X1494332Y1795780D01*
X1487525Y1802536D01*
X1478940Y1805787D01*
G37*
G36*
X1283309Y1728622D02*
G01*
X1278077Y1728571D01*
X1268933Y1724152D01*
X1261567Y1715871D01*
X1261567Y1714144D01*
X1259586Y1712518D01*
X1257706Y1702409D01*
X1259941Y1692605D01*
X1265834Y1684934D01*
X1279550Y1670862D01*
X1294993Y1656842D01*
X1303832Y1649679D01*
X1308455Y1647088D01*
X1320393Y1647088D01*
X1328775Y1649933D01*
X1333550Y1652320D01*
X1337818Y1656588D01*
X1340916Y1666798D01*
X1340916Y1678025D01*
X1338122Y1683461D01*
X1326946Y1697431D01*
X1311503Y1713128D01*
X1296670Y1725066D01*
X1288592Y1728622D01*
G37*
G36*
X1661668Y1728520D02*
G01*
X1654302Y1726234D01*
X1647748Y1723136D01*
X1613408Y1689354D01*
X1608480Y1682648D01*
X1606092Y1675638D01*
X1605991Y1669999D01*
X1607820Y1662125D01*
X1610614Y1656283D01*
X1612442Y1653997D01*
X1617827Y1649933D01*
X1630070Y1646936D01*
X1638147Y1647799D01*
X1643278Y1649679D01*
X1651914Y1654606D01*
X1669135Y1671675D01*
X1682343Y1687118D01*
X1686864Y1693367D01*
X1689506Y1703171D01*
X1686966Y1712823D01*
X1681683Y1720596D01*
X1674622Y1725777D01*
X1667560Y1727809D01*
G37*
G36*
X2023211Y1706473D02*
G01*
X2009241Y1703933D01*
X2005990Y1702206D01*
X2003145Y1702206D01*
X2001316Y1699971D01*
X1999386Y1699971D01*
X1992325Y1695297D01*
X1988921Y1692249D01*
X1982368Y1683918D01*
X1978863Y1676857D01*
X1976424Y1670253D01*
X1974138Y1654098D01*
X1974749Y1649679D01*
X2006650Y1649679D01*
X2006650Y1657959D01*
X2009241Y1663649D01*
X2012645Y1668424D01*
X2017318Y1670964D01*
X2021738Y1671980D01*
X2034184Y1671523D01*
X2039366Y1668424D01*
X2044446Y1660906D01*
X2044446Y1647443D01*
X2041652Y1643024D01*
X2037892Y1638909D01*
X2031441Y1636064D01*
X2020925Y1636064D01*
X2015743Y1638706D01*
X2011019Y1642059D01*
X2006650Y1649679D01*
X1974749Y1649679D01*
X1975916Y1641551D01*
X1978710Y1632356D01*
X1984197Y1621840D01*
X1994611Y1611376D01*
X2005279Y1605838D01*
X2014372Y1602994D01*
X2037130Y1602994D01*
X2045970Y1605838D01*
X2051862Y1608277D01*
X2056536Y1611833D01*
X2057552Y1611833D01*
X2063953Y1617014D01*
X2070201Y1625447D01*
X2071979Y1628343D01*
X2074925Y1634642D01*
X2077110Y1642313D01*
X2078685Y1652016D01*
X2078685Y1657553D01*
X2077110Y1667306D01*
X2074164Y1676857D01*
X2071420Y1681988D01*
X2069744Y1685594D01*
X2057400Y1697786D01*
X2055622Y1697786D01*
X2053336Y1699768D01*
X2041753Y1704390D01*
X2037588Y1704390D01*
X2034184Y1705660D01*
G37*
G36*
X1859330Y1699920D02*
G01*
X1851253Y1699869D01*
X1838401Y1697228D01*
X1833625Y1695450D01*
X1824075Y1690827D01*
X1812239Y1678990D01*
X1806702Y1668322D01*
X1803857Y1659178D01*
X1803857Y1641856D01*
X1836928Y1641856D01*
X1836928Y1654454D01*
X1840534Y1660194D01*
X1845716Y1664157D01*
X1855673Y1666849D01*
X1856790Y1666900D01*
X1865934Y1664462D01*
X1871319Y1660296D01*
X1874367Y1653946D01*
X1874367Y1643430D01*
X1871268Y1637487D01*
X1865223Y1632305D01*
X1858772Y1629460D01*
X1850339Y1629460D01*
X1843887Y1632305D01*
X1839264Y1637182D01*
X1836928Y1641856D01*
X1803857Y1641856D01*
X1803857Y1636420D01*
X1806244Y1629054D01*
X1809089Y1623212D01*
X1812289Y1617421D01*
X1823313Y1606143D01*
X1832152Y1601114D01*
X1837994Y1598777D01*
X1845360Y1596390D01*
X1865934Y1596390D01*
X1873300Y1598777D01*
X1879142Y1601114D01*
X1887270Y1605838D01*
X1896364Y1614373D01*
X1903018Y1624330D01*
X1903018Y1625650D01*
X1905101Y1629816D01*
X1907438Y1638046D01*
X1907438Y1656283D01*
X1904644Y1666544D01*
X1902155Y1672336D01*
X1897075Y1680260D01*
X1890166Y1687677D01*
X1881632Y1693367D01*
X1879803Y1693367D01*
X1878126Y1695094D01*
X1872538Y1697126D01*
G37*
G36*
X1484071Y1673555D02*
G01*
X1467662Y1673301D01*
X1460347Y1672234D01*
X1445920Y1670608D01*
X1443177Y1669135D01*
X1438910Y1669135D01*
X1423568Y1664563D01*
X1409649Y1659178D01*
X1404112Y1656740D01*
X1392732Y1650593D01*
X1383182Y1644548D01*
X1374343Y1637944D01*
X1361135Y1626565D01*
X1353667Y1618030D01*
X1345692Y1608480D01*
X1336903Y1595323D01*
X1332941Y1587906D01*
X1328674Y1578914D01*
X1323289Y1566214D01*
X1323289Y1564081D01*
X1321206Y1559255D01*
X1317142Y1543100D01*
X1316024Y1532839D01*
X1314602Y1524000D01*
X1314450Y1503934D01*
X1316685Y1492402D01*
X1316685Y1486306D01*
X1319631Y1475486D01*
X1321663Y1466697D01*
X1323492Y1461566D01*
X1327861Y1450543D01*
X1335125Y1435811D01*
X1340967Y1425752D01*
X1349552Y1414526D01*
X1353769Y1409395D01*
X1371396Y1391666D01*
X1383182Y1382776D01*
X1393190Y1375918D01*
X1395018Y1375918D01*
X1396644Y1374292D01*
X1404874Y1370025D01*
X1415592Y1364894D01*
X1417777Y1364894D01*
X1419352Y1363319D01*
X1424330Y1362100D01*
X1428750Y1360627D01*
X1436827Y1358392D01*
X1447850Y1356207D01*
X1463243Y1353870D01*
X1481632Y1353921D01*
X1491945Y1355394D01*
X1499260Y1356207D01*
X1505153Y1358595D01*
X1508099Y1361592D01*
X1510131Y1366774D01*
X1511350Y1388059D01*
X1512316Y1396542D01*
X1510538Y1405686D01*
X1507490Y1408988D01*
X1488795Y1408988D01*
X1476705Y1406702D01*
X1460347Y1407363D01*
X1450035Y1409090D01*
X1441196Y1411376D01*
X1436065Y1413256D01*
X1424330Y1418132D01*
X1410360Y1426870D01*
X1402181Y1433118D01*
X1394866Y1440281D01*
X1386128Y1451051D01*
X1384655Y1453438D01*
X1380591Y1458823D01*
X1380591Y1461109D01*
X1379220Y1461973D01*
X1374190Y1472539D01*
X1371854Y1478432D01*
X1367383Y1494028D01*
X1367383Y1499209D01*
X1365046Y1511401D01*
X1365758Y1523288D01*
X1367383Y1534312D01*
X1370228Y1545285D01*
X1372006Y1550466D01*
X1373886Y1554886D01*
X1378762Y1565148D01*
X1385265Y1575460D01*
X1391920Y1584248D01*
X1403756Y1596085D01*
X1412544Y1602740D01*
X1422857Y1609293D01*
X1430020Y1612747D01*
X1437538Y1615592D01*
X1444904Y1617776D01*
X1455928Y1620113D01*
X1485290Y1620723D01*
X1497076Y1618335D01*
X1505153Y1616049D01*
X1513890Y1613154D01*
X1523542Y1608836D01*
X1527911Y1605940D01*
X1533855Y1602638D01*
X1543354Y1595628D01*
X1556715Y1582064D01*
X1565757Y1570024D01*
X1565757Y1568958D01*
X1567891Y1566621D01*
X1572361Y1557528D01*
X1572361Y1554378D01*
X1575511Y1544116D01*
X1580692Y1539087D01*
X1592173Y1539087D01*
X1599184Y1543253D01*
X1608734Y1549704D01*
X1613509Y1552295D01*
X1615084Y1552295D01*
X1619707Y1555597D01*
X1623009Y1559255D01*
X1624787Y1566976D01*
X1622907Y1573225D01*
X1614982Y1589379D01*
X1611630Y1595272D01*
X1601724Y1609953D01*
X1593596Y1620266D01*
X1582166Y1632000D01*
X1575714Y1637995D01*
X1563674Y1647088D01*
X1562912Y1647088D01*
X1553260Y1653692D01*
X1551178Y1653692D01*
X1550365Y1655013D01*
X1544421Y1658112D01*
X1542440Y1658112D01*
X1540764Y1660143D01*
X1537462Y1660906D01*
X1529384Y1664055D01*
X1513230Y1669135D01*
X1509572Y1669135D01*
X1502359Y1671320D01*
X1495602Y1671320D01*
G37*
G36*
X2101494Y1594154D02*
G01*
X2093722Y1594002D01*
X2082698Y1591767D01*
X2068779Y1585010D01*
X2055368Y1571599D01*
X2050897Y1562963D01*
X2048662Y1557782D01*
X2046325Y1549603D01*
X2046376Y1536192D01*
X2079396Y1536192D01*
X2079396Y1546352D01*
X2082546Y1552397D01*
X2089657Y1558493D01*
X2098141Y1560830D01*
X2108250Y1558188D01*
X2113026Y1554530D01*
X2117191Y1547520D01*
X2117090Y1535023D01*
X2113788Y1528724D01*
X2108454Y1524406D01*
X2099157Y1521256D01*
X2095195Y1522018D01*
X2089454Y1524203D01*
X2082546Y1530146D01*
X2079396Y1536192D01*
X2046376Y1536192D01*
X2046376Y1530604D01*
X2048510Y1524762D01*
X2048510Y1522882D01*
X2053183Y1512976D01*
X2059432Y1504899D01*
X2065070Y1499666D01*
X2072132Y1494993D01*
X2073960Y1494993D01*
X2075332Y1493621D01*
X2081987Y1491183D01*
X2098090Y1488287D01*
X2115718Y1491335D01*
X2117191Y1492758D01*
X2120188Y1492859D01*
X2128266Y1497431D01*
X2134108Y1501952D01*
X2138527Y1506423D01*
X2143404Y1512570D01*
X2147112Y1519478D01*
X2149246Y1525473D01*
X2151532Y1537970D01*
X2151481Y1544574D01*
X2149754Y1554124D01*
X2146096Y1564132D01*
X2140458Y1572564D01*
X2134514Y1579372D01*
X2124608Y1586636D01*
X2116531Y1590344D01*
X2111349Y1591919D01*
G37*
G36*
X1786382Y1589786D02*
G01*
X1774088Y1589633D01*
X1765249Y1587398D01*
X1759407Y1585214D01*
X1751177Y1580946D01*
X1741881Y1572514D01*
X1737918Y1567027D01*
X1738630Y1563319D01*
X1743964Y1559255D01*
X1746910Y1557426D01*
X1749094Y1556613D01*
X1751330Y1555242D01*
X1758340Y1552905D01*
X1766265Y1552092D01*
X1773377Y1554378D01*
X1785416Y1556461D01*
X1791716Y1554327D01*
X1794713Y1551178D01*
X1797050Y1546047D01*
X1799336Y1538681D01*
X1800148Y1533550D01*
X1802079Y1526590D01*
X1803857Y1524812D01*
X1803857Y1522425D01*
X1811934Y1513484D01*
X1817827Y1510385D01*
X1825752Y1510385D01*
X1830070Y1515922D01*
X1832457Y1527657D01*
X1832508Y1548231D01*
X1830070Y1555597D01*
X1827174Y1562963D01*
X1822450Y1570278D01*
X1814525Y1577949D01*
X1810816Y1580591D01*
X1807870Y1582369D01*
X1798828Y1586738D01*
G37*
G36*
X1942338Y1564741D02*
G01*
X1935022Y1564589D01*
X1927656Y1563166D01*
X1917750Y1559509D01*
X1907082Y1552448D01*
X1900631Y1546047D01*
X1894230Y1537716D01*
X1894230Y1535582D01*
X1892046Y1533753D01*
X1892046Y1531061D01*
X1890674Y1530248D01*
X1887626Y1520088D01*
X1887626Y1512468D01*
X1919833Y1512468D01*
X1920900Y1518005D01*
X1925066Y1524152D01*
X1929841Y1527810D01*
X1934260Y1530197D01*
X1945792Y1530248D01*
X1953564Y1525117D01*
X1958136Y1516430D01*
X1958136Y1503730D01*
X1955698Y1499768D01*
X1952650Y1496314D01*
X1945690Y1492758D01*
X1936292Y1492758D01*
X1929130Y1495958D01*
X1920849Y1504391D01*
X1919833Y1512468D01*
X1887626Y1512468D01*
X1887626Y1500886D01*
X1892909Y1487424D01*
X1898954Y1478483D01*
X1906473Y1470964D01*
X1912975Y1466646D01*
X1922525Y1462074D01*
X1929841Y1459687D01*
X1949704Y1459687D01*
X1957070Y1462125D01*
X1962912Y1464462D01*
X1971039Y1469186D01*
X1980336Y1478178D01*
X1986788Y1487627D01*
X1986788Y1489760D01*
X1988108Y1490522D01*
X1991156Y1500479D01*
X1992884Y1513179D01*
X1991868Y1517396D01*
X1990598Y1526184D01*
X1988413Y1532077D01*
X1984044Y1540713D01*
X1976170Y1550162D01*
X1968246Y1556308D01*
X1960016Y1560474D01*
X1954123Y1562608D01*
G37*
G36*
X1253693Y1539087D02*
G01*
X1200962Y1538935D01*
X1193647Y1536496D01*
X1184757Y1527606D01*
X1182217Y1519478D01*
X1182217Y1507794D01*
X1185011Y1499768D01*
X1192784Y1492758D01*
X1194511Y1492758D01*
X1198727Y1490573D01*
X1202436Y1490573D01*
X1207566Y1488948D01*
X1226667Y1487576D01*
X1232560Y1487474D01*
X1253337Y1488998D01*
X1256334Y1490573D01*
X1259890Y1490573D01*
X1266748Y1493570D01*
X1271828Y1498701D01*
X1274775Y1504492D01*
X1274775Y1521358D01*
X1272286Y1526946D01*
X1267256Y1533296D01*
X1261922Y1536547D01*
G37*
G36*
X1692503Y1530299D02*
G01*
X1672691Y1530096D01*
X1666798Y1528673D01*
X1658721Y1527606D01*
X1644040Y1522933D01*
X1637588Y1520647D01*
X1624177Y1513992D01*
X1610969Y1505712D01*
X1601419Y1498549D01*
X1588312Y1486509D01*
X1577594Y1474317D01*
X1570939Y1464208D01*
X1566519Y1456385D01*
X1561388Y1445006D01*
X1561388Y1443583D01*
X1559306Y1438757D01*
X1557020Y1430680D01*
X1553057Y1413052D01*
X1551686Y1362354D01*
X1551787Y1043432D01*
X1552651Y996391D01*
X1550263Y980998D01*
X1548028Y973632D01*
X1545590Y968502D01*
X1539087Y958189D01*
X1522476Y941069D01*
X1510995Y927353D01*
X1504391Y918514D01*
X1497584Y908253D01*
X1490065Y894994D01*
X1482547Y879703D01*
X1481378Y875893D01*
X1478280Y867816D01*
X1475384Y859028D01*
X1471472Y845058D01*
X1466596Y815543D01*
X1466596Y786282D01*
X1528216Y786282D01*
X1528826Y811225D01*
X1530553Y821537D01*
X1532890Y832561D01*
X1537157Y846531D01*
X1543151Y860450D01*
X1546301Y867105D01*
X1552549Y877569D01*
X1552549Y878636D01*
X1556969Y884224D01*
X1556969Y885190D01*
X1566062Y897229D01*
X1580083Y911047D01*
X1591157Y919429D01*
X1593138Y921816D01*
X1594967Y921816D01*
X1605280Y931773D01*
X1609445Y938377D01*
X1611426Y943508D01*
X1613814Y952347D01*
X1614627Y1402029D01*
X1616456Y1406144D01*
X1616456Y1410868D01*
X1618843Y1418183D01*
X1621078Y1424076D01*
X1625650Y1433372D01*
X1627479Y1434896D01*
X1627479Y1436827D01*
X1641906Y1451406D01*
X1654302Y1459433D01*
X1662379Y1462938D01*
X1674875Y1466189D01*
X1693672Y1466342D01*
X1703527Y1464106D01*
X1710334Y1461922D01*
X1712163Y1461922D01*
X1726844Y1454556D01*
X1731467Y1451356D01*
X1742998Y1440230D01*
X1748536Y1432001D01*
X1752346Y1423974D01*
X1754733Y1417472D01*
X1756003Y1410563D01*
X1757934Y1407160D01*
X1757934Y965555D01*
X1759762Y962355D01*
X1759762Y956716D01*
X1762150Y949401D01*
X1764334Y943508D01*
X1767179Y937615D01*
X1770075Y932738D01*
X1778000Y922934D01*
X1785112Y916228D01*
X1797862Y905560D01*
X1810410Y892403D01*
X1819300Y880770D01*
X1819300Y880008D01*
X1823110Y874420D01*
X1824431Y871474D01*
X1827530Y866343D01*
X1830120Y861212D01*
X1833575Y853338D01*
X1837588Y842467D01*
X1840636Y832561D01*
X1841957Y824179D01*
X1842871Y822655D01*
X1845310Y802436D01*
X1845360Y785520D01*
X1843481Y770839D01*
X1841195Y759053D01*
X1838909Y750976D01*
X1836267Y742899D01*
X1833422Y735380D01*
X1828749Y725576D01*
X1823516Y715721D01*
X1821484Y713384D01*
X1821484Y712520D01*
X1815490Y703529D01*
X1805736Y691489D01*
X1791716Y677468D01*
X1780692Y668528D01*
X1766011Y659028D01*
X1749094Y650595D01*
X1744675Y648665D01*
X1733651Y644652D01*
X1713484Y639673D01*
X1707032Y639673D01*
X1694942Y637387D01*
X1678584Y637946D01*
X1661668Y639724D01*
X1645513Y642569D01*
X1630781Y646938D01*
X1624279Y649325D01*
X1613357Y654354D01*
X1603603Y659688D01*
X1595780Y665022D01*
X1592783Y666699D01*
X1591868Y667969D01*
X1584502Y673811D01*
X1575866Y681939D01*
X1563878Y695858D01*
X1552702Y712774D01*
X1548231Y720852D01*
X1547418Y723087D01*
X1546047Y725271D01*
X1545183Y727456D01*
X1542846Y732231D01*
X1538427Y743254D01*
X1533956Y757224D01*
X1531112Y767892D01*
X1530451Y773023D01*
X1528216Y786282D01*
X1466596Y786282D01*
X1466596Y776528D01*
X1468170Y768604D01*
X1469339Y756869D01*
X1471117Y748030D01*
X1473250Y739241D01*
X1475333Y731875D01*
X1480464Y716432D01*
X1485087Y705408D01*
X1492300Y690727D01*
X1495653Y684834D01*
X1499616Y678637D01*
X1499616Y677976D01*
X1506474Y667969D01*
X1515364Y656183D01*
X1528876Y640791D01*
X1537512Y632714D01*
X1548841Y622604D01*
X1561287Y613206D01*
X1562252Y613206D01*
X1567840Y608787D01*
X1568805Y608787D01*
X1573479Y605282D01*
X1583385Y599998D01*
X1592580Y595426D01*
X1594815Y594106D01*
X1610969Y587552D01*
X1627124Y582472D01*
X1638147Y580034D01*
X1642567Y578612D01*
X1652828Y577748D01*
X1655775Y576224D01*
X1682953Y574903D01*
X1688846Y574903D01*
X1715312Y576326D01*
X1731467Y579526D01*
X1738071Y580644D01*
X1756460Y586028D01*
X1772716Y591718D01*
X1795373Y602996D01*
X1799793Y605840D01*
X1802739Y607364D01*
X1807159Y610260D01*
X1809343Y611276D01*
X1829917Y626719D01*
X1854301Y651052D01*
X1869643Y671626D01*
X1874367Y679094D01*
X1874367Y680313D01*
X1876552Y682752D01*
X1880158Y689254D01*
X1890674Y711098D01*
X1892401Y715518D01*
X1898396Y733348D01*
X1903018Y750366D01*
X1903018Y755142D01*
X1904542Y757936D01*
X1905914Y771550D01*
X1907336Y780389D01*
X1907438Y809193D01*
X1905863Y817118D01*
X1904644Y829614D01*
X1902917Y838453D01*
X1898446Y856081D01*
X1894839Y866343D01*
X1894128Y869289D01*
X1889658Y880313D01*
X1888337Y882497D01*
X1887474Y884732D01*
X1880158Y899414D01*
X1877364Y903833D01*
X1876348Y906018D01*
X1869693Y916330D01*
X1856486Y933958D01*
X1850491Y940460D01*
X1835454Y956106D01*
X1830120Y963117D01*
X1823669Y976071D01*
X1823669Y978255D01*
X1821281Y983945D01*
X1821332Y1363929D01*
X1818792Y1422654D01*
X1817471Y1424787D01*
X1816557Y1432153D01*
X1814220Y1440230D01*
X1810308Y1451254D01*
X1808988Y1453438D01*
X1808124Y1455674D01*
X1806752Y1457858D01*
X1805279Y1461566D01*
X1802384Y1465935D01*
X1801368Y1468170D01*
X1791004Y1482039D01*
X1780692Y1492453D01*
X1762760Y1506016D01*
X1761947Y1506016D01*
X1755698Y1509928D01*
X1741017Y1517142D01*
X1736598Y1519072D01*
X1724863Y1523441D01*
X1716786Y1525727D01*
X1707946Y1527911D01*
G37*
G36*
X1877720Y1428750D02*
G01*
X1865223Y1426210D01*
X1861312Y1423619D01*
X1858975Y1418691D01*
X1858975Y1413560D01*
X1861159Y1402029D01*
X1861159Y1395222D01*
X1863140Y1393596D01*
X1884527Y1393952D01*
X1891487Y1388059D01*
X1894890Y1381455D01*
X1896719Y1374597D01*
X1893925Y1366012D01*
X1888947Y1359712D01*
X1881581Y1356004D01*
X1871065Y1356614D01*
X1864766Y1358493D01*
X1861667Y1355191D01*
X1860296Y1349095D01*
X1859483Y1343304D01*
X1861362Y1330756D01*
X1864156Y1326032D01*
X1869033Y1323035D01*
X1886508Y1323035D01*
X1895602Y1325880D01*
X1907286Y1332026D01*
X1915160Y1339596D01*
X1920493Y1346200D01*
X1924405Y1353312D01*
X1927199Y1361592D01*
X1929638Y1374851D01*
X1926793Y1389532D01*
X1924456Y1396136D01*
X1921916Y1401267D01*
X1914753Y1411122D01*
X1905762Y1419402D01*
X1902663Y1420774D01*
X1898294Y1423670D01*
X1891233Y1426616D01*
X1887728Y1426616D01*
X1884324Y1427886D01*
G37*
G36*
X1313383Y1381810D02*
G01*
X1311148Y1380388D01*
X1307185Y1380337D01*
X1301140Y1377188D01*
X1285138Y1362659D01*
X1283970Y1360627D01*
X1275130Y1351280D01*
X1266190Y1341018D01*
X1259382Y1331671D01*
X1259382Y1318971D01*
X1261567Y1314805D01*
X1261567Y1313383D01*
X1268222Y1304747D01*
X1272946Y1301343D01*
X1278636Y1298803D01*
X1289558Y1298803D01*
X1295450Y1301800D01*
X1306372Y1309166D01*
X1323644Y1326388D01*
X1327454Y1330756D01*
X1330147Y1335176D01*
X1333449Y1338834D01*
X1338326Y1346200D01*
X1340764Y1351330D01*
X1342085Y1357223D01*
X1340358Y1365300D01*
X1337919Y1370025D01*
X1328928Y1378153D01*
X1326540Y1378153D01*
X1324914Y1379778D01*
G37*
G36*
X1475994Y1316431D02*
G01*
X1472082Y1316278D01*
X1466951Y1314856D01*
X1462938Y1314043D01*
X1461262Y1312011D01*
X1459331Y1312011D01*
X1452168Y1305052D01*
X1449476Y1299870D01*
X1446784Y1288135D01*
X1446733Y1252220D01*
X1451254Y1235202D01*
X1456486Y1227429D01*
X1461058Y1224229D01*
X1466748Y1221638D01*
X1478026Y1221638D01*
X1485290Y1224280D01*
X1489913Y1226718D01*
X1494383Y1231188D01*
X1496923Y1235964D01*
X1498295Y1248460D01*
X1498447Y1290320D01*
X1496822Y1299159D01*
X1494840Y1304290D01*
X1492097Y1308354D01*
X1484884Y1313637D01*
G37*
G36*
X1689658Y1292148D02*
G01*
X1681480Y1292047D01*
X1674164Y1289812D01*
X1669745Y1287526D01*
X1663395Y1282446D01*
X1662023Y1279296D01*
X1658924Y1274216D01*
X1656181Y1263904D01*
X1656080Y900176D01*
X1653946Y894283D01*
X1653946Y891895D01*
X1645310Y882497D01*
X1638909Y879144D01*
X1634489Y876300D01*
X1632254Y875284D01*
X1621129Y866851D01*
X1608937Y853846D01*
X1603654Y845769D01*
X1600301Y839927D01*
X1596745Y831799D01*
X1592681Y820064D01*
X1590090Y807567D01*
X1590040Y780643D01*
X1592326Y770839D01*
X1594612Y762762D01*
X1596847Y756869D01*
X1601876Y746607D01*
X1603603Y743661D01*
X1612239Y731875D01*
X1620520Y723290D01*
X1634540Y712774D01*
X1652320Y703580D01*
X1655114Y703580D01*
X1656537Y702259D01*
X1666087Y699719D01*
X1687372Y696874D01*
X1707235Y699719D01*
X1715414Y701954D01*
X1722628Y704443D01*
X1735886Y710946D01*
X1738782Y712774D01*
X1750568Y721461D01*
X1761591Y732637D01*
X1768551Y741680D01*
X1768551Y742696D01*
X1772970Y749249D01*
X1772970Y751179D01*
X1775206Y753008D01*
X1775206Y754532D01*
X1779016Y764133D01*
X1781048Y771550D01*
X1783994Y787704D01*
X1783943Y805383D01*
X1782521Y811987D01*
X1781657Y817880D01*
X1778355Y828141D01*
X1776323Y833272D01*
X1772208Y842111D01*
X1770430Y845058D01*
X1766366Y850392D01*
X1766366Y851662D01*
X1761185Y857554D01*
X1754225Y864717D01*
X1743202Y873048D01*
X1733854Y878687D01*
X1724863Y887120D01*
X1720342Y896467D01*
X1717852Y904036D01*
X1717852Y1261211D01*
X1715109Y1272794D01*
X1710943Y1281277D01*
X1704441Y1287018D01*
X1698396Y1289964D01*
G37*
G36*
X2059482Y1280414D02*
G01*
X2056231Y1280261D01*
X2048154Y1278432D01*
X2040839Y1274318D01*
X2014372Y1250492D01*
X1993442Y1233017D01*
X1969465Y1214475D01*
X1929485Y1185265D01*
X1921662Y1180134D01*
X1905101Y1168349D01*
X1895348Y1161846D01*
X1878431Y1149096D01*
X1871980Y1142644D01*
X1865833Y1134567D01*
X1861870Y1126185D01*
X1859584Y1116177D01*
X1858822Y1108100D01*
X1860600Y1100023D01*
X1861515Y1085494D01*
X1866544Y1082802D01*
X1869186Y1084224D01*
X1878838Y1092454D01*
X1888693Y1100429D01*
X2032507Y1208786D01*
X2044496Y1217168D01*
X2047493Y1217218D01*
X2049932Y1215390D01*
X2055164Y1204823D01*
X2055164Y1203299D01*
X2064969Y1177899D01*
X2066188Y1176528D01*
X2066188Y1173429D01*
X2068322Y1170584D01*
X2068372Y1168349D01*
X2071827Y1159865D01*
X2072792Y1158951D01*
X2072792Y1155801D01*
X2074925Y1152906D01*
X2074976Y1150721D01*
X2078431Y1142238D01*
X2079396Y1141272D01*
X2079396Y1138123D01*
X2081580Y1135278D01*
X2081580Y1132890D01*
X2086152Y1122070D01*
X2092452Y1105154D01*
X2103831Y1076502D01*
X2107895Y1065479D01*
X2116886Y1043025D01*
X2116886Y1041450D01*
X2118918Y1036828D01*
X2119680Y1033881D01*
X2122881Y1025804D01*
X2124151Y1021384D01*
X2131720Y999337D01*
X2132838Y994206D01*
X2134362Y990549D01*
X2139645Y971042D01*
X2141575Y961898D01*
X2143201Y956716D01*
X2144776Y948639D01*
X2146401Y938428D01*
X2147722Y935888D01*
X2147722Y928573D01*
X2149957Y917041D01*
X2149957Y884428D01*
X2148433Y877316D01*
X2147112Y867105D01*
X2143150Y852373D01*
X2140458Y844296D01*
X2137664Y836980D01*
X2133650Y827430D01*
X2132279Y826008D01*
X2132279Y823569D01*
X2130094Y821740D01*
X2130094Y819150D01*
X2127910Y817321D01*
X2127910Y814730D01*
X2125675Y812901D01*
X2125675Y810920D01*
X2121865Y805383D01*
X2120544Y802436D01*
X2118715Y799490D01*
X2114651Y794156D01*
X2114651Y793191D01*
X2106930Y783183D01*
X2098598Y773023D01*
X2089302Y763422D01*
X2079040Y754583D01*
X2070201Y747928D01*
X2060600Y741324D01*
X2051862Y736498D01*
X2036622Y729132D01*
X2029053Y726236D01*
X2013610Y721207D01*
X1999691Y717448D01*
X1990852Y716229D01*
X1988515Y715264D01*
X1971039Y713028D01*
X1944573Y711911D01*
X1938782Y710082D01*
X1932330Y705154D01*
X1925472Y695807D01*
X1923643Y692658D01*
X1920697Y684174D01*
X1920697Y677824D01*
X1923592Y672084D01*
X1925218Y671118D01*
X1933549Y669188D01*
X1964385Y668223D01*
X1992325Y671118D01*
X2001875Y672744D01*
X2012899Y675030D01*
X2029053Y679551D01*
X2033879Y681532D01*
X2036013Y681532D01*
X2051862Y687984D01*
X2063597Y693318D01*
X2072436Y698398D01*
X2076094Y700024D01*
X2080514Y703326D01*
X2085644Y706170D01*
X2095906Y713028D01*
X2112111Y725982D01*
X2134209Y748030D01*
X2147163Y764235D01*
X2148027Y766419D01*
X2154123Y774496D01*
X2155139Y776732D01*
X2161540Y786993D01*
X2169058Y800963D01*
X2173173Y810717D01*
X2176373Y817372D01*
X2176373Y819556D01*
X2178456Y823721D01*
X2182926Y837692D01*
X2186940Y852373D01*
X2191207Y875893D01*
X2192324Y900074D01*
X2194001Y900633D01*
X2194001Y922680D01*
X2191816Y924864D01*
X2191867Y933958D01*
X2189530Y949401D01*
X2185111Y971448D01*
X2182926Y980236D01*
X2173986Y1011123D01*
X2170379Y1021384D01*
X2169160Y1025804D01*
X2165908Y1034643D01*
X2164740Y1039012D01*
X2161590Y1047089D01*
X2160371Y1051509D01*
X2152802Y1071372D01*
X2149398Y1081024D01*
X2147874Y1083868D01*
X2143201Y1096365D01*
X2128062Y1133805D01*
X2113788Y1170178D01*
X2102104Y1202182D01*
X2100834Y1206550D01*
X2096363Y1219403D01*
X2086559Y1252118D01*
X2085390Y1257249D01*
X2083409Y1262583D01*
X2081885Y1264615D01*
X2079904Y1268577D01*
X2072792Y1275842D01*
X2067204Y1278737D01*
G37*
G36*
X1410716Y1164336D02*
G01*
X1399336Y1164183D01*
X1393444Y1161491D01*
X1387195Y1154430D01*
X1387195Y1151890D01*
X1385925Y1151128D01*
X1382776Y1137513D01*
X1383182Y703224D01*
X1388313Y690016D01*
X1396492Y681939D01*
X1402638Y680059D01*
X1407007Y680059D01*
X1414780Y681736D01*
X1418437Y684022D01*
X1422501Y687679D01*
X1422501Y689356D01*
X1424228Y691083D01*
X1426210Y698093D01*
X1427988Y710590D01*
X1427988Y1135278D01*
X1426819Y1144828D01*
X1424381Y1153668D01*
X1421688Y1158341D01*
X1416964Y1161846D01*
G37*
G36*
X1464360Y1089355D02*
G01*
X1458112Y1089304D01*
X1452016Y1086459D01*
X1447596Y1082040D01*
X1445056Y1075029D01*
X1443583Y1066952D01*
X1443024Y902919D01*
X1445260Y897585D01*
X1448104Y897585D01*
X1451305Y904544D01*
X1457248Y915568D01*
X1462176Y923391D01*
X1462176Y924661D01*
X1468475Y933958D01*
X1478026Y949401D01*
X1483817Y958189D01*
X1485747Y963371D01*
X1486611Y1042720D01*
X1483817Y1075791D01*
X1479448Y1084478D01*
X1470609Y1089355D01*
G37*
G36*
X1938172Y1076147D02*
G01*
X1919579Y1075994D01*
X1910029Y1073251D01*
X1903882Y1071067D01*
X1895348Y1066444D01*
X1890369Y1062685D01*
X1882343Y1055268D01*
X1874621Y1044905D01*
X1869998Y1034999D01*
X1869998Y1032967D01*
X1867763Y1027684D01*
X1867763Y1016508D01*
X1911807Y1016508D01*
X1914601Y1024788D01*
X1919427Y1029766D01*
X1922525Y1030478D01*
X1934260Y1030071D01*
X1939696Y1026820D01*
X1942744Y1021689D01*
X1942744Y1008532D01*
X1939086Y1002741D01*
X1933549Y998982D01*
X1924812Y998982D01*
X1918512Y1002030D01*
X1914296Y1007414D01*
X1911807Y1016508D01*
X1867763Y1016508D01*
X1867763Y1004316D01*
X1870151Y996391D01*
X1872335Y990549D01*
X1876958Y981710D01*
X1881327Y975817D01*
X1884324Y972464D01*
X1895348Y963980D01*
X1904898Y959561D01*
X1910740Y957580D01*
X1918868Y956259D01*
X1929130Y955497D01*
X1941626Y957173D01*
X1949704Y959459D01*
X1960016Y964488D01*
X1962912Y966266D01*
X1969160Y971143D01*
X1977339Y979576D01*
X1982216Y987704D01*
X1986686Y999337D01*
X1989226Y1011326D01*
X1988464Y1025093D01*
X1986635Y1032408D01*
X1984400Y1038301D01*
X1981606Y1044194D01*
X1979828Y1047089D01*
X1973224Y1055928D01*
X1965147Y1063752D01*
X1956562Y1069543D01*
X1954682Y1069543D01*
X1952853Y1071727D01*
X1950872Y1071727D01*
X1946046Y1073810D01*
G37*
G36*
X1349959Y1043076D02*
G01*
X1344218Y1042974D01*
X1335379Y1040180D01*
X1330452Y1035812D01*
X1328318Y1031697D01*
X1325473Y1023670D01*
X1325524Y822248D01*
X1328470Y812800D01*
X1332433Y807567D01*
X1334668Y805738D01*
X1341120Y802792D01*
X1353464Y802792D01*
X1359662Y805891D01*
X1362964Y808939D01*
X1362964Y810564D01*
X1364640Y812241D01*
X1367383Y820013D01*
X1367383Y1025702D01*
X1364792Y1033729D01*
X1358138Y1040536D01*
G37*
G36*
X1233322Y1010005D02*
G01*
X1227378Y1009954D01*
X1220724Y1007414D01*
X1217777Y1005230D01*
X1213713Y999794D01*
X1210868Y988314D01*
X1210868Y857656D01*
X1213256Y849477D01*
X1215491Y845058D01*
X1219301Y840892D01*
X1225499Y838047D01*
X1235913Y838047D01*
X1240637Y840486D01*
X1245768Y844550D01*
X1250543Y855014D01*
X1250543Y858266D01*
X1252728Y868578D01*
X1252677Y967740D01*
X1251254Y978052D01*
X1249832Y992479D01*
X1248156Y997864D01*
X1245971Y1002537D01*
X1241044Y1007262D01*
G37*
G36*
X2082190Y992378D02*
G01*
X2076094Y992225D01*
X2065782Y989533D01*
X2060244Y987450D01*
X2058517Y985774D01*
X2056180Y985774D01*
X2054555Y984097D01*
X2043734Y978357D01*
X2039366Y975512D01*
X2035657Y973988D01*
X2031288Y971296D01*
X2019503Y964946D01*
X2015083Y962304D01*
X2007768Y958545D01*
X1993798Y950620D01*
X1991563Y949756D01*
X1986432Y946658D01*
X1979828Y943051D01*
X1975408Y940206D01*
X1971751Y938733D01*
X1966620Y935634D01*
X1944573Y923493D01*
X1939391Y920394D01*
X1936496Y918921D01*
X1928418Y913384D01*
X1924862Y906881D01*
X1926437Y898702D01*
X1927860Y892810D01*
X1931822Y881786D01*
X1934210Y876655D01*
X1937105Y873353D01*
X1945639Y873353D01*
X2007768Y907897D01*
X2010714Y909319D01*
X2012899Y910691D01*
X2015083Y911555D01*
X2019503Y914247D01*
X2031288Y920597D01*
X2035657Y923239D01*
X2043023Y926998D01*
X2056993Y934974D01*
X2059178Y935786D01*
X2063597Y938479D01*
X2079040Y946912D01*
X2083460Y949756D01*
X2086914Y951230D01*
X2096109Y960424D01*
X2099259Y966571D01*
X2099259Y977696D01*
X2096312Y983132D01*
X2089708Y989939D01*
G37*
G36*
X1292809Y989431D02*
G01*
X1286916Y989330D01*
X1279245Y987450D01*
X1274165Y983538D01*
X1271219Y979474D01*
X1268171Y970737D01*
X1268171Y872083D01*
X1272641Y863193D01*
X1276604Y860501D01*
X1281379Y857910D01*
X1297533Y857910D01*
X1303172Y860856D01*
X1307541Y865632D01*
X1310081Y872998D01*
X1308404Y886917D01*
X1308303Y906018D01*
X1310030Y923645D01*
X1309979Y959662D01*
X1308506Y966266D01*
X1307236Y975106D01*
X1305153Y980643D01*
X1303426Y982370D01*
X1303426Y984199D01*
X1299311Y987145D01*
G37*
G36*
X1178356Y976934D02*
G01*
X1165656Y976833D01*
X1160119Y974242D01*
X1156462Y970787D01*
X1153668Y964844D01*
X1151686Y951585D01*
X1151686Y896467D01*
X1153820Y883259D01*
X1156512Y877112D01*
X1163472Y871118D01*
X1166571Y871118D01*
X1171346Y869442D01*
X1181862Y871372D01*
X1186535Y874166D01*
X1190650Y879602D01*
X1192631Y883107D01*
X1195324Y899414D01*
X1195476Y947166D01*
X1193038Y962609D01*
X1190650Y968502D01*
X1186332Y973429D01*
G37*
G36*
X1113790Y943864D02*
G01*
X1107643Y943813D01*
X1101496Y940968D01*
X1096975Y936396D01*
X1095349Y929894D01*
X1094028Y929894D01*
X1094028Y918159D01*
X1095451Y918159D01*
X1096314Y912672D01*
X1098702Y907491D01*
X1103934Y902665D01*
X1113790Y899668D01*
X1122324Y902106D01*
X1127150Y905103D01*
X1132840Y912672D01*
X1135938Y921410D01*
X1135938Y924560D01*
X1133043Y932891D01*
X1128420Y939342D01*
X1119886Y943864D01*
G37*
G36*
X1979117Y855624D02*
G01*
X1968093Y852932D01*
X1962912Y851153D01*
X1952650Y845972D01*
X1948027Y842518D01*
X1944725Y837184D01*
X1945487Y813257D01*
X1947113Y810260D01*
X1947113Y797306D01*
X1970481Y797306D01*
X1972208Y803605D01*
X1977745Y809142D01*
X1985721Y811479D01*
X1987499Y811631D01*
X1994509Y809244D01*
X1999284Y804722D01*
X2002231Y799084D01*
X2002231Y788009D01*
X1995271Y781100D01*
X1987397Y778560D01*
X1981911Y779424D01*
X1975561Y782624D01*
X1971344Y787806D01*
X1970481Y797306D01*
X1947113Y797306D01*
X1947113Y782574D01*
X1945589Y776732D01*
X1944725Y752144D01*
X1949856Y745845D01*
X1963674Y738987D01*
X1969566Y736854D01*
X1977745Y734466D01*
X1995982Y734466D01*
X2005533Y737311D01*
X2011832Y739597D01*
X2017623Y743254D01*
X2018792Y743356D01*
X2030526Y752551D01*
X2039061Y763473D01*
X2043531Y772922D01*
X2045766Y780389D01*
X2046478Y795121D01*
X2043633Y809040D01*
X2041194Y816102D01*
X2036622Y825957D01*
X2028494Y836980D01*
X2022449Y842518D01*
X2014270Y848207D01*
X2006295Y851865D01*
X1995982Y855065D01*
G37*
G36*
X1971802Y425856D02*
G01*
X1952650Y425704D01*
X1942338Y423011D01*
X1936800Y420928D01*
X1935073Y419252D01*
X1932787Y419201D01*
X1923237Y411429D01*
X1915007Y400710D01*
X1906117Y382828D01*
X1898650Y364794D01*
X1898650Y362712D01*
X1896567Y357886D01*
X1892503Y343916D01*
X1888185Y321868D01*
X1886915Y310083D01*
X1885442Y299821D01*
X1885410Y265328D01*
X1918411Y265328D01*
X1919071Y299821D01*
X1920748Y319684D01*
X1922221Y324815D01*
X1923440Y335076D01*
X1926183Y347573D01*
X1930146Y363016D01*
X1932330Y370382D01*
X1939594Y390194D01*
X1947418Y408584D01*
X1950872Y414172D01*
X1954123Y415543D01*
X1962353Y415086D01*
X1966417Y411886D01*
X1969211Y406704D01*
X1975561Y387248D01*
X1977339Y380644D01*
X1982317Y357124D01*
X1986838Y327761D01*
X1986788Y320141D01*
X1989023Y308660D01*
X1989023Y298145D01*
X1991360Y285902D01*
X1989785Y277774D01*
X1988921Y265277D01*
X1986686Y254254D01*
X1984502Y245465D01*
X1981758Y236626D01*
X1977847Y227075D01*
X1970582Y212090D01*
X1969160Y211175D01*
X1969160Y209194D01*
X1959254Y194614D01*
X1951888Y185267D01*
X1941779Y174548D01*
X1936343Y174548D01*
X1934108Y177088D01*
X1931822Y184454D01*
X1927809Y200609D01*
X1926691Y207975D01*
X1925777Y210261D01*
X1920748Y241757D01*
X1919986Y258013D01*
X1918411Y265328D01*
X1885410Y265328D01*
X1885391Y257200D01*
X1888794Y234797D01*
X1892554Y212394D01*
X1896516Y196189D01*
X1898040Y191820D01*
X1899157Y187401D01*
X1906016Y172720D01*
X1907844Y169773D01*
X1914042Y161442D01*
X1920951Y155397D01*
X1927504Y152501D01*
X1942033Y152501D01*
X1951126Y155549D01*
X1960016Y159867D01*
X1962912Y161696D01*
X1968804Y166065D01*
X1977694Y174904D01*
X1984248Y183743D01*
X1986330Y187401D01*
X1993442Y201574D01*
X1993442Y203860D01*
X1994865Y204724D01*
X1996236Y209448D01*
X1999386Y217525D01*
X2004517Y233679D01*
X2008378Y247650D01*
X2012696Y269697D01*
X2013966Y281432D01*
X2015439Y291744D01*
X2015439Y324053D01*
X2013915Y334365D01*
X2012696Y349808D01*
X2009546Y368909D01*
X2008327Y374751D01*
X2003856Y389483D01*
X2001367Y395325D01*
X1995271Y407162D01*
X1987499Y417576D01*
X1982520Y421436D01*
X1981250Y421436D01*
X1979523Y423113D01*
G37*
G36*
X1785112Y421538D02*
G01*
X1777034Y417372D01*
X1772920Y409295D01*
X1773682Y302768D01*
X1775256Y295402D01*
X1774698Y220471D01*
X1773021Y197662D01*
X1775815Y176377D01*
X1779828Y163169D01*
X1782521Y157226D01*
X1787296Y152654D01*
X1799488Y150266D01*
X1837283Y150317D01*
X1844497Y152501D01*
X1848662Y152501D01*
X1854047Y155346D01*
X1856739Y159461D01*
X1856739Y162915D01*
X1854200Y167335D01*
X1849018Y169672D01*
X1810816Y170535D01*
X1806143Y173075D01*
X1802028Y178460D01*
X1801520Y206502D01*
X1803247Y215341D01*
X1804619Y251307D01*
X1805939Y268224D01*
X1805939Y293217D01*
X1804416Y307187D01*
X1803400Y408584D01*
X1800910Y415798D01*
X1798472Y418490D01*
X1793951Y420827D01*
G37*
G36*
X1564386Y421436D02*
G01*
X1553667Y421284D01*
X1548942Y418388D01*
X1543710Y410514D01*
X1543710Y409092D01*
X1541526Y404876D01*
X1541475Y399034D01*
X1540002Y393141D01*
X1538681Y383590D01*
X1537004Y374751D01*
X1534922Y365709D01*
X1534922Y361086D01*
X1533398Y358241D01*
X1532077Y349046D01*
X1525574Y320395D01*
X1520545Y300736D01*
X1516176Y285140D01*
X1510487Y266039D01*
X1507744Y258317D01*
X1503832Y246176D01*
X1501851Y242265D01*
X1501851Y239471D01*
X1500682Y238099D01*
X1497279Y229260D01*
X1495298Y224891D01*
X1483309Y200863D01*
X1482293Y202082D01*
X1477518Y218998D01*
X1475994Y223418D01*
X1472590Y235915D01*
X1471168Y239572D01*
X1457604Y282905D01*
X1455724Y288086D01*
X1453134Y296875D01*
X1451356Y302006D01*
X1445717Y320954D01*
X1441246Y337108D01*
X1436268Y357124D01*
X1435100Y364490D01*
X1433525Y368604D01*
X1433525Y373024D01*
X1431442Y382117D01*
X1428597Y398272D01*
X1426768Y405638D01*
X1424127Y414426D01*
X1418894Y418642D01*
X1412443Y419404D01*
X1406550Y416407D01*
X1402994Y411530D01*
X1400556Y406349D01*
X1396238Y394614D01*
X1393799Y387248D01*
X1393850Y383133D01*
X1392072Y379933D01*
X1390954Y345389D01*
X1389532Y325526D01*
X1389380Y279958D01*
X1387957Y274116D01*
X1387144Y230733D01*
X1385671Y222351D01*
X1384300Y192532D01*
X1382928Y183743D01*
X1382826Y163677D01*
X1388008Y159105D01*
X1400962Y159105D01*
X1406702Y163322D01*
X1409090Y169773D01*
X1413002Y185928D01*
X1414373Y201066D01*
X1415186Y202387D01*
X1416659Y220471D01*
X1417929Y229260D01*
X1418082Y247192D01*
X1419707Y254863D01*
X1420672Y284378D01*
X1421942Y284378D01*
X1423771Y277774D01*
X1431950Y251307D01*
X1445666Y210566D01*
X1453438Y189585D01*
X1455572Y185420D01*
X1455572Y183997D01*
X1459941Y175107D01*
X1464564Y169265D01*
X1470202Y165709D01*
X1476146Y165709D01*
X1485544Y170281D01*
X1497584Y182168D01*
X1503832Y190347D01*
X1512519Y205028D01*
X1517446Y215341D01*
X1519682Y220471D01*
X1521663Y224383D01*
X1521663Y227380D01*
X1523085Y228244D01*
X1524457Y232968D01*
X1529892Y247650D01*
X1531112Y252069D01*
X1534718Y262331D01*
X1538630Y274472D01*
X1541526Y281889D01*
X1541526Y284378D01*
X1542796Y286359D01*
X1545742Y284835D01*
X1548130Y276199D01*
X1548231Y183743D01*
X1549654Y171958D01*
X1550720Y158750D01*
X1553260Y154076D01*
X1558036Y150672D01*
X1571447Y150164D01*
X1577543Y153263D01*
X1581048Y158750D01*
X1582775Y170484D01*
X1582064Y209448D01*
X1580591Y244703D01*
X1579016Y251307D01*
X1578864Y267512D01*
X1577492Y276301D01*
X1576019Y312115D01*
X1574596Y314807D01*
X1574444Y370382D01*
X1573022Y384302D01*
X1571904Y410768D01*
X1569313Y417677D01*
G37*
G36*
X1726742Y414832D02*
G01*
X1694738Y414629D01*
X1669745Y410921D01*
X1647545Y410057D01*
X1644751Y407924D01*
X1642922Y405739D01*
X1642922Y398576D01*
X1644446Y395732D01*
X1649882Y393395D01*
X1659178Y393496D01*
X1662175Y395122D01*
X1676501Y394614D01*
X1681886Y390499D01*
X1684832Y384759D01*
X1684832Y204317D01*
X1682496Y188874D01*
X1680362Y178562D01*
X1678025Y170484D01*
X1673860Y160629D01*
X1669846Y155346D01*
X1664309Y152501D01*
X1656384Y152501D01*
X1650339Y156870D01*
X1647748Y161696D01*
X1645767Y170484D01*
X1644548Y212394D01*
X1642262Y220116D01*
X1639214Y224383D01*
X1634286Y227431D01*
X1624584Y227431D01*
X1618589Y224332D01*
X1614678Y219151D01*
X1612595Y213867D01*
X1611172Y196189D01*
X1611122Y188112D01*
X1612696Y171958D01*
X1614474Y165354D01*
X1616608Y159461D01*
X1618691Y155295D01*
X1618691Y153924D01*
X1625904Y144322D01*
X1632254Y139598D01*
X1637436Y137261D01*
X1642567Y135432D01*
X1649831Y134366D01*
X1650390Y132638D01*
X1665833Y132638D01*
X1668018Y134874D01*
X1672031Y134874D01*
X1679752Y137566D01*
X1681429Y139293D01*
X1683257Y139293D01*
X1690319Y143865D01*
X1700225Y154076D01*
X1700225Y155549D01*
X1703781Y160223D01*
X1706676Y167538D01*
X1708962Y175615D01*
X1710791Y187401D01*
X1711858Y216052D01*
X1713585Y241757D01*
X1712671Y320395D01*
X1711299Y326288D01*
X1711299Y384302D01*
X1713839Y392430D01*
X1716532Y396392D01*
X1721307Y399186D01*
X1729993Y400151D01*
X1735582Y401015D01*
X1739900Y404672D01*
X1739900Y410972D01*
X1738071Y412496D01*
G37*
D10*
X1485900Y5107178D02*
G01*
X1485900Y4913376D01*
X1485900Y5107178D02*
G01*
X1568957Y5107178D01*
X1596644Y5098034D01*
X1606042Y5088889D01*
X1615186Y5070347D01*
X1615186Y5042662D01*
X1606042Y5024120D01*
X1596644Y5014976D01*
X1568957Y5005578D01*
X1485900Y5005578D01*
X1778000Y5107178D02*
G01*
X1778000Y4913376D01*
X1778000Y4913376D02*
G01*
X1888744Y4913376D01*
X1295400Y5107178D02*
G01*
X1295400Y4913376D01*
D11*
X3390900Y1385315D02*
G01*
X3390900Y1276350D01*
X3390900Y1385315D02*
G01*
X3437636Y1385315D01*
X3453129Y1380236D01*
X3458463Y1374902D01*
X3463543Y1364487D01*
X3463543Y1354073D01*
X3458463Y1343660D01*
X3453129Y1338579D01*
X3437636Y1333500D01*
X3390900Y1333500D01*
X3427222Y1333500D02*
G01*
X3463543Y1276350D01*
X3497834Y1364487D02*
G01*
X3508247Y1369821D01*
X3523995Y1385315D01*
X3523995Y1276350D01*
X3681984Y2717800D02*
G01*
X3790950Y2717800D01*
X3681984Y2717800D02*
G01*
X3681984Y2785363D01*
X3733800Y2717800D02*
G01*
X3733800Y2759455D01*
X3681984Y2819654D02*
G01*
X3790950Y2819654D01*
X3681984Y2819654D02*
G01*
X3681984Y2866389D01*
X3687063Y2881884D01*
X3692397Y2887218D01*
X3702811Y2892297D01*
X3713225Y2892297D01*
X3723640Y2887218D01*
X3728720Y2881884D01*
X3733800Y2866389D01*
X3733800Y2819654D01*
X3733800Y2855976D02*
G01*
X3790950Y2892297D01*
X3681984Y2926587D02*
G01*
X3790950Y2926587D01*
X3681984Y2926587D02*
G01*
X3681984Y2994152D01*
X3733800Y2926587D02*
G01*
X3733800Y2968244D01*
X3790950Y2926587D02*
G01*
X3790950Y2994152D01*
X3681984Y3028442D02*
G01*
X3790950Y3028442D01*
X3681984Y3028442D02*
G01*
X3681984Y3096005D01*
X3733800Y3028442D02*
G01*
X3733800Y3070097D01*
X3790950Y3028442D02*
G01*
X3790950Y3096005D01*
X3713225Y3156204D02*
G01*
X3775456Y3156204D01*
X3728720Y3130295D02*
G01*
X3759961Y3182365D01*
X3728720Y3182365D02*
G01*
X3759961Y3130295D01*
X1676400Y6325615D02*
G01*
X1676400Y6216650D01*
X1676400Y6325615D02*
G01*
X1712721Y6325615D01*
X1728470Y6320536D01*
X1738629Y6310121D01*
X1743963Y6299707D01*
X1749044Y6283960D01*
X1749044Y6258052D01*
X1743963Y6242557D01*
X1738629Y6232144D01*
X1728470Y6221729D01*
X1712721Y6216650D01*
X1676400Y6216650D01*
X1783334Y6325615D02*
G01*
X1783334Y6216650D01*
X1817623Y6325615D02*
G01*
X1817623Y6216650D01*
X1817623Y6325615D02*
G01*
X1864360Y6325615D01*
X1880107Y6320536D01*
X1885187Y6315202D01*
X1890521Y6304787D01*
X1890521Y6289294D01*
X1885187Y6278879D01*
X1880107Y6273800D01*
X1864360Y6268465D01*
X1817623Y6268465D01*
D12*
X1285747Y5468620D02*
G01*
X1290320Y5470905D01*
X1297178Y5477510D01*
X1297178Y5429757D01*
X1540763Y5467350D02*
G01*
X1540763Y5469636D01*
X1543050Y5473954D01*
X1545336Y5476239D01*
X1549907Y5478526D01*
X1559052Y5478526D01*
X1563370Y5476239D01*
X1565655Y5473954D01*
X1567942Y5469636D01*
X1567942Y5465063D01*
X1565655Y5460492D01*
X1561084Y5453634D01*
X1538478Y5430773D01*
X1570228Y5430773D01*
X1788921Y5478526D02*
G01*
X1813813Y5478526D01*
X1800352Y5460492D01*
X1806955Y5460492D01*
X1811528Y5458205D01*
X1813813Y5455920D01*
X1816100Y5449062D01*
X1816100Y5444489D01*
X1813813Y5437631D01*
X1809242Y5433060D01*
X1802637Y5430773D01*
X1795779Y5430773D01*
X1788921Y5433060D01*
X1786636Y5435345D01*
X1784350Y5439918D01*
X1249171Y5965952D02*
G01*
X1241805Y5962142D01*
X1234694Y5955029D01*
X1230884Y5947663D01*
X1227328Y5936742D01*
X1227328Y5918707D01*
X1230884Y5907786D01*
X1234694Y5900420D01*
X1241805Y5893054D01*
X1249171Y5889497D01*
X1263650Y5889497D01*
X1271015Y5893054D01*
X1278128Y5900420D01*
X1281937Y5907786D01*
X1285494Y5918707D01*
X1285494Y5936742D01*
X1281937Y5947663D01*
X1278128Y5955029D01*
X1271015Y5962142D01*
X1263650Y5965952D01*
X1249171Y5965952D01*
X1309623Y5965952D02*
G01*
X1309623Y5889497D01*
X1309623Y5965952D02*
G01*
X1360423Y5889497D01*
X1360423Y5965952D02*
G01*
X1360423Y5889497D01*
X2053843Y5476494D02*
G01*
X2030729Y5444744D01*
X2065274Y5444744D01*
X2053843Y5476494D02*
G01*
X2053843Y5428742D01*
D11*
X3605784Y5103113D02*
G01*
X3605784Y5160263D01*
X3647440Y5129021D01*
X3647440Y5144770D01*
X3652520Y5154929D01*
X3657600Y5160263D01*
X3673347Y5165344D01*
X3683761Y5165344D01*
X3699256Y5160263D01*
X3709670Y5149850D01*
X3714750Y5134355D01*
X3714750Y5118607D01*
X3709670Y5103113D01*
X3704590Y5097779D01*
X3694175Y5092700D01*
X3605784Y5199634D02*
G01*
X3714750Y5241289D01*
X3605784Y5282945D02*
G01*
X3714750Y5241289D01*
X3605784Y5327650D02*
G01*
X3605784Y5384800D01*
X3647440Y5353557D01*
X3647440Y5369052D01*
X3652520Y5379465D01*
X3657600Y5384800D01*
X3673347Y5389879D01*
X3683761Y5389879D01*
X3699256Y5384800D01*
X3709670Y5374386D01*
X3714750Y5358637D01*
X3714750Y5343144D01*
X3709670Y5327650D01*
X3704590Y5322315D01*
X3694175Y5317236D01*
X3263391Y5196078D02*
G01*
X3252977Y5190744D01*
X3242563Y5180329D01*
X3237484Y5170170D01*
X3237484Y5149342D01*
X3242563Y5138928D01*
X3252977Y5128513D01*
X3263391Y5123179D01*
X3279140Y5118100D01*
X3305047Y5118100D01*
X3320541Y5123179D01*
X3330956Y5128513D01*
X3341370Y5138928D01*
X3346450Y5149342D01*
X3346450Y5170170D01*
X3341370Y5180329D01*
X3330956Y5190744D01*
X3320541Y5196078D01*
X3305047Y5196078D01*
X3305047Y5170170D02*
G01*
X3305047Y5196078D01*
X3237484Y5230368D02*
G01*
X3346450Y5230368D01*
X3237484Y5230368D02*
G01*
X3346450Y5303012D01*
X3237484Y5303012D02*
G01*
X3346450Y5303012D01*
X3237484Y5337302D02*
G01*
X3346450Y5337302D01*
X3237484Y5337302D02*
G01*
X3237484Y5373623D01*
X3242563Y5389371D01*
X3252977Y5399786D01*
X3263391Y5404865D01*
X3279140Y5410200D01*
X3305047Y5410200D01*
X3320541Y5404865D01*
X3330956Y5399786D01*
X3341370Y5389371D01*
X3346450Y5373623D01*
X3346450Y5337302D01*
X8621847Y6710306D02*
G01*
X8611433Y6720720D01*
X8595939Y6725800D01*
X8575111Y6725800D01*
X8559617Y6720720D01*
X8549203Y6710306D01*
X8549203Y6699892D01*
X8554283Y6689478D01*
X8559617Y6684144D01*
X8570031Y6679064D01*
X8601273Y6668650D01*
X8611433Y6663570D01*
X8616767Y6658236D01*
X8621847Y6647822D01*
X8621847Y6632328D01*
X8611433Y6621914D01*
X8595939Y6616834D01*
X8575111Y6616834D01*
X8559617Y6621914D01*
X8549203Y6632328D01*
X8656137Y6704972D02*
G01*
X8666551Y6710306D01*
X8682299Y6725800D01*
X8682299Y6616834D01*
D10*
X8689225Y6232761D02*
G01*
X8679827Y6228189D01*
X8670683Y6218791D01*
X8666111Y6209647D01*
X8661285Y6195677D01*
X8661285Y6172563D01*
X8666111Y6158847D01*
X8670683Y6149703D01*
X8679827Y6140305D01*
X8689225Y6135733D01*
X8707513Y6135733D01*
X8716911Y6140305D01*
X8726055Y6149703D01*
X8730627Y6158847D01*
X8735199Y6172563D01*
X8735199Y6195677D01*
X8730627Y6209647D01*
X8726055Y6218791D01*
X8716911Y6228189D01*
X8707513Y6232761D01*
X8689225Y6232761D01*
X8835021Y6209647D02*
G01*
X8830449Y6218791D01*
X8821305Y6228189D01*
X8811907Y6232761D01*
X8793365Y6232761D01*
X8784221Y6228189D01*
X8775077Y6218791D01*
X8770505Y6209647D01*
X8765679Y6195677D01*
X8765679Y6172563D01*
X8770505Y6158847D01*
X8775077Y6149703D01*
X8784221Y6140305D01*
X8793365Y6135733D01*
X8811907Y6135733D01*
X8821305Y6140305D01*
X8830449Y6149703D01*
X8835021Y6158847D01*
X8930271Y6218791D02*
G01*
X8920873Y6228189D01*
X8907157Y6232761D01*
X8888615Y6232761D01*
X8874645Y6228189D01*
X8865501Y6218791D01*
X8865501Y6209647D01*
X8870073Y6200503D01*
X8874645Y6195677D01*
X8884043Y6191105D01*
X8911729Y6181961D01*
X8920873Y6177389D01*
X8925445Y6172563D01*
X8930271Y6163419D01*
X8930271Y6149703D01*
X8920873Y6140305D01*
X8907157Y6135733D01*
X8888615Y6135733D01*
X8874645Y6140305D01*
X8865501Y6149703D01*
X8686860Y5978705D02*
G01*
X8686860Y5881677D01*
X8717340Y5978705D02*
G01*
X8717340Y5881677D01*
X8717340Y5978705D02*
G01*
X8781856Y5881677D01*
X8781856Y5978705D02*
G01*
X8781856Y5881677D01*
X8844848Y5978705D02*
G01*
X8844848Y5881677D01*
X8812336Y5978705D02*
G01*
X8877106Y5978705D01*
X8907586Y5960163D02*
G01*
X8916730Y5964735D01*
X8930700Y5978705D01*
X8930700Y5881677D01*
X8661466Y5724710D02*
G01*
X8661466Y5627682D01*
X8691946Y5724710D02*
G01*
X8691946Y5627682D01*
X8691946Y5724710D02*
G01*
X8756462Y5627682D01*
X8756462Y5724710D02*
G01*
X8756462Y5627682D01*
X8819454Y5724710D02*
G01*
X8819454Y5627682D01*
X8786942Y5724710D02*
G01*
X8851712Y5724710D01*
X8886764Y5701596D02*
G01*
X8886764Y5706168D01*
X8891336Y5715566D01*
X8895908Y5720138D01*
X8905306Y5724710D01*
X8923594Y5724710D01*
X8932992Y5720138D01*
X8937564Y5715566D01*
X8942136Y5706168D01*
X8942136Y5697024D01*
X8937564Y5687880D01*
X8928420Y5673910D01*
X8882192Y5627682D01*
X8946708Y5627682D01*
X8751379Y5456740D02*
G01*
X8742235Y5466138D01*
X8728265Y5470710D01*
X8709977Y5470710D01*
X8696007Y5466138D01*
X8686863Y5456740D01*
X8686863Y5447596D01*
X8691435Y5438452D01*
X8696007Y5433880D01*
X8705151Y5429054D01*
X8733091Y5419910D01*
X8742235Y5415338D01*
X8746807Y5410766D01*
X8751379Y5401368D01*
X8751379Y5387652D01*
X8742235Y5378254D01*
X8728265Y5373682D01*
X8709977Y5373682D01*
X8696007Y5378254D01*
X8686863Y5387652D01*
X8851201Y5447596D02*
G01*
X8846629Y5456740D01*
X8837231Y5466138D01*
X8828087Y5470710D01*
X8809545Y5470710D01*
X8800401Y5466138D01*
X8791257Y5456740D01*
X8786431Y5447596D01*
X8781859Y5433880D01*
X8781859Y5410766D01*
X8786431Y5396796D01*
X8791257Y5387652D01*
X8800401Y5378254D01*
X8809545Y5373682D01*
X8828087Y5373682D01*
X8837231Y5378254D01*
X8846629Y5387652D01*
X8851201Y5396796D01*
X8881681Y5470710D02*
G01*
X8946451Y5373682D01*
X8946451Y5470710D02*
G01*
X8881681Y5373682D01*
X8751376Y5202737D02*
G01*
X8742232Y5212135D01*
X8728262Y5216707D01*
X8709974Y5216707D01*
X8696004Y5212135D01*
X8686860Y5202737D01*
X8686860Y5193593D01*
X8691432Y5184449D01*
X8696004Y5179877D01*
X8705148Y5175051D01*
X8733088Y5165907D01*
X8742232Y5161335D01*
X8746804Y5156763D01*
X8751376Y5147365D01*
X8751376Y5133649D01*
X8742232Y5124251D01*
X8728262Y5119679D01*
X8709974Y5119679D01*
X8696004Y5124251D01*
X8686860Y5133649D01*
X8781856Y5216707D02*
G01*
X8781856Y5119679D01*
X8781856Y5216707D02*
G01*
X8814368Y5216707D01*
X8828084Y5212135D01*
X8837228Y5202737D01*
X8842054Y5193593D01*
X8846626Y5179877D01*
X8846626Y5156763D01*
X8842054Y5142793D01*
X8837228Y5133649D01*
X8828084Y5124251D01*
X8814368Y5119679D01*
X8781856Y5119679D01*
X8877106Y5216707D02*
G01*
X8941622Y5119679D01*
X8941622Y5216707D02*
G01*
X8877106Y5119679D01*
X8178756Y6486801D02*
G01*
X8215840Y6389773D01*
X8252670Y6486801D02*
G01*
X8215840Y6389773D01*
X8283150Y6486801D02*
G01*
X8283150Y6389773D01*
X8313630Y6486801D02*
G01*
X8313630Y6389773D01*
X8313630Y6486801D02*
G01*
X8378400Y6389773D01*
X8378400Y6486801D02*
G01*
X8378400Y6389773D01*
X8188004Y6232702D02*
G01*
X8238804Y6232702D01*
X8211118Y6195872D01*
X8225088Y6195872D01*
X8234232Y6191046D01*
X8238804Y6186474D01*
X8243376Y6172758D01*
X8243376Y6163360D01*
X8238804Y6149644D01*
X8229660Y6140246D01*
X8215690Y6135674D01*
X8201974Y6135674D01*
X8188004Y6140246D01*
X8183432Y6145072D01*
X8178860Y6154216D01*
X8273856Y6232702D02*
G01*
X8310940Y6135674D01*
X8347770Y6232702D02*
G01*
X8310940Y6135674D01*
X8387648Y6232702D02*
G01*
X8438448Y6232702D01*
X8410508Y6195872D01*
X8424478Y6195872D01*
X8433622Y6191046D01*
X8438448Y6186474D01*
X8443020Y6172758D01*
X8443020Y6163360D01*
X8438448Y6149644D01*
X8429050Y6140246D01*
X8415334Y6135674D01*
X8401364Y6135674D01*
X8387648Y6140246D01*
X8382822Y6145072D01*
X8378250Y6154216D01*
X8247946Y5955588D02*
G01*
X8243374Y5964732D01*
X8234230Y5974130D01*
X8225086Y5978702D01*
X8206544Y5978702D01*
X8197146Y5974130D01*
X8188002Y5964732D01*
X8183430Y5955588D01*
X8178858Y5941872D01*
X8178858Y5918758D01*
X8183430Y5904788D01*
X8188002Y5895644D01*
X8197146Y5886246D01*
X8206544Y5881674D01*
X8225086Y5881674D01*
X8234230Y5886246D01*
X8243374Y5895644D01*
X8247946Y5904788D01*
X8247946Y5918758D01*
X8225086Y5918758D02*
G01*
X8247946Y5918758D01*
X8278426Y5978702D02*
G01*
X8278426Y5881674D01*
X8278426Y5978702D02*
G01*
X8343196Y5881674D01*
X8343196Y5978702D02*
G01*
X8343196Y5881674D01*
X8373676Y5978702D02*
G01*
X8373676Y5881674D01*
X8373676Y5978702D02*
G01*
X8405934Y5978702D01*
X8419904Y5974130D01*
X8429048Y5964732D01*
X8433620Y5955588D01*
X8438446Y5941872D01*
X8438446Y5918758D01*
X8433620Y5904788D01*
X8429048Y5895644D01*
X8419904Y5886246D01*
X8405934Y5881674D01*
X8373676Y5881674D01*
X8243455Y5456786D02*
G01*
X8234311Y5466184D01*
X8220341Y5470756D01*
X8201799Y5470756D01*
X8188083Y5466184D01*
X8178685Y5456786D01*
X8178685Y5447642D01*
X8183511Y5438498D01*
X8188083Y5433672D01*
X8197227Y5429100D01*
X8224913Y5419956D01*
X8234311Y5415384D01*
X8238883Y5410558D01*
X8243455Y5401414D01*
X8243455Y5387698D01*
X8234311Y5378300D01*
X8220341Y5373728D01*
X8201799Y5373728D01*
X8188083Y5378300D01*
X8178685Y5387698D01*
X8273935Y5470756D02*
G01*
X8273935Y5373728D01*
X8273935Y5470756D02*
G01*
X8306193Y5470756D01*
X8320163Y5466184D01*
X8329307Y5456786D01*
X8333879Y5447642D01*
X8338705Y5433672D01*
X8338705Y5410558D01*
X8333879Y5396842D01*
X8329307Y5387698D01*
X8320163Y5378300D01*
X8306193Y5373728D01*
X8273935Y5373728D01*
X8406015Y5470756D02*
G01*
X8369185Y5373728D01*
X8406015Y5470756D02*
G01*
X8442845Y5373728D01*
X8382901Y5405986D02*
G01*
X8429129Y5405986D01*
X8273422Y5193642D02*
G01*
X8268850Y5202786D01*
X8259706Y5212184D01*
X8250308Y5216756D01*
X8232020Y5216756D01*
X8222622Y5212184D01*
X8213478Y5202786D01*
X8208906Y5193642D01*
X8204080Y5179672D01*
X8204080Y5156558D01*
X8208906Y5142842D01*
X8213478Y5133698D01*
X8222622Y5124300D01*
X8232020Y5119728D01*
X8250308Y5119728D01*
X8259706Y5124300D01*
X8268850Y5133698D01*
X8273422Y5142842D01*
X8368672Y5202786D02*
G01*
X8359274Y5212184D01*
X8345558Y5216756D01*
X8327016Y5216756D01*
X8313300Y5212184D01*
X8303902Y5202786D01*
X8303902Y5193642D01*
X8308474Y5184498D01*
X8313300Y5179672D01*
X8322444Y5175100D01*
X8350130Y5165956D01*
X8359274Y5161384D01*
X8364100Y5156558D01*
X8368672Y5147414D01*
X8368672Y5133698D01*
X8359274Y5124300D01*
X8345558Y5119728D01*
X8327016Y5119728D01*
X8313300Y5124300D01*
X8303902Y5133698D01*
X8243384Y4948737D02*
G01*
X8234240Y4958135D01*
X8220270Y4962707D01*
X8201982Y4962707D01*
X8188012Y4958135D01*
X8178868Y4948737D01*
X8178868Y4939593D01*
X8183440Y4930449D01*
X8188012Y4925877D01*
X8197156Y4921051D01*
X8225096Y4911907D01*
X8234240Y4907335D01*
X8238812Y4902763D01*
X8243384Y4893365D01*
X8243384Y4879649D01*
X8234240Y4870251D01*
X8220270Y4865679D01*
X8201982Y4865679D01*
X8188012Y4870251D01*
X8178868Y4879649D01*
X8310948Y4962707D02*
G01*
X8273864Y4865679D01*
X8310948Y4962707D02*
G01*
X8347778Y4865679D01*
X8287834Y4897937D02*
G01*
X8334062Y4897937D01*
X8405944Y4962707D02*
G01*
X8392228Y4958135D01*
X8382830Y4944165D01*
X8378258Y4921051D01*
X8378258Y4907335D01*
X8382830Y4884221D01*
X8392228Y4870251D01*
X8405944Y4865679D01*
X8415342Y4865679D01*
X8429058Y4870251D01*
X8438456Y4884221D01*
X8443028Y4907335D01*
X8443028Y4921051D01*
X8438456Y4944165D01*
X8429058Y4958135D01*
X8415342Y4962707D01*
X8405944Y4962707D01*
X8243394Y5710730D02*
G01*
X8234250Y5720128D01*
X8220280Y5724700D01*
X8201992Y5724700D01*
X8188022Y5720128D01*
X8178878Y5710730D01*
X8178878Y5701586D01*
X8183450Y5692442D01*
X8188022Y5687870D01*
X8197166Y5683044D01*
X8225106Y5673900D01*
X8234250Y5669328D01*
X8238822Y5664756D01*
X8243394Y5655358D01*
X8243394Y5641642D01*
X8234250Y5632244D01*
X8220280Y5627672D01*
X8201992Y5627672D01*
X8188022Y5632244D01*
X8178878Y5641642D01*
X8343216Y5701586D02*
G01*
X8338644Y5710730D01*
X8329246Y5720128D01*
X8320102Y5724700D01*
X8301560Y5724700D01*
X8292416Y5720128D01*
X8283272Y5710730D01*
X8278446Y5701586D01*
X8273874Y5687870D01*
X8273874Y5664756D01*
X8278446Y5650786D01*
X8283272Y5641642D01*
X8292416Y5632244D01*
X8301560Y5627672D01*
X8320102Y5627672D01*
X8329246Y5632244D01*
X8338644Y5641642D01*
X8343216Y5650786D01*
X8373696Y5724700D02*
G01*
X8373696Y5627672D01*
X8373696Y5627672D02*
G01*
X8429068Y5627672D01*
X8527478Y5365259D02*
G01*
X8518243Y5360642D01*
X8509005Y5351404D01*
X8504387Y5342168D01*
X8504387Y5323695D01*
X8509005Y5314459D01*
X8518243Y5305221D01*
X8527478Y5300604D01*
X8541334Y5295986D01*
X8564425Y5295986D01*
X8578278Y5300604D01*
X8587513Y5305221D01*
X8596751Y5314459D01*
X8601369Y5323695D01*
X8601369Y5342168D01*
X8596751Y5351404D01*
X8587513Y5360642D01*
X8578278Y5365259D01*
X8564425Y5365259D01*
X8564425Y5342168D02*
G01*
X8564425Y5365259D01*
X8504387Y5395739D02*
G01*
X8550569Y5432684D01*
X8601369Y5432684D01*
X8504387Y5469630D02*
G01*
X8550569Y5432684D01*
X8559805Y5500110D02*
G01*
X8559805Y5583237D01*
X8504387Y5613717D02*
G01*
X8601369Y5613717D01*
X8504387Y5613717D02*
G01*
X8504387Y5655282D01*
X8509005Y5669135D01*
X8513625Y5673752D01*
X8522860Y5678370D01*
X8532096Y5678370D01*
X8541334Y5673752D01*
X8545951Y5669135D01*
X8550569Y5655282D01*
X8550569Y5613717D02*
G01*
X8550569Y5655282D01*
X8555187Y5669135D01*
X8559805Y5673752D01*
X8569043Y5678370D01*
X8582896Y5678370D01*
X8592134Y5673752D01*
X8596751Y5669135D01*
X8601369Y5655282D01*
X8601369Y5613717D01*
X8504387Y5708850D02*
G01*
X8601369Y5708850D01*
X8504387Y5708850D02*
G01*
X8601369Y5745797D01*
X8504387Y5782741D02*
G01*
X8601369Y5745797D01*
X8504387Y5782741D02*
G01*
X8601369Y5782741D01*
X8504387Y5813221D02*
G01*
X8601369Y5813221D01*
X8522860Y5843701D02*
G01*
X8518243Y5852939D01*
X8504387Y5866792D01*
X8601369Y5866792D01*
X8518243Y5952690D02*
G01*
X8509005Y5948072D01*
X8504387Y5934219D01*
X8504387Y5924981D01*
X8509005Y5911128D01*
X8522860Y5901890D01*
X8545951Y5897272D01*
X8569043Y5897272D01*
X8587513Y5901890D01*
X8596751Y5911128D01*
X8601369Y5924981D01*
X8601369Y5929602D01*
X8596751Y5943455D01*
X8587513Y5952690D01*
X8573660Y5957310D01*
X8569043Y5957310D01*
X8555187Y5952690D01*
X8545951Y5943455D01*
X8541334Y5929602D01*
X8541334Y5924981D01*
X8545951Y5911128D01*
X8555187Y5901890D01*
X8569043Y5897272D01*
X8504387Y6015499D02*
G01*
X8509005Y6001644D01*
X8522860Y5992408D01*
X8545951Y5987790D01*
X8559805Y5987790D01*
X8582896Y5992408D01*
X8596751Y6001644D01*
X8601369Y6015499D01*
X8601369Y6024735D01*
X8596751Y6038590D01*
X8582896Y6047826D01*
X8559805Y6052444D01*
X8545951Y6052444D01*
X8522860Y6047826D01*
X8509005Y6038590D01*
X8504387Y6024735D01*
X8504387Y6015499D01*
D11*
X2846577Y5203444D02*
G01*
X2836163Y5193029D01*
X2831084Y5177536D01*
X2831084Y5156707D01*
X2836163Y5141213D01*
X2846577Y5130800D01*
X2856991Y5130800D01*
X2867406Y5135879D01*
X2872740Y5141213D01*
X2877820Y5151628D01*
X2888234Y5182870D01*
X2893313Y5193029D01*
X2898647Y5198363D01*
X2909061Y5203444D01*
X2924556Y5203444D01*
X2934970Y5193029D01*
X2940050Y5177536D01*
X2940050Y5156707D01*
X2934970Y5141213D01*
X2924556Y5130800D01*
X2856991Y5315712D02*
G01*
X2846577Y5310631D01*
X2836163Y5300218D01*
X2831084Y5289804D01*
X2831084Y5268976D01*
X2836163Y5258562D01*
X2846577Y5248147D01*
X2856991Y5243068D01*
X2872740Y5237734D01*
X2898647Y5237734D01*
X2914141Y5243068D01*
X2924556Y5248147D01*
X2934970Y5258562D01*
X2940050Y5268976D01*
X2940050Y5289804D01*
X2934970Y5300218D01*
X2924556Y5310631D01*
X2914141Y5315712D01*
X2831084Y5350002D02*
G01*
X2940050Y5350002D01*
X2940050Y5350002D02*
G01*
X2940050Y5412486D01*
X2465577Y5178044D02*
G01*
X2455163Y5167629D01*
X2450084Y5152136D01*
X2450084Y5131307D01*
X2455163Y5115813D01*
X2465577Y5105400D01*
X2475991Y5105400D01*
X2486406Y5110479D01*
X2491740Y5115813D01*
X2496820Y5126228D01*
X2507234Y5157470D01*
X2512313Y5167629D01*
X2517647Y5172963D01*
X2528061Y5178044D01*
X2543556Y5178044D01*
X2553970Y5167629D01*
X2559050Y5152136D01*
X2559050Y5131307D01*
X2553970Y5115813D01*
X2543556Y5105400D01*
X2450084Y5212334D02*
G01*
X2559050Y5212334D01*
X2450084Y5212334D02*
G01*
X2450084Y5248910D01*
X2455163Y5264404D01*
X2465577Y5274818D01*
X2475991Y5279897D01*
X2491740Y5285231D01*
X2517647Y5285231D01*
X2533141Y5279897D01*
X2543556Y5274818D01*
X2553970Y5264404D01*
X2559050Y5248910D01*
X2559050Y5212334D01*
X2450084Y5360923D02*
G01*
X2559050Y5319521D01*
X2450084Y5360923D02*
G01*
X2559050Y5402579D01*
X2522727Y5335015D02*
G01*
X2522727Y5387086D01*
X4405884Y3568700D02*
G01*
X4483861Y3568700D01*
X4499356Y3573779D01*
X4509770Y3584194D01*
X4514850Y3599942D01*
X4514850Y3610355D01*
X4509770Y3625850D01*
X4499356Y3636263D01*
X4483861Y3641344D01*
X4405884Y3641344D01*
X4431791Y3680968D02*
G01*
X4426711Y3680968D01*
X4416297Y3686047D01*
X4410963Y3691381D01*
X4405884Y3701795D01*
X4405884Y3722370D01*
X4410963Y3732784D01*
X4416297Y3738118D01*
X4426711Y3743197D01*
X4437125Y3743197D01*
X4447540Y3738118D01*
X4463034Y3727704D01*
X4514850Y3675634D01*
X4514850Y3748531D01*
D10*
X5249672Y2694178D02*
G01*
X5231129Y2685034D01*
X5212841Y2666492D01*
X5203443Y2647950D01*
X5194300Y2620263D01*
X5194300Y2574289D01*
X5203443Y2546350D01*
X5212841Y2528062D01*
X5231129Y2509520D01*
X5249672Y2500376D01*
X5286756Y2500376D01*
X5305043Y2509520D01*
X5323586Y2528062D01*
X5332729Y2546350D01*
X5342127Y2574289D01*
X5342127Y2620263D01*
X5332729Y2647950D01*
X5323586Y2666492D01*
X5305043Y2685034D01*
X5286756Y2694178D01*
X5249672Y2694178D01*
X5403088Y2694178D02*
G01*
X5403088Y2500376D01*
X5403088Y2500376D02*
G01*
X5513831Y2500376D01*
X5574791Y2694178D02*
G01*
X5574791Y2500376D01*
X5574791Y2694178D02*
G01*
X5694934Y2694178D01*
X5574791Y2601976D02*
G01*
X5648706Y2601976D01*
X5574791Y2500376D02*
G01*
X5694934Y2500376D01*
X5755893Y2694178D02*
G01*
X5755893Y2500376D01*
X5755893Y2694178D02*
G01*
X5820409Y2694178D01*
X5848350Y2685034D01*
X5866638Y2666492D01*
X5876036Y2647950D01*
X5885179Y2620263D01*
X5885179Y2574289D01*
X5876036Y2546350D01*
X5866638Y2528062D01*
X5848350Y2509520D01*
X5820409Y2500376D01*
X5755893Y2500376D01*
X5332729Y5632450D02*
G01*
X5323586Y5650992D01*
X5305043Y5669534D01*
X5286756Y5678678D01*
X5249672Y5678678D01*
X5231129Y5669534D01*
X5212841Y5650992D01*
X5203443Y5632450D01*
X5194300Y5604763D01*
X5194300Y5558789D01*
X5203443Y5530850D01*
X5212841Y5512562D01*
X5231129Y5494020D01*
X5249672Y5484876D01*
X5286756Y5484876D01*
X5305043Y5494020D01*
X5323586Y5512562D01*
X5332729Y5530850D01*
X5332729Y5558789D01*
X5286756Y5558789D02*
G01*
X5332729Y5558789D01*
X5393690Y5678678D02*
G01*
X5393690Y5484876D01*
X5393690Y5678678D02*
G01*
X5523229Y5484876D01*
X5523229Y5678678D02*
G01*
X5523229Y5484876D01*
X5713475Y5650992D02*
G01*
X5694934Y5669534D01*
X5667247Y5678678D01*
X5630163Y5678678D01*
X5602477Y5669534D01*
X5584190Y5650992D01*
X5584190Y5632450D01*
X5593334Y5614162D01*
X5602477Y5604763D01*
X5621020Y5595620D01*
X5676391Y5577078D01*
X5694934Y5567934D01*
X5704077Y5558789D01*
X5713475Y5540247D01*
X5713475Y5512562D01*
X5694934Y5494020D01*
X5667247Y5484876D01*
X5630163Y5484876D01*
X5602477Y5494020D01*
X5584190Y5512562D01*
X5903722Y5650992D02*
G01*
X5885179Y5669534D01*
X5857493Y5678678D01*
X5820409Y5678678D01*
X5792724Y5669534D01*
X5774436Y5650992D01*
X5774436Y5632450D01*
X5783579Y5614162D01*
X5792724Y5604763D01*
X5811265Y5595620D01*
X5866638Y5577078D01*
X5885179Y5567934D01*
X5894324Y5558789D01*
X5903722Y5540247D01*
X5903722Y5512562D01*
X5885179Y5494020D01*
X5857493Y5484876D01*
X5820409Y5484876D01*
X5792724Y5494020D01*
X5774436Y5512562D01*
D11*
X5981700Y3036315D02*
G01*
X5981700Y2927350D01*
X6054343Y3036315D02*
G01*
X5981700Y2963671D01*
X6007608Y2989579D02*
G01*
X6054343Y2927350D01*
X6088634Y3036315D02*
G01*
X6088634Y2927350D01*
X6088634Y3036315D02*
G01*
X6156197Y3036315D01*
X6088634Y2984500D02*
G01*
X6130290Y2984500D01*
X6088634Y2927350D02*
G01*
X6156197Y2927350D01*
X6190488Y3036315D02*
G01*
X6232143Y2984500D01*
X6232143Y2927350D01*
X6273800Y3036315D02*
G01*
X6232143Y2984500D01*
X6354825Y3020821D02*
G01*
X6354825Y2927350D01*
X6308090Y2974086D02*
G01*
X6401561Y2974086D01*
X4699000Y2198115D02*
G01*
X4699000Y2089150D01*
X4699000Y2198115D02*
G01*
X4745736Y2198115D01*
X4761229Y2193036D01*
X4766563Y2187702D01*
X4771643Y2177287D01*
X4771643Y2161794D01*
X4766563Y2151379D01*
X4761229Y2146300D01*
X4745736Y2140965D01*
X4699000Y2140965D01*
X4805934Y2198115D02*
G01*
X4832095Y2089150D01*
X4858004Y2198115D02*
G01*
X4832095Y2089150D01*
X4858004Y2198115D02*
G01*
X4883911Y2089150D01*
X4909820Y2198115D02*
G01*
X4883911Y2089150D01*
X4944109Y2198115D02*
G01*
X4944109Y2089150D01*
X4944109Y2198115D02*
G01*
X4991100Y2198115D01*
X5006593Y2193036D01*
X5011674Y2187702D01*
X5017008Y2177287D01*
X5017008Y2166873D01*
X5011674Y2156460D01*
X5006593Y2151379D01*
X4991100Y2146300D01*
X4944109Y2146300D01*
X4980686Y2146300D02*
G01*
X5017008Y2089150D01*
X5098034Y2182621D02*
G01*
X5098034Y2089150D01*
X5051297Y2135886D02*
G01*
X5144770Y2135886D01*
X5219700Y5258815D02*
G01*
X5219700Y5149850D01*
X5219700Y5258815D02*
G01*
X5261356Y5149850D01*
X5302758Y5258815D02*
G01*
X5261356Y5149850D01*
X5302758Y5258815D02*
G01*
X5302758Y5149850D01*
X5337047Y5258815D02*
G01*
X5337047Y5149850D01*
X5449315Y5232907D02*
G01*
X5444236Y5243321D01*
X5433822Y5253736D01*
X5423408Y5258815D01*
X5402579Y5258815D01*
X5392165Y5253736D01*
X5381752Y5243321D01*
X5376672Y5232907D01*
X5371338Y5217160D01*
X5371338Y5191252D01*
X5376672Y5175757D01*
X5381752Y5165344D01*
X5392165Y5154929D01*
X5402579Y5149850D01*
X5423408Y5149850D01*
X5433822Y5154929D01*
X5444236Y5165344D01*
X5449315Y5175757D01*
X5483606Y5258815D02*
G01*
X5483606Y5149850D01*
X5483606Y5258815D02*
G01*
X5530341Y5258815D01*
X5546090Y5253736D01*
X5551170Y5248402D01*
X5556250Y5237987D01*
X5556250Y5227573D01*
X5551170Y5217160D01*
X5546090Y5212079D01*
X5530341Y5207000D01*
X5483606Y5207000D01*
X5519927Y5207000D02*
G01*
X5556250Y5149850D01*
X5621781Y5258815D02*
G01*
X5611368Y5253736D01*
X5600954Y5243321D01*
X5595874Y5232907D01*
X5590540Y5217160D01*
X5590540Y5191252D01*
X5595874Y5175757D01*
X5600954Y5165344D01*
X5611368Y5154929D01*
X5621781Y5149850D01*
X5642609Y5149850D01*
X5653024Y5154929D01*
X5663438Y5165344D01*
X5668518Y5175757D01*
X5673852Y5191252D01*
X5673852Y5217160D01*
X5668518Y5232907D01*
X5663438Y5243321D01*
X5653024Y5253736D01*
X5642609Y5258815D01*
X5621781Y5258815D01*
X5780786Y5243321D02*
G01*
X5770372Y5253736D01*
X5754877Y5258815D01*
X5734050Y5258815D01*
X5718556Y5253736D01*
X5708141Y5243321D01*
X5708141Y5232907D01*
X5713222Y5222494D01*
X5718556Y5217160D01*
X5728970Y5212079D01*
X5759958Y5201665D01*
X5770372Y5196586D01*
X5775706Y5191252D01*
X5780786Y5180837D01*
X5780786Y5165344D01*
X5770372Y5154929D01*
X5754877Y5149850D01*
X5734050Y5149850D01*
X5718556Y5154929D01*
X5708141Y5165344D01*
X5815075Y5258815D02*
G01*
X5815075Y5149850D01*
X5815075Y5258815D02*
G01*
X5851397Y5258815D01*
X5867145Y5253736D01*
X5877559Y5243321D01*
X5882640Y5232907D01*
X5887720Y5217160D01*
X5887720Y5191252D01*
X5882640Y5175757D01*
X5877559Y5165344D01*
X5867145Y5154929D01*
X5851397Y5149850D01*
X5815075Y5149850D01*
X6182613Y4577842D02*
G01*
X6173215Y4573270D01*
X6164072Y4563871D01*
X6159500Y4554728D01*
X6159500Y4536186D01*
X6164072Y4527042D01*
X6173215Y4517644D01*
X6182613Y4513071D01*
X6196329Y4508500D01*
X6219443Y4508500D01*
X6233413Y4513071D01*
X6242558Y4517644D01*
X6251702Y4527042D01*
X6256527Y4536186D01*
X6256527Y4554728D01*
X6251702Y4563871D01*
X6242558Y4573270D01*
X6233413Y4577842D01*
X6219443Y4577842D01*
X6219443Y4554728D02*
G01*
X6219443Y4577842D01*
X6159500Y4608321D02*
G01*
X6256527Y4608321D01*
X6159500Y4608321D02*
G01*
X6256527Y4672837D01*
X6159500Y4672837D02*
G01*
X6256527Y4672837D01*
X6159500Y4703318D02*
G01*
X6256527Y4703318D01*
X6159500Y4703318D02*
G01*
X6159500Y4735829D01*
X6164072Y4749545D01*
X6173215Y4758689D01*
X6182613Y4763515D01*
X6196329Y4768087D01*
X6219443Y4768087D01*
X6233413Y4763515D01*
X6242558Y4758689D01*
X6251702Y4749545D01*
X6256527Y4735829D01*
X6256527Y4703318D01*
X5905500Y4508500D02*
G01*
X6002527Y4508500D01*
X5905500Y4508500D02*
G01*
X6002527Y4545329D01*
X5905500Y4582413D02*
G01*
X6002527Y4545329D01*
X5905500Y4582413D02*
G01*
X6002527Y4582413D01*
X5905500Y4612894D02*
G01*
X6002527Y4612894D01*
X5919215Y4707889D02*
G01*
X5910072Y4698745D01*
X5905500Y4685029D01*
X5905500Y4666487D01*
X5910072Y4652518D01*
X5919215Y4643373D01*
X5928613Y4643373D01*
X5937758Y4647945D01*
X5942329Y4652518D01*
X5946902Y4661915D01*
X5956300Y4689602D01*
X5960872Y4698745D01*
X5965443Y4703318D01*
X5974841Y4707889D01*
X5988558Y4707889D01*
X5997702Y4698745D01*
X6002527Y4685029D01*
X6002527Y4666487D01*
X5997702Y4652518D01*
X5988558Y4643373D01*
X5905500Y4766310D02*
G01*
X5910072Y4756912D01*
X5919215Y4747768D01*
X5928613Y4743195D01*
X5942329Y4738370D01*
X5965443Y4738370D01*
X5979413Y4743195D01*
X5988558Y4747768D01*
X5997702Y4756912D01*
X6002527Y4766310D01*
X6002527Y4784597D01*
X5997702Y4793995D01*
X5988558Y4803139D01*
X5979413Y4807712D01*
X5965443Y4812284D01*
X5942329Y4812284D01*
X5928613Y4807712D01*
X5919215Y4803139D01*
X5910072Y4793995D01*
X5905500Y4784597D01*
X5905500Y4766310D01*
X5674613Y4577842D02*
G01*
X5665215Y4573270D01*
X5656072Y4563871D01*
X5651500Y4554728D01*
X5651500Y4536186D01*
X5656072Y4527042D01*
X5665215Y4517644D01*
X5674613Y4513071D01*
X5688329Y4508500D01*
X5711443Y4508500D01*
X5725413Y4513071D01*
X5734558Y4517644D01*
X5743702Y4527042D01*
X5748527Y4536186D01*
X5748527Y4554728D01*
X5743702Y4563871D01*
X5734558Y4573270D01*
X5725413Y4577842D01*
X5651500Y4608321D02*
G01*
X5748527Y4608321D01*
X5748527Y4608321D02*
G01*
X5748527Y4663694D01*
X5651500Y4694173D02*
G01*
X5748527Y4694173D01*
X5651500Y4758689D02*
G01*
X5716015Y4694173D01*
X5692902Y4717287D02*
G01*
X5748527Y4758689D01*
X5397497Y4508500D02*
G01*
X5494525Y4508500D01*
X5397497Y4508500D02*
G01*
X5494525Y4545329D01*
X5397497Y4582413D02*
G01*
X5494525Y4545329D01*
X5397497Y4582413D02*
G01*
X5494525Y4582413D01*
X5397497Y4640579D02*
G01*
X5402069Y4631436D01*
X5411213Y4622037D01*
X5420611Y4617465D01*
X5434327Y4612894D01*
X5457441Y4612894D01*
X5471411Y4617465D01*
X5480555Y4622037D01*
X5489699Y4631436D01*
X5494525Y4640579D01*
X5494525Y4659121D01*
X5489699Y4668265D01*
X5480555Y4677410D01*
X5471411Y4682236D01*
X5457441Y4686807D01*
X5434327Y4686807D01*
X5420611Y4682236D01*
X5411213Y4677410D01*
X5402069Y4668265D01*
X5397497Y4659121D01*
X5397497Y4640579D01*
X5411213Y4781804D02*
G01*
X5402069Y4772660D01*
X5397497Y4758689D01*
X5397497Y4740402D01*
X5402069Y4726431D01*
X5411213Y4717287D01*
X5420611Y4717287D01*
X5429755Y4721860D01*
X5434327Y4726431D01*
X5438899Y4735829D01*
X5448297Y4763515D01*
X5452869Y4772660D01*
X5457441Y4777231D01*
X5466839Y4781804D01*
X5480555Y4781804D01*
X5489699Y4772660D01*
X5494525Y4758689D01*
X5494525Y4740402D01*
X5489699Y4726431D01*
X5480555Y4717287D01*
X5397497Y4812284D02*
G01*
X5494525Y4812284D01*
X5166613Y4577842D02*
G01*
X5157215Y4573270D01*
X5148072Y4563871D01*
X5143500Y4554728D01*
X5143500Y4536186D01*
X5148072Y4527042D01*
X5157215Y4517644D01*
X5166613Y4513071D01*
X5180329Y4508500D01*
X5203443Y4508500D01*
X5217413Y4513071D01*
X5226558Y4517644D01*
X5235702Y4527042D01*
X5240527Y4536186D01*
X5240527Y4554728D01*
X5235702Y4563871D01*
X5226558Y4573270D01*
X5217413Y4577842D01*
X5157215Y4672837D02*
G01*
X5148072Y4663694D01*
X5143500Y4649723D01*
X5143500Y4631436D01*
X5148072Y4617465D01*
X5157215Y4608321D01*
X5166613Y4608321D01*
X5175758Y4612894D01*
X5180329Y4617465D01*
X5184902Y4626610D01*
X5194300Y4654550D01*
X5198872Y4663694D01*
X5203443Y4668265D01*
X5212841Y4672837D01*
X5226558Y4672837D01*
X5235702Y4663694D01*
X5240527Y4649723D01*
X5240527Y4631436D01*
X5235702Y4617465D01*
X5226558Y4608321D01*
X4889500Y4517644D02*
G01*
X4889500Y4568444D01*
X4926329Y4540757D01*
X4926329Y4554728D01*
X4930902Y4563871D01*
X4935727Y4568444D01*
X4949443Y4573270D01*
X4958841Y4573270D01*
X4972558Y4568444D01*
X4981702Y4559300D01*
X4986527Y4545329D01*
X4986527Y4531613D01*
X4981702Y4517644D01*
X4977129Y4513071D01*
X4967986Y4508500D01*
X4921758Y4603750D02*
G01*
X4986527Y4631436D01*
X4921758Y4659121D02*
G01*
X4986527Y4631436D01*
X4889500Y4698745D02*
G01*
X4889500Y4749545D01*
X4926329Y4721860D01*
X4926329Y4735829D01*
X4930902Y4744973D01*
X4935727Y4749545D01*
X4949443Y4754118D01*
X4958841Y4754118D01*
X4972558Y4749545D01*
X4981702Y4740402D01*
X4986527Y4726431D01*
X4986527Y4712715D01*
X4981702Y4698745D01*
X4977129Y4694173D01*
X4967986Y4689602D01*
X8255000Y2807715D02*
G01*
X8255000Y2698750D01*
X8255000Y2807715D02*
G01*
X8322563Y2807715D01*
X8255000Y2755900D02*
G01*
X8296656Y2755900D01*
X8356854Y2807715D02*
G01*
X8356854Y2698750D01*
X8356854Y2807715D02*
G01*
X8403590Y2807715D01*
X8419084Y2802636D01*
X8424418Y2797302D01*
X8429497Y2786887D01*
X8429497Y2771394D01*
X8424418Y2760979D01*
X8419084Y2755900D01*
X8403590Y2750565D01*
X8356854Y2750565D01*
X8526272Y2792221D02*
G01*
X8520938Y2802636D01*
X8505443Y2807715D01*
X8495029Y2807715D01*
X8479536Y2802636D01*
X8469122Y2786887D01*
X8463788Y2760979D01*
X8463788Y2735071D01*
X8469122Y2714244D01*
X8479536Y2703829D01*
X8495029Y2698750D01*
X8500109Y2698750D01*
X8515858Y2703829D01*
X8526272Y2714244D01*
X8531352Y2729737D01*
X8531352Y2735071D01*
X8526272Y2750565D01*
X8515858Y2760979D01*
X8500109Y2766060D01*
X8495029Y2766060D01*
X8479536Y2760979D01*
X8469122Y2750565D01*
X8463788Y2735071D01*
X8570975Y2781807D02*
G01*
X8570975Y2786887D01*
X8576056Y2797302D01*
X8581390Y2802636D01*
X8591550Y2807715D01*
X8612377Y2807715D01*
X8622791Y2802636D01*
X8628125Y2797302D01*
X8633206Y2786887D01*
X8633206Y2776473D01*
X8628125Y2766060D01*
X8617711Y2750565D01*
X8565641Y2698750D01*
X8638540Y2698750D01*
X8745474Y2807715D02*
G01*
X8693404Y2698750D01*
X8672829Y2807715D02*
G01*
X8745474Y2807715D01*
X8852408Y2807715D02*
G01*
X8800591Y2698750D01*
X8779763Y2807715D02*
G01*
X8852408Y2807715D01*
X7302500Y2096515D02*
G01*
X7344156Y1987550D01*
X7385558Y2096515D02*
G01*
X7344156Y1987550D01*
X7419847Y2096515D02*
G01*
X7419847Y1987550D01*
X7419847Y2096515D02*
G01*
X7487411Y2096515D01*
X7419847Y2044700D02*
G01*
X7461504Y2044700D01*
X7419847Y1987550D02*
G01*
X7487411Y1987550D01*
X7521702Y2096515D02*
G01*
X7594600Y1987550D01*
X7594600Y2096515D02*
G01*
X7521702Y1987550D01*
X7665211Y2096515D02*
G01*
X7665211Y1987550D01*
X7628890Y2096515D02*
G01*
X7701534Y2096515D01*
X2095500Y4852415D02*
G01*
X2095500Y4743450D01*
X2168143Y4852415D02*
G01*
X2168143Y4743450D01*
X2095500Y4800600D02*
G01*
X2168143Y4800600D01*
X2264918Y4836921D02*
G01*
X2259584Y4847336D01*
X2244090Y4852415D01*
X2233675Y4852415D01*
X2218181Y4847336D01*
X2207768Y4831587D01*
X2202434Y4805679D01*
X2202434Y4779771D01*
X2207768Y4758944D01*
X2218181Y4748529D01*
X2233675Y4743450D01*
X2239009Y4743450D01*
X2254504Y4748529D01*
X2264918Y4758944D01*
X2269997Y4774437D01*
X2269997Y4779771D01*
X2264918Y4795265D01*
X2254504Y4805679D01*
X2239009Y4810760D01*
X2233675Y4810760D01*
X2218181Y4805679D01*
X2207768Y4795265D01*
X2202434Y4779771D01*
X2095500Y4369815D02*
G01*
X2095500Y4260850D01*
X2168143Y4369815D02*
G01*
X2168143Y4260850D01*
X2095500Y4318000D02*
G01*
X2168143Y4318000D01*
X2275331Y4369815D02*
G01*
X2223261Y4260850D01*
X2202434Y4369815D02*
G01*
X2275331Y4369815D01*
X2070100Y2820415D02*
G01*
X2070100Y2711450D01*
X2142743Y2820415D02*
G01*
X2142743Y2711450D01*
X2070100Y2768600D02*
G01*
X2142743Y2768600D01*
X2177034Y2799587D02*
G01*
X2187447Y2804921D01*
X2203195Y2820415D01*
X2203195Y2711450D01*
X2268474Y2820415D02*
G01*
X2252979Y2815336D01*
X2242565Y2799587D01*
X2237486Y2773679D01*
X2237486Y2758186D01*
X2242565Y2732023D01*
X2252979Y2716529D01*
X2268474Y2711450D01*
X2278888Y2711450D01*
X2294636Y2716529D01*
X2305050Y2732023D01*
X2310129Y2758186D01*
X2310129Y2773679D01*
X2305050Y2799587D01*
X2294636Y2815336D01*
X2278888Y2820415D01*
X2268474Y2820415D01*
X2070100Y2337815D02*
G01*
X2070100Y2228850D01*
X2142743Y2337815D02*
G01*
X2142743Y2228850D01*
X2070100Y2286000D02*
G01*
X2142743Y2286000D01*
X2177034Y2316987D02*
G01*
X2187447Y2322321D01*
X2203195Y2337815D01*
X2203195Y2228850D01*
X2237486Y2316987D02*
G01*
X2247900Y2322321D01*
X2263393Y2337815D01*
X2263393Y2228850D01*
X7403084Y5080000D02*
G01*
X7512050Y5080000D01*
X7403084Y5152644D02*
G01*
X7512050Y5152644D01*
X7454900Y5080000D02*
G01*
X7454900Y5152644D01*
X7423911Y5186934D02*
G01*
X7418577Y5197347D01*
X7403084Y5213095D01*
X7512050Y5213095D01*
X7418577Y5309615D02*
G01*
X7408163Y5304536D01*
X7403084Y5288787D01*
X7403084Y5278373D01*
X7408163Y5262879D01*
X7423911Y5252465D01*
X7449820Y5247386D01*
X7475727Y5247386D01*
X7496556Y5252465D01*
X7506970Y5262879D01*
X7512050Y5278373D01*
X7512050Y5283707D01*
X7506970Y5299202D01*
X7496556Y5309615D01*
X7481061Y5314950D01*
X7475727Y5314950D01*
X7460234Y5309615D01*
X7449820Y5299202D01*
X7444740Y5283707D01*
X7444740Y5278373D01*
X7449820Y5262879D01*
X7460234Y5252465D01*
X7475727Y5247386D01*
X9168384Y2527300D02*
G01*
X9277350Y2527300D01*
X9168384Y2599944D02*
G01*
X9277350Y2599944D01*
X9220200Y2527300D02*
G01*
X9220200Y2599944D01*
X9189211Y2634234D02*
G01*
X9183877Y2644647D01*
X9168384Y2660395D01*
X9277350Y2660395D01*
X9168384Y2767329D02*
G01*
X9277350Y2715260D01*
X9168384Y2694686D02*
G01*
X9168384Y2767329D01*
D13*
X3594100Y1143000D02*
G01*
X3670300Y1143000D01*
X3187700Y1143000D02*
G01*
X3111500Y1143000D01*
X3187700Y1244600D02*
G01*
X3594100Y1244600D01*
X3594100Y1041400D01*
X3187700Y1041400D01*
X3187700Y1244600D01*
D10*
X3835400Y3200400D02*
G01*
X4086859Y3200400D01*
X4086859Y2692400D01*
X3835400Y2692400D01*
X3835400Y3200400D01*
D13*
X1244472Y5855512D02*
G01*
X1244472Y5510529D01*
X1349476Y5510529D01*
X1349476Y5852515D01*
X1349476Y5855512D01*
X1244472Y5855512D01*
X1166596Y5999403D02*
G01*
X1166596Y5399404D01*
X1167409Y6000292D02*
G01*
X2187399Y6002299D01*
X1167409Y5397296D02*
G01*
X2187399Y5396301D01*
X2187399Y5996299D02*
G01*
X2187399Y5396301D01*
X1500403Y5856300D02*
G01*
X1500403Y5511317D01*
X1605406Y5511317D01*
X1605406Y5853303D01*
X1605406Y5856300D01*
X1500403Y5856300D01*
X1749577Y5858510D02*
G01*
X1749577Y5513527D01*
X1854580Y5513527D01*
X1854580Y5855512D01*
X1854580Y5858510D01*
X1749577Y5858510D01*
X2004644Y5859322D02*
G01*
X2004644Y5514339D01*
X2109647Y5514339D01*
X2109647Y5856325D01*
X2109647Y5859322D01*
X2004644Y5859322D01*
X1257249Y5784418D02*
G01*
X1344244Y5784418D01*
X1255166Y5706592D02*
G01*
X1342161Y5706592D01*
X1254252Y5784418D02*
G01*
X1329232Y5709437D01*
X1329232Y5706414D01*
X1275232Y5706414D02*
G01*
X1248232Y5733414D01*
X1314246Y5784418D02*
G01*
X1338249Y5760415D01*
X1341246Y5760415D01*
X1257249Y5589422D02*
G01*
X1344244Y5589422D01*
X1508252Y5781420D02*
G01*
X1595246Y5781420D01*
X1506169Y5703595D02*
G01*
X1593164Y5703595D01*
X1505254Y5781420D02*
G01*
X1580235Y5706440D01*
X1580235Y5703417D01*
X1526235Y5703417D02*
G01*
X1499235Y5730417D01*
X1565249Y5781420D02*
G01*
X1589252Y5757418D01*
X1592249Y5757418D01*
X1508252Y5586425D02*
G01*
X1595246Y5586425D01*
X1764461Y5781420D02*
G01*
X1851456Y5781420D01*
X1762379Y5703595D02*
G01*
X1849373Y5703595D01*
X1761464Y5781420D02*
G01*
X1836445Y5706440D01*
X1836445Y5703417D01*
X1782445Y5703417D02*
G01*
X1755444Y5730417D01*
X1821459Y5781420D02*
G01*
X1845462Y5757418D01*
X1848459Y5757418D01*
X1764461Y5586425D02*
G01*
X1851456Y5586425D01*
X2015464Y5781420D02*
G01*
X2102459Y5781420D01*
X2013381Y5703595D02*
G01*
X2100376Y5703595D01*
X2012467Y5781420D02*
G01*
X2087448Y5706440D01*
X2087448Y5703417D01*
X2033447Y5703417D02*
G01*
X2006447Y5730417D01*
X2072462Y5781420D02*
G01*
X2096465Y5757418D01*
X2099462Y5757418D01*
X2015464Y5586425D02*
G01*
X2102459Y5586425D01*
X1170304Y5778347D02*
G01*
X1200353Y5778347D01*
X1200353Y5592927D01*
X1172845Y5592927D01*
D10*
X3517900Y5664200D02*
G01*
X3517900Y5473700D01*
X3771900Y5473700D01*
X3771900Y6743700D01*
X3517900Y6743700D01*
D14*
X3517900Y6743700D02*
G01*
X3517900Y5664200D01*
D10*
X3149600Y5664200D02*
G01*
X3149600Y5473700D01*
X3403600Y5473700D01*
X3403600Y6743700D01*
X3149600Y6743700D01*
D14*
X3149600Y6743700D02*
G01*
X3149600Y5664200D01*
D13*
X8051800Y6566034D02*
G01*
X7924868Y6565986D01*
X7924800Y6439034D01*
X7924800Y4788034D01*
X7924800Y4788034D01*
X9067800Y4788034D01*
X9194868Y4787986D01*
X9194800Y4915034D01*
X9194800Y6439034D01*
X9194868Y6565986D01*
X9067800Y6566034D01*
X8051800Y6566034D01*
D10*
X2768600Y5664200D02*
G01*
X2768600Y5473700D01*
X3022600Y5473700D01*
X3022600Y6743700D01*
X2768600Y6743700D01*
D14*
X2768600Y6743700D02*
G01*
X2768600Y5664200D01*
D10*
X2387600Y5664200D02*
G01*
X2387600Y5473700D01*
X2641600Y5473700D01*
X2641600Y6743700D01*
X2387600Y6743700D01*
D14*
X2387600Y6743700D02*
G01*
X2387600Y5664200D01*
D15*
X4152900Y419100D02*
G01*
X4152900Y6783095D01*
X6985000Y6783095D01*
X6985000Y419100D01*
X4152900Y419100D01*
D13*
X4673600Y4838700D02*
G01*
X4673600Y6738696D01*
X6573596Y6738696D01*
X6573596Y4838700D01*
X4673600Y4838700D01*
X4962601Y1656714D02*
G01*
X4962601Y3956710D01*
X6162598Y3956710D01*
X6162598Y1656714D01*
X4962601Y1656714D01*
X5194300Y355600D02*
G01*
X5194300Y1117600D01*
X5969000Y1117600D01*
X5969000Y355600D01*
X5194300Y355600D01*
X4762500Y1574800D02*
G01*
X4762500Y4749800D01*
X6362700Y4749800D01*
X6362700Y1574800D01*
X4762500Y1574800D01*
D10*
X7518400Y2578100D02*
G01*
X7264400Y2578100D01*
X7264400Y2832100D01*
X7518400Y2832100D01*
X7518400Y2641600D01*
D14*
X7518400Y2578100D02*
G01*
X7518400Y2641600D01*
D10*
X7518400Y2324100D02*
G01*
X7264400Y2324100D01*
X7264400Y2578100D01*
X7518400Y2578100D01*
X7518400Y2387600D01*
D14*
X7518400Y2324100D02*
G01*
X7518400Y2387600D01*
D13*
X4681727Y4254500D02*
G01*
X6459727Y4254500D01*
X4681727Y4254500D02*
G01*
X4681727Y6083300D01*
X6459727Y4254500D02*
G01*
X6459727Y6083300D01*
X4884927Y6337300D02*
G01*
X6256527Y6337300D01*
X4681727Y6083300D02*
G01*
X4884927Y6083300D01*
X4884927Y6337300D01*
X6459727Y6083300D02*
G01*
X6256527Y6083300D01*
X6256527Y6337300D01*
X4884927Y6083300D02*
G01*
X6256527Y6083300D01*
D10*
X8051800Y2387600D02*
G01*
X8051800Y2641600D01*
X9067800Y2641600D01*
X9067800Y2387600D01*
X8877300Y2387600D01*
D14*
X8051800Y2387600D02*
G01*
X8877300Y2387600D01*
D10*
X7251700Y1917700D02*
G01*
X6997700Y1917700D01*
X6997700Y2171700D01*
X7251700Y2171700D01*
X7251700Y1981200D01*
D14*
X7251700Y1917700D02*
G01*
X7251700Y1981200D01*
D10*
X4089400Y4686300D02*
G01*
X4089400Y4686300D01*
X4089400Y4432300D01*
X279400Y4432300D01*
X279400Y4686300D01*
X469900Y4686300D01*
D16*
X4089400Y4686300D02*
G01*
X469900Y4686300D01*
D10*
X4089400Y4203700D02*
G01*
X4089400Y4203700D01*
X4089400Y3949700D01*
X279400Y3949700D01*
X279400Y4203700D01*
X469900Y4203700D01*
D16*
X4089400Y4203700D02*
G01*
X469900Y4203700D01*
D10*
X4089400Y2654300D02*
G01*
X4089400Y2654300D01*
X4089400Y2400300D01*
X279400Y2400300D01*
X279400Y2654300D01*
X469900Y2654300D01*
D16*
X4089400Y2654300D02*
G01*
X469900Y2654300D01*
D10*
X4089400Y2171700D02*
G01*
X4089400Y2171700D01*
X4089400Y1917700D01*
X279400Y1917700D01*
X279400Y2171700D01*
X469900Y2171700D01*
D16*
X4089400Y2171700D02*
G01*
X469900Y2171700D01*
D10*
X7797800Y6261100D02*
G01*
X7797800Y6451600D01*
X7543800Y6451600D01*
X7543800Y3911600D01*
X7797800Y3911600D01*
D14*
X7797800Y3911600D02*
G01*
X7797800Y6261100D01*
D10*
X9575800Y3721100D02*
G01*
X9575800Y3911600D01*
X9321800Y3911600D01*
X9321800Y1371600D01*
X9575800Y1371600D01*
D14*
X9575800Y1371600D02*
G01*
X9575800Y3721100D01*
M02*
