G04 Layer: TopSolderMaskLayer*
G04 EasyEDA v6.5.51, 2025-12-08 09:47:30*
G04 7167e3a2cd4a4cc2b36d8ec3c7a0698f,d159c27349c1460ca4c4e21dfb61053a,10*
G04 Gerber Generator version 0.2*
G04 Scale: 100 percent, Rotated: No, Reflected: No *
G04 Dimensions in millimeters *
G04 leading zeros omitted , absolute positions ,4 integer and 5 decimal *
%FSLAX45Y45*%
%MOMM*%

%AMMACRO1*4,1,8,-0.8085,-0.8382,-0.8382,-0.8084,-0.8382,0.8085,-0.8085,0.8382,0.8084,0.8382,0.8382,0.8085,0.8382,-0.8084,0.8084,-0.8382,-0.8085,-0.8382,0*%
%AMMACRO2*4,1,8,-0.7711,-0.8008,-0.8008,-0.771,-0.8008,0.7711,-0.7711,0.8008,0.771,0.8008,0.8008,0.7711,0.8008,-0.771,0.771,-0.8008,-0.7711,-0.8008,0*%
%AMMACRO3*4,1,8,-2.5821,-1.3716,-2.6416,-1.3121,-2.6416,1.3121,-2.5821,1.3716,2.5821,1.3716,2.6416,1.3121,2.6416,-1.3121,2.5821,-1.3716,-2.5821,-1.3716,0*%
%ADD10MACRO1*%
%ADD11C,1.6764*%
%ADD12O,1.601597X4.301592*%
%ADD13C,2.2032*%
%ADD14C,1.8040*%
%ADD15C,1.7016*%
%ADD16C,1.8032*%
%ADD17C,2.2352*%
%ADD18C,0.0106*%
%ADD19C,1.6256*%
%ADD20MACRO2*%
%ADD21MACRO3*%
%ADD22C,1.7272*%

%LPD*%
D10*
G01*
X10439400Y4267200D03*
G01*
X10439400Y4584700D03*
G01*
X5448300Y2946400D03*
D11*
G01*
X406400Y4318000D03*
G01*
X660400Y4318000D03*
G01*
X914400Y4318000D03*
G01*
X1168400Y4318000D03*
G01*
X1422400Y4318000D03*
G01*
X1676400Y4318000D03*
G01*
X1930400Y4318000D03*
G01*
X2184400Y4318000D03*
G01*
X2438400Y4318000D03*
G01*
X2692400Y4318000D03*
G01*
X2946400Y4318000D03*
G01*
X3200400Y4318000D03*
G01*
X3454400Y4318000D03*
G01*
X3708400Y4318000D03*
D10*
G01*
X3962400Y4318000D03*
D11*
G01*
X406400Y3835400D03*
G01*
X660400Y3835400D03*
G01*
X914400Y3835400D03*
G01*
X1168400Y3835400D03*
G01*
X1422400Y3835400D03*
G01*
X1676400Y3835400D03*
G01*
X1930400Y3835400D03*
G01*
X2184400Y3835400D03*
G01*
X2438400Y3835400D03*
G01*
X2692400Y3835400D03*
G01*
X2946400Y3835400D03*
G01*
X3200400Y3835400D03*
G01*
X3454400Y3835400D03*
G01*
X3708400Y3835400D03*
D10*
G01*
X3962400Y3835400D03*
D11*
G01*
X406400Y2286000D03*
G01*
X660400Y2286000D03*
G01*
X914400Y2286000D03*
G01*
X1168400Y2286000D03*
G01*
X1422400Y2286000D03*
G01*
X1676400Y2286000D03*
G01*
X1930400Y2286000D03*
G01*
X2184400Y2286000D03*
G01*
X2438400Y2286000D03*
G01*
X2692400Y2286000D03*
G01*
X2946400Y2286000D03*
G01*
X3200400Y2286000D03*
G01*
X3454400Y2286000D03*
G01*
X3708400Y2286000D03*
D10*
G01*
X3962400Y2286000D03*
D11*
G01*
X406400Y1803400D03*
G01*
X660400Y1803400D03*
G01*
X914400Y1803400D03*
G01*
X1168400Y1803400D03*
G01*
X1422400Y1803400D03*
G01*
X1676400Y1803400D03*
G01*
X1930400Y1803400D03*
G01*
X2184400Y1803400D03*
G01*
X2438400Y1803400D03*
G01*
X2692400Y1803400D03*
G01*
X2946400Y1803400D03*
G01*
X3200400Y1803400D03*
G01*
X3454400Y1803400D03*
G01*
X3708400Y1803400D03*
D10*
G01*
X3962400Y1803400D03*
D11*
G01*
X4940300Y4127500D03*
G01*
X5194300Y4127500D03*
G01*
X5448300Y4127500D03*
G01*
X5702300Y4127500D03*
D10*
G01*
X5956300Y4127500D03*
D11*
G01*
X4940300Y3848100D03*
G01*
X5194300Y3848100D03*
G01*
X5448300Y3848100D03*
G01*
X5702300Y3848100D03*
D10*
G01*
X5956300Y3848100D03*
D11*
G01*
X4940300Y3568700D03*
G01*
X5194300Y3568700D03*
G01*
X5448300Y3568700D03*
G01*
X5702300Y3568700D03*
D10*
G01*
X5956300Y3568700D03*
D11*
G01*
X4940300Y3289300D03*
G01*
X5194300Y3289300D03*
G01*
X5448300Y3289300D03*
G01*
X5702300Y3289300D03*
D10*
G01*
X5956300Y3289300D03*
D12*
G01*
X9562591Y5689600D03*
G01*
X1562607Y5689600D03*
D11*
G01*
X2755900Y520700D03*
G01*
X3009900Y520700D03*
G01*
X3263900Y520700D03*
G01*
X3517900Y520700D03*
G01*
X3771900Y520700D03*
D10*
G01*
X4025900Y520700D03*
D13*
G01*
X3009900Y1143000D03*
G01*
X3771900Y1143000D03*
D10*
G01*
X3962400Y2819400D03*
D11*
G01*
X3962400Y3073400D03*
D14*
G01*
X1295400Y5321300D03*
D15*
G01*
X1549400Y5321300D03*
G01*
X1803400Y5321300D03*
G01*
X2057400Y5321300D03*
D16*
G01*
X2057400Y6083300D03*
G01*
X1803400Y6083300D03*
G01*
X1549400Y6083300D03*
G01*
X1295400Y6083300D03*
D11*
G01*
X3644900Y6616700D03*
G01*
X3644900Y6362700D03*
G01*
X3644900Y6108700D03*
G01*
X3644900Y5854700D03*
D10*
G01*
X3644900Y5600700D03*
D11*
G01*
X3276600Y6616700D03*
G01*
X3276600Y6362700D03*
G01*
X3276600Y6108700D03*
G01*
X3276600Y5854700D03*
D10*
G01*
X3276600Y5600700D03*
G36*
X7848574Y6332197D02*
G01*
X7848074Y6332222D01*
X7847578Y6332296D01*
X7847093Y6332415D01*
X7846623Y6332585D01*
X7846169Y6332799D01*
X7845739Y6333055D01*
X7845338Y6333355D01*
X7844967Y6333690D01*
X7844632Y6334061D01*
X7844332Y6334462D01*
X7844076Y6334892D01*
X7843862Y6335346D01*
X7843692Y6335816D01*
X7843573Y6336301D01*
X7843499Y6336797D01*
X7843474Y6337297D01*
X7843474Y6540497D01*
X7843499Y6540997D01*
X7843573Y6541493D01*
X7843692Y6541978D01*
X7843862Y6542448D01*
X7844076Y6542902D01*
X7844332Y6543332D01*
X7844632Y6543733D01*
X7844967Y6544104D01*
X7845338Y6544439D01*
X7845739Y6544739D01*
X7846169Y6544995D01*
X7846623Y6545209D01*
X7847093Y6545379D01*
X7847578Y6545498D01*
X7848074Y6545572D01*
X7848574Y6545597D01*
X8045424Y6545597D01*
X8045924Y6545572D01*
X8046420Y6545498D01*
X8046905Y6545379D01*
X8047375Y6545209D01*
X8047829Y6544995D01*
X8048259Y6544739D01*
X8048660Y6544439D01*
X8049031Y6544104D01*
X8049366Y6543733D01*
X8049666Y6543332D01*
X8049922Y6542902D01*
X8050136Y6542448D01*
X8050306Y6541978D01*
X8050425Y6541493D01*
X8050499Y6540997D01*
X8050524Y6540497D01*
X8050524Y6337297D01*
X8050499Y6336797D01*
X8050425Y6336301D01*
X8050306Y6335816D01*
X8050136Y6335346D01*
X8049922Y6334892D01*
X8049666Y6334462D01*
X8049366Y6334061D01*
X8049031Y6333690D01*
X8048660Y6333355D01*
X8048259Y6333055D01*
X8047829Y6332799D01*
X8047375Y6332585D01*
X8046905Y6332415D01*
X8046420Y6332296D01*
X8045924Y6332222D01*
X8045424Y6332197D01*
G37*
G36*
X7848574Y6078199D02*
G01*
X7848074Y6078225D01*
X7847578Y6078298D01*
X7847093Y6078418D01*
X7846623Y6078588D01*
X7846169Y6078801D01*
X7845739Y6079058D01*
X7845338Y6079357D01*
X7844967Y6079693D01*
X7844632Y6080064D01*
X7844332Y6080465D01*
X7844076Y6080894D01*
X7843862Y6081349D01*
X7843692Y6081819D01*
X7843573Y6082304D01*
X7843499Y6082799D01*
X7843474Y6083300D01*
X7843474Y6286500D01*
X7843499Y6287000D01*
X7843573Y6287495D01*
X7843692Y6287980D01*
X7843862Y6288450D01*
X7844076Y6288905D01*
X7844332Y6289334D01*
X7844632Y6289735D01*
X7844967Y6290106D01*
X7845338Y6290442D01*
X7845739Y6290741D01*
X7846169Y6290998D01*
X7846623Y6291211D01*
X7847093Y6291381D01*
X7847578Y6291501D01*
X7848074Y6291574D01*
X7848574Y6291600D01*
X8045424Y6291600D01*
X8045924Y6291574D01*
X8046420Y6291501D01*
X8046905Y6291381D01*
X8047375Y6291211D01*
X8047829Y6290998D01*
X8048259Y6290741D01*
X8048660Y6290442D01*
X8049031Y6290106D01*
X8049366Y6289735D01*
X8049666Y6289334D01*
X8049922Y6288905D01*
X8050136Y6288450D01*
X8050306Y6287980D01*
X8050425Y6287495D01*
X8050499Y6287000D01*
X8050524Y6286500D01*
X8050524Y6083300D01*
X8050499Y6082799D01*
X8050425Y6082304D01*
X8050306Y6081819D01*
X8050136Y6081349D01*
X8049922Y6080894D01*
X8049666Y6080465D01*
X8049366Y6080064D01*
X8049031Y6079693D01*
X8048660Y6079357D01*
X8048259Y6079058D01*
X8047829Y6078801D01*
X8047375Y6078588D01*
X8046905Y6078418D01*
X8046420Y6078298D01*
X8045924Y6078225D01*
X8045424Y6078199D01*
G37*
G36*
X7848574Y5824199D02*
G01*
X7848074Y5824225D01*
X7847578Y5824298D01*
X7847093Y5824418D01*
X7846623Y5824588D01*
X7846169Y5824801D01*
X7845739Y5825058D01*
X7845338Y5825357D01*
X7844967Y5825693D01*
X7844632Y5826064D01*
X7844332Y5826465D01*
X7844076Y5826894D01*
X7843862Y5827349D01*
X7843692Y5827819D01*
X7843573Y5828304D01*
X7843499Y5828799D01*
X7843474Y5829300D01*
X7843474Y6032500D01*
X7843499Y6033000D01*
X7843573Y6033495D01*
X7843692Y6033980D01*
X7843862Y6034450D01*
X7844076Y6034905D01*
X7844332Y6035334D01*
X7844632Y6035735D01*
X7844967Y6036106D01*
X7845338Y6036442D01*
X7845739Y6036741D01*
X7846169Y6036998D01*
X7846623Y6037211D01*
X7847093Y6037381D01*
X7847578Y6037501D01*
X7848074Y6037574D01*
X7848574Y6037600D01*
X8045424Y6037600D01*
X8045924Y6037574D01*
X8046420Y6037501D01*
X8046905Y6037381D01*
X8047375Y6037211D01*
X8047829Y6036998D01*
X8048259Y6036741D01*
X8048660Y6036442D01*
X8049031Y6036106D01*
X8049366Y6035735D01*
X8049666Y6035334D01*
X8049922Y6034905D01*
X8050136Y6034450D01*
X8050306Y6033980D01*
X8050425Y6033495D01*
X8050499Y6033000D01*
X8050524Y6032500D01*
X8050524Y5829300D01*
X8050499Y5828799D01*
X8050425Y5828304D01*
X8050306Y5827819D01*
X8050136Y5827349D01*
X8049922Y5826894D01*
X8049666Y5826465D01*
X8049366Y5826064D01*
X8049031Y5825693D01*
X8048660Y5825357D01*
X8048259Y5825058D01*
X8047829Y5824801D01*
X8047375Y5824588D01*
X8046905Y5824418D01*
X8046420Y5824298D01*
X8045924Y5824225D01*
X8045424Y5824199D01*
G37*
G36*
X7848574Y5570199D02*
G01*
X7848074Y5570225D01*
X7847578Y5570298D01*
X7847093Y5570418D01*
X7846623Y5570588D01*
X7846169Y5570801D01*
X7845739Y5571058D01*
X7845338Y5571357D01*
X7844967Y5571693D01*
X7844632Y5572064D01*
X7844332Y5572465D01*
X7844076Y5572894D01*
X7843862Y5573349D01*
X7843692Y5573819D01*
X7843573Y5574304D01*
X7843499Y5574799D01*
X7843474Y5575300D01*
X7843474Y5778500D01*
X7843499Y5779000D01*
X7843573Y5779495D01*
X7843692Y5779980D01*
X7843862Y5780450D01*
X7844076Y5780905D01*
X7844332Y5781334D01*
X7844632Y5781735D01*
X7844967Y5782106D01*
X7845338Y5782442D01*
X7845739Y5782741D01*
X7846169Y5782998D01*
X7846623Y5783211D01*
X7847093Y5783381D01*
X7847578Y5783501D01*
X7848074Y5783574D01*
X7848574Y5783600D01*
X8045424Y5783600D01*
X8045924Y5783574D01*
X8046420Y5783501D01*
X8046905Y5783381D01*
X8047375Y5783211D01*
X8047829Y5782998D01*
X8048259Y5782741D01*
X8048660Y5782442D01*
X8049031Y5782106D01*
X8049366Y5781735D01*
X8049666Y5781334D01*
X8049922Y5780905D01*
X8050136Y5780450D01*
X8050306Y5779980D01*
X8050425Y5779495D01*
X8050499Y5779000D01*
X8050524Y5778500D01*
X8050524Y5575300D01*
X8050499Y5574799D01*
X8050425Y5574304D01*
X8050306Y5573819D01*
X8050136Y5573349D01*
X8049922Y5572894D01*
X8049666Y5572465D01*
X8049366Y5572064D01*
X8049031Y5571693D01*
X8048660Y5571357D01*
X8048259Y5571058D01*
X8047829Y5570801D01*
X8047375Y5570588D01*
X8046905Y5570418D01*
X8046420Y5570298D01*
X8045924Y5570225D01*
X8045424Y5570199D01*
G37*
G36*
X7848574Y5316199D02*
G01*
X7848074Y5316225D01*
X7847578Y5316298D01*
X7847093Y5316418D01*
X7846623Y5316588D01*
X7846169Y5316801D01*
X7845739Y5317058D01*
X7845338Y5317357D01*
X7844967Y5317693D01*
X7844632Y5318064D01*
X7844332Y5318465D01*
X7844076Y5318894D01*
X7843862Y5319349D01*
X7843692Y5319819D01*
X7843573Y5320304D01*
X7843499Y5320799D01*
X7843474Y5321300D01*
X7843474Y5524500D01*
X7843499Y5525000D01*
X7843573Y5525495D01*
X7843692Y5525980D01*
X7843862Y5526450D01*
X7844076Y5526905D01*
X7844332Y5527334D01*
X7844632Y5527735D01*
X7844967Y5528106D01*
X7845338Y5528442D01*
X7845739Y5528741D01*
X7846169Y5528998D01*
X7846623Y5529211D01*
X7847093Y5529381D01*
X7847578Y5529501D01*
X7848074Y5529574D01*
X7848574Y5529600D01*
X8045424Y5529600D01*
X8045924Y5529574D01*
X8046420Y5529501D01*
X8046905Y5529381D01*
X8047375Y5529211D01*
X8047829Y5528998D01*
X8048259Y5528741D01*
X8048660Y5528442D01*
X8049031Y5528106D01*
X8049366Y5527735D01*
X8049666Y5527334D01*
X8049922Y5526905D01*
X8050136Y5526450D01*
X8050306Y5525980D01*
X8050425Y5525495D01*
X8050499Y5525000D01*
X8050524Y5524500D01*
X8050524Y5321300D01*
X8050499Y5320799D01*
X8050425Y5320304D01*
X8050306Y5319819D01*
X8050136Y5319349D01*
X8049922Y5318894D01*
X8049666Y5318465D01*
X8049366Y5318064D01*
X8049031Y5317693D01*
X8048660Y5317357D01*
X8048259Y5317058D01*
X8047829Y5316801D01*
X8047375Y5316588D01*
X8046905Y5316418D01*
X8046420Y5316298D01*
X8045924Y5316225D01*
X8045424Y5316199D01*
G37*
G36*
X7848574Y5062199D02*
G01*
X7848074Y5062225D01*
X7847578Y5062298D01*
X7847093Y5062418D01*
X7846623Y5062588D01*
X7846169Y5062801D01*
X7845739Y5063058D01*
X7845338Y5063357D01*
X7844967Y5063693D01*
X7844632Y5064064D01*
X7844332Y5064465D01*
X7844076Y5064894D01*
X7843862Y5065349D01*
X7843692Y5065819D01*
X7843573Y5066304D01*
X7843499Y5066799D01*
X7843474Y5067300D01*
X7843474Y5270500D01*
X7843499Y5271000D01*
X7843573Y5271495D01*
X7843692Y5271980D01*
X7843862Y5272450D01*
X7844076Y5272905D01*
X7844332Y5273334D01*
X7844632Y5273735D01*
X7844967Y5274106D01*
X7845338Y5274442D01*
X7845739Y5274741D01*
X7846169Y5274998D01*
X7846623Y5275211D01*
X7847093Y5275381D01*
X7847578Y5275501D01*
X7848074Y5275574D01*
X7848574Y5275600D01*
X8045424Y5275600D01*
X8045924Y5275574D01*
X8046420Y5275501D01*
X8046905Y5275381D01*
X8047375Y5275211D01*
X8047829Y5274998D01*
X8048259Y5274741D01*
X8048660Y5274442D01*
X8049031Y5274106D01*
X8049366Y5273735D01*
X8049666Y5273334D01*
X8049922Y5272905D01*
X8050136Y5272450D01*
X8050306Y5271980D01*
X8050425Y5271495D01*
X8050499Y5271000D01*
X8050524Y5270500D01*
X8050524Y5067300D01*
X8050499Y5066799D01*
X8050425Y5066304D01*
X8050306Y5065819D01*
X8050136Y5065349D01*
X8049922Y5064894D01*
X8049666Y5064465D01*
X8049366Y5064064D01*
X8049031Y5063693D01*
X8048660Y5063357D01*
X8048259Y5063058D01*
X8047829Y5062801D01*
X8047375Y5062588D01*
X8046905Y5062418D01*
X8046420Y5062298D01*
X8045924Y5062225D01*
X8045424Y5062199D01*
G37*
G36*
X7848574Y4808202D02*
G01*
X7848074Y4808227D01*
X7847578Y4808301D01*
X7847093Y4808420D01*
X7846623Y4808590D01*
X7846169Y4808804D01*
X7845739Y4809060D01*
X7845338Y4809360D01*
X7844967Y4809695D01*
X7844632Y4810066D01*
X7844332Y4810467D01*
X7844076Y4810897D01*
X7843862Y4811351D01*
X7843692Y4811821D01*
X7843573Y4812306D01*
X7843499Y4812802D01*
X7843474Y4813302D01*
X7843474Y5016502D01*
X7843499Y5017002D01*
X7843573Y5017498D01*
X7843692Y5017983D01*
X7843862Y5018453D01*
X7844076Y5018907D01*
X7844332Y5019337D01*
X7844632Y5019738D01*
X7844967Y5020109D01*
X7845338Y5020444D01*
X7845739Y5020744D01*
X7846169Y5021000D01*
X7846623Y5021214D01*
X7847093Y5021384D01*
X7847578Y5021503D01*
X7848074Y5021577D01*
X7848574Y5021602D01*
X8045424Y5021602D01*
X8045924Y5021577D01*
X8046420Y5021503D01*
X8046905Y5021384D01*
X8047375Y5021214D01*
X8047829Y5021000D01*
X8048259Y5020744D01*
X8048660Y5020444D01*
X8049031Y5020109D01*
X8049366Y5019738D01*
X8049666Y5019337D01*
X8049922Y5018907D01*
X8050136Y5018453D01*
X8050306Y5017983D01*
X8050425Y5017498D01*
X8050499Y5017002D01*
X8050524Y5016502D01*
X8050524Y4813302D01*
X8050499Y4812802D01*
X8050425Y4812306D01*
X8050306Y4811821D01*
X8050136Y4811351D01*
X8049922Y4810897D01*
X8049666Y4810467D01*
X8049366Y4810066D01*
X8049031Y4809695D01*
X8048660Y4809360D01*
X8048259Y4809060D01*
X8047829Y4808804D01*
X8047375Y4808590D01*
X8046905Y4808420D01*
X8046420Y4808301D01*
X8045924Y4808227D01*
X8045424Y4808202D01*
G37*
G36*
X9074172Y6078199D02*
G01*
X9073672Y6078225D01*
X9073177Y6078298D01*
X9072692Y6078418D01*
X9072222Y6078588D01*
X9071767Y6078801D01*
X9071338Y6079058D01*
X9070936Y6079357D01*
X9070566Y6079693D01*
X9070230Y6080064D01*
X9069931Y6080465D01*
X9069674Y6080894D01*
X9069461Y6081349D01*
X9069290Y6081819D01*
X9069171Y6082304D01*
X9069097Y6082799D01*
X9069072Y6083300D01*
X9069072Y6286500D01*
X9069097Y6287000D01*
X9069171Y6287495D01*
X9069290Y6287980D01*
X9069461Y6288450D01*
X9069674Y6288905D01*
X9069931Y6289334D01*
X9070230Y6289735D01*
X9070566Y6290106D01*
X9070936Y6290442D01*
X9071338Y6290741D01*
X9071767Y6290998D01*
X9072222Y6291211D01*
X9072692Y6291381D01*
X9073177Y6291501D01*
X9073672Y6291574D01*
X9074172Y6291600D01*
X9271022Y6291600D01*
X9271523Y6291574D01*
X9272018Y6291501D01*
X9272503Y6291381D01*
X9272973Y6291211D01*
X9273428Y6290998D01*
X9273857Y6290741D01*
X9274258Y6290442D01*
X9274629Y6290106D01*
X9274964Y6289735D01*
X9275264Y6289334D01*
X9275521Y6288905D01*
X9275734Y6288450D01*
X9275904Y6287980D01*
X9276024Y6287495D01*
X9276097Y6287000D01*
X9276123Y6286500D01*
X9276123Y6083300D01*
X9276097Y6082799D01*
X9276024Y6082304D01*
X9275904Y6081819D01*
X9275734Y6081349D01*
X9275521Y6080894D01*
X9275264Y6080465D01*
X9274964Y6080064D01*
X9274629Y6079693D01*
X9274258Y6079357D01*
X9273857Y6079058D01*
X9273428Y6078801D01*
X9272973Y6078588D01*
X9272503Y6078418D01*
X9272018Y6078298D01*
X9271523Y6078225D01*
X9271022Y6078199D01*
G37*
G36*
X9074172Y5824199D02*
G01*
X9073672Y5824225D01*
X9073177Y5824298D01*
X9072692Y5824418D01*
X9072222Y5824588D01*
X9071767Y5824801D01*
X9071338Y5825058D01*
X9070936Y5825357D01*
X9070566Y5825693D01*
X9070230Y5826064D01*
X9069931Y5826465D01*
X9069674Y5826894D01*
X9069461Y5827349D01*
X9069290Y5827819D01*
X9069171Y5828304D01*
X9069097Y5828799D01*
X9069072Y5829300D01*
X9069072Y6032500D01*
X9069097Y6033000D01*
X9069171Y6033495D01*
X9069290Y6033980D01*
X9069461Y6034450D01*
X9069674Y6034905D01*
X9069931Y6035334D01*
X9070230Y6035735D01*
X9070566Y6036106D01*
X9070936Y6036442D01*
X9071338Y6036741D01*
X9071767Y6036998D01*
X9072222Y6037211D01*
X9072692Y6037381D01*
X9073177Y6037501D01*
X9073672Y6037574D01*
X9074172Y6037600D01*
X9271022Y6037600D01*
X9271523Y6037574D01*
X9272018Y6037501D01*
X9272503Y6037381D01*
X9272973Y6037211D01*
X9273428Y6036998D01*
X9273857Y6036741D01*
X9274258Y6036442D01*
X9274629Y6036106D01*
X9274964Y6035735D01*
X9275264Y6035334D01*
X9275521Y6034905D01*
X9275734Y6034450D01*
X9275904Y6033980D01*
X9276024Y6033495D01*
X9276097Y6033000D01*
X9276123Y6032500D01*
X9276123Y5829300D01*
X9276097Y5828799D01*
X9276024Y5828304D01*
X9275904Y5827819D01*
X9275734Y5827349D01*
X9275521Y5826894D01*
X9275264Y5826465D01*
X9274964Y5826064D01*
X9274629Y5825693D01*
X9274258Y5825357D01*
X9273857Y5825058D01*
X9273428Y5824801D01*
X9272973Y5824588D01*
X9272503Y5824418D01*
X9272018Y5824298D01*
X9271523Y5824225D01*
X9271022Y5824199D01*
G37*
G36*
X9074150Y5570220D02*
G01*
X9073652Y5570245D01*
X9073159Y5570316D01*
X9072674Y5570438D01*
X9072206Y5570606D01*
X9071754Y5570819D01*
X9071328Y5571075D01*
X9070926Y5571373D01*
X9070558Y5571708D01*
X9070223Y5572076D01*
X9069925Y5572478D01*
X9069669Y5572904D01*
X9069456Y5573356D01*
X9069288Y5573824D01*
X9069166Y5574309D01*
X9069095Y5574802D01*
X9069070Y5575300D01*
X9069070Y5778500D01*
X9069095Y5778997D01*
X9069166Y5779490D01*
X9069288Y5779975D01*
X9069456Y5780443D01*
X9069669Y5780895D01*
X9069925Y5781321D01*
X9070223Y5781723D01*
X9070558Y5782091D01*
X9070926Y5782426D01*
X9071328Y5782724D01*
X9071754Y5782980D01*
X9072206Y5783193D01*
X9072674Y5783361D01*
X9073159Y5783483D01*
X9073652Y5783554D01*
X9074150Y5783579D01*
X9271000Y5783579D01*
X9271497Y5783554D01*
X9271990Y5783483D01*
X9272475Y5783361D01*
X9272943Y5783193D01*
X9273395Y5782980D01*
X9273821Y5782724D01*
X9274223Y5782426D01*
X9274591Y5782091D01*
X9274926Y5781723D01*
X9275224Y5781321D01*
X9275480Y5780895D01*
X9275693Y5780443D01*
X9275861Y5779975D01*
X9275983Y5779490D01*
X9276054Y5778997D01*
X9276079Y5778500D01*
X9276079Y5575300D01*
X9276054Y5574802D01*
X9275983Y5574309D01*
X9275861Y5573824D01*
X9275693Y5573356D01*
X9275480Y5572904D01*
X9275224Y5572478D01*
X9274926Y5572076D01*
X9274591Y5571708D01*
X9274223Y5571373D01*
X9273821Y5571075D01*
X9273395Y5570819D01*
X9272943Y5570606D01*
X9272475Y5570438D01*
X9271990Y5570316D01*
X9271497Y5570245D01*
X9271000Y5570220D01*
G37*
G36*
X9074150Y5316220D02*
G01*
X9073652Y5316245D01*
X9073159Y5316316D01*
X9072674Y5316438D01*
X9072206Y5316606D01*
X9071754Y5316819D01*
X9071328Y5317075D01*
X9070926Y5317373D01*
X9070558Y5317708D01*
X9070223Y5318076D01*
X9069925Y5318478D01*
X9069669Y5318904D01*
X9069456Y5319356D01*
X9069288Y5319824D01*
X9069166Y5320309D01*
X9069095Y5320802D01*
X9069070Y5321300D01*
X9069070Y5524500D01*
X9069095Y5524997D01*
X9069166Y5525490D01*
X9069288Y5525975D01*
X9069456Y5526443D01*
X9069669Y5526895D01*
X9069925Y5527321D01*
X9070223Y5527723D01*
X9070558Y5528091D01*
X9070926Y5528426D01*
X9071328Y5528724D01*
X9071754Y5528980D01*
X9072206Y5529193D01*
X9072674Y5529361D01*
X9073159Y5529483D01*
X9073652Y5529554D01*
X9074150Y5529579D01*
X9271000Y5529579D01*
X9271497Y5529554D01*
X9271990Y5529483D01*
X9272475Y5529361D01*
X9272943Y5529193D01*
X9273395Y5528980D01*
X9273821Y5528724D01*
X9274223Y5528426D01*
X9274591Y5528091D01*
X9274926Y5527723D01*
X9275224Y5527321D01*
X9275480Y5526895D01*
X9275693Y5526443D01*
X9275861Y5525975D01*
X9275983Y5525490D01*
X9276054Y5524997D01*
X9276079Y5524500D01*
X9276079Y5321300D01*
X9276054Y5320802D01*
X9275983Y5320309D01*
X9275861Y5319824D01*
X9275693Y5319356D01*
X9275480Y5318904D01*
X9275224Y5318478D01*
X9274926Y5318076D01*
X9274591Y5317708D01*
X9274223Y5317373D01*
X9273821Y5317075D01*
X9273395Y5316819D01*
X9272943Y5316606D01*
X9272475Y5316438D01*
X9271990Y5316316D01*
X9271497Y5316245D01*
X9271000Y5316220D01*
G37*
G36*
X9074150Y5062220D02*
G01*
X9073652Y5062245D01*
X9073159Y5062316D01*
X9072674Y5062438D01*
X9072206Y5062606D01*
X9071754Y5062819D01*
X9071328Y5063075D01*
X9070926Y5063373D01*
X9070558Y5063708D01*
X9070223Y5064076D01*
X9069925Y5064478D01*
X9069669Y5064904D01*
X9069456Y5065356D01*
X9069288Y5065824D01*
X9069166Y5066309D01*
X9069095Y5066802D01*
X9069070Y5067300D01*
X9069070Y5270500D01*
X9069095Y5270997D01*
X9069166Y5271490D01*
X9069288Y5271975D01*
X9069456Y5272443D01*
X9069669Y5272895D01*
X9069925Y5273321D01*
X9070223Y5273723D01*
X9070558Y5274091D01*
X9070926Y5274426D01*
X9071328Y5274724D01*
X9071754Y5274980D01*
X9072206Y5275193D01*
X9072674Y5275361D01*
X9073159Y5275483D01*
X9073652Y5275554D01*
X9074150Y5275579D01*
X9271000Y5275579D01*
X9271497Y5275554D01*
X9271990Y5275483D01*
X9272475Y5275361D01*
X9272943Y5275193D01*
X9273395Y5274980D01*
X9273821Y5274724D01*
X9274223Y5274426D01*
X9274591Y5274091D01*
X9274926Y5273723D01*
X9275224Y5273321D01*
X9275480Y5272895D01*
X9275693Y5272443D01*
X9275861Y5271975D01*
X9275983Y5271490D01*
X9276054Y5270997D01*
X9276079Y5270500D01*
X9276079Y5067300D01*
X9276054Y5066802D01*
X9275983Y5066309D01*
X9275861Y5065824D01*
X9275693Y5065356D01*
X9275480Y5064904D01*
X9275224Y5064478D01*
X9274926Y5064076D01*
X9274591Y5063708D01*
X9274223Y5063373D01*
X9273821Y5063075D01*
X9273395Y5062819D01*
X9272943Y5062606D01*
X9272475Y5062438D01*
X9271990Y5062316D01*
X9271497Y5062245D01*
X9271000Y5062220D01*
G37*
D17*
G01*
X9067876Y5676976D03*
G01*
X9067876Y5930976D03*
G01*
X9067876Y6184976D03*
G01*
X9067876Y5422976D03*
G01*
X9067876Y5168976D03*
G01*
X8051876Y5676976D03*
G01*
X8051876Y5422976D03*
G01*
X8051876Y5168976D03*
G01*
X8051876Y4914976D03*
G01*
X8051876Y5930976D03*
G01*
X8051876Y6184976D03*
G01*
X8051800Y6438900D03*
D11*
G01*
X2895600Y6616700D03*
G01*
X2895600Y6362700D03*
G01*
X2895600Y6108700D03*
G01*
X2895600Y5854700D03*
D10*
G01*
X2895600Y5600700D03*
D11*
G01*
X2514600Y6616700D03*
G01*
X2514600Y6362700D03*
G01*
X2514600Y6108700D03*
G01*
X2514600Y5854700D03*
D10*
G01*
X2514600Y5600700D03*
D19*
G01*
X6832600Y2832100D03*
G01*
X6845300Y2336800D03*
G01*
X6845300Y2082800D03*
G01*
X6845300Y1828800D03*
G01*
X6845300Y1574800D03*
G01*
X6845300Y1320800D03*
G01*
X6845300Y1066800D03*
G01*
X6845300Y812800D03*
G01*
X6845300Y558800D03*
G01*
X6832600Y6629400D03*
G01*
X6832600Y6375400D03*
G01*
X6832600Y6121400D03*
G01*
X6832600Y5867400D03*
G01*
X6832600Y5613400D03*
G01*
X6832600Y5359400D03*
G01*
X6832600Y5105400D03*
G01*
X6832600Y4851400D03*
G01*
X6832600Y4597400D03*
G01*
X6832600Y4343400D03*
G01*
X6832600Y4089400D03*
G01*
X6832600Y3835400D03*
G01*
X6832600Y3581400D03*
G01*
X6832600Y3327400D03*
G01*
X6832600Y3073400D03*
G01*
X4292600Y3060700D03*
G01*
X4292600Y3314700D03*
G01*
X4292600Y3568700D03*
G01*
X4292600Y3822700D03*
G01*
X4292600Y4076700D03*
G01*
X4292600Y4330700D03*
G01*
X4292600Y4584700D03*
G01*
X4292600Y4838700D03*
G01*
X4292600Y5092700D03*
G01*
X4292600Y5346700D03*
G01*
X4292600Y5600700D03*
G01*
X4292600Y5854700D03*
G01*
X4292600Y6108700D03*
G01*
X4292600Y6362700D03*
G01*
X4292600Y6616700D03*
G01*
X4292600Y533400D03*
G01*
X4292600Y787400D03*
G01*
X4292600Y1041400D03*
G01*
X4292600Y1295400D03*
G01*
X4292600Y1549400D03*
G01*
X4292600Y1803400D03*
G01*
X4292600Y2057400D03*
G01*
X4292600Y2311400D03*
G01*
X4292600Y2819400D03*
D20*
G01*
X5435598Y1727201D03*
G01*
X5664198Y1727201D03*
D21*
G01*
X6197600Y2768600D03*
G01*
X4914900Y1930400D03*
D10*
G01*
X7391400Y2705100D03*
G01*
X7391400Y2451100D03*
D22*
G01*
X6210300Y4381500D03*
G01*
X5956300Y4381500D03*
G01*
X5702300Y4381500D03*
G01*
X5448300Y4381500D03*
G01*
X5194300Y4381500D03*
G01*
X4940300Y4381500D03*
D10*
G01*
X8940800Y2514600D03*
D11*
G01*
X8686800Y2514600D03*
G01*
X8432800Y2514600D03*
G01*
X8178800Y2514600D03*
D10*
G01*
X7124700Y2044700D03*
D11*
G01*
X3962400Y4559300D03*
G01*
X3708400Y4559300D03*
G01*
X3454400Y4559300D03*
G01*
X3200400Y4559300D03*
G01*
X2946400Y4559300D03*
G01*
X2692400Y4559300D03*
G01*
X2438400Y4559300D03*
G01*
X2184400Y4559300D03*
G01*
X1930400Y4559300D03*
G01*
X1676400Y4559300D03*
G01*
X1422400Y4559300D03*
G01*
X1168400Y4559300D03*
G01*
X914400Y4559300D03*
G01*
X660400Y4559300D03*
D10*
G01*
X406400Y4559300D03*
D11*
G01*
X3962400Y4076700D03*
G01*
X3708400Y4076700D03*
G01*
X3454400Y4076700D03*
G01*
X3200400Y4076700D03*
G01*
X2946400Y4076700D03*
G01*
X2692400Y4076700D03*
G01*
X2438400Y4076700D03*
G01*
X2184400Y4076700D03*
G01*
X1930400Y4076700D03*
G01*
X1676400Y4076700D03*
G01*
X1422400Y4076700D03*
G01*
X1168400Y4076700D03*
G01*
X914400Y4076700D03*
G01*
X660400Y4076700D03*
D10*
G01*
X406400Y4076700D03*
D11*
G01*
X3962400Y2527300D03*
G01*
X3708400Y2527300D03*
G01*
X3454400Y2527300D03*
G01*
X3200400Y2527300D03*
G01*
X2946400Y2527300D03*
G01*
X2692400Y2527300D03*
G01*
X2438400Y2527300D03*
G01*
X2184400Y2527300D03*
G01*
X1930400Y2527300D03*
G01*
X1676400Y2527300D03*
G01*
X1422400Y2527300D03*
G01*
X1168400Y2527300D03*
G01*
X914400Y2527300D03*
G01*
X660400Y2527300D03*
D10*
G01*
X406400Y2527300D03*
D11*
G01*
X3962400Y2044700D03*
G01*
X3708400Y2044700D03*
G01*
X3454400Y2044700D03*
G01*
X3200400Y2044700D03*
G01*
X2946400Y2044700D03*
G01*
X2692400Y2044700D03*
G01*
X2438400Y2044700D03*
G01*
X2184400Y2044700D03*
G01*
X1930400Y2044700D03*
G01*
X1676400Y2044700D03*
G01*
X1422400Y2044700D03*
G01*
X1168400Y2044700D03*
G01*
X914400Y2044700D03*
G01*
X660400Y2044700D03*
D10*
G01*
X406400Y2044700D03*
D11*
G01*
X7670800Y4038600D03*
G01*
X7670800Y4292600D03*
G01*
X7670800Y4546600D03*
G01*
X7670800Y4800600D03*
G01*
X7670800Y5054600D03*
G01*
X7670800Y5308600D03*
G01*
X7670800Y5562600D03*
G01*
X7670800Y5816600D03*
G01*
X7670800Y6070600D03*
D10*
G01*
X7670800Y6324600D03*
D11*
G01*
X9448800Y1498600D03*
G01*
X9448800Y1752600D03*
G01*
X9448800Y2006600D03*
G01*
X9448800Y2260600D03*
G01*
X9448800Y2514600D03*
G01*
X9448800Y2768600D03*
G01*
X9448800Y3022600D03*
G01*
X9448800Y3276600D03*
G01*
X9448800Y3530600D03*
D10*
G01*
X9448800Y3784600D03*
M02*
