G04 Layer: BottomLayer*
G04 EasyEDA v6.5.51, 2025-12-08 09:47:30*
G04 7167e3a2cd4a4cc2b36d8ec3c7a0698f,d159c27349c1460ca4c4e21dfb61053a,10*
G04 Gerber Generator version 0.2*
G04 Scale: 100 percent, Rotated: No, Reflected: No *
G04 Dimensions in millimeters *
G04 leading zeros omitted , absolute positions ,4 integer and 5 decimal *
%FSLAX45Y45*%
%MOMM*%

%AMMACRO1*21,1,$1,$2,0,0,$3*%
%ADD10C,0.2540*%
%ADD11MACRO1,5.08X2.54X0.0000*%
%ADD12MACRO1,1.5748X1.5748X-90.0000*%
%ADD13C,1.5748*%
%ADD14MACRO1,1.5748X1.5748X0.0000*%
%ADD15O,1.499997X4.199992*%
%ADD16C,2.0000*%
%ADD17R,1.5748X1.5748*%
%ADD18R,0.0189X1.5748*%
%ADD19C,1.6000*%
%ADD20C,2.0320*%
%ADD21C,1.5240*%
%ADD22R,1.5000X1.5000*%
%ADD23C,0.6100*%

%LPD*%
D10*
X3962400Y2044700D02*
G01*
X4080052Y2162352D01*
X4080052Y2409647D01*
X3962400Y2527300D01*
X2184400Y4076700D02*
G01*
X2295525Y4187825D01*
X2295525Y4448175D01*
X2184400Y4559300D01*
X2438400Y3835400D02*
G01*
X2327275Y3946525D01*
X2327275Y4153560D01*
X2438400Y4264685D01*
X2438400Y4318000D01*
X5194300Y4381500D02*
G01*
X5067300Y4254500D01*
X5067300Y3820413D01*
X4955286Y3708400D01*
X4914265Y3708400D01*
X4520387Y3314522D01*
X4520387Y1566494D01*
X4292600Y1338706D01*
X4292600Y1295400D01*
X4292600Y6108700D02*
G01*
X5817565Y4583734D01*
X5817565Y3949344D01*
X2438400Y4076700D02*
G01*
X2549525Y4187825D01*
X2549525Y4448175D01*
X2438400Y4559300D01*
X2692400Y3835400D02*
G01*
X2581275Y3946525D01*
X2581275Y4153560D01*
X2692400Y4264685D01*
X2692400Y4318000D01*
X406400Y1803400D02*
G01*
X299567Y1910232D01*
X299567Y2179167D01*
X406400Y2286000D01*
X9448800Y3022600D02*
G01*
X8547125Y3924274D01*
X4292600Y5854700D02*
G01*
X4447565Y5854700D01*
X5199888Y5102377D01*
X9448800Y2768600D02*
G01*
X9562439Y2882239D01*
X9562439Y3069158D01*
X9481997Y3149600D01*
X9406839Y3149600D01*
X7922183Y4634255D01*
X7922183Y5257495D01*
X7761376Y5418302D01*
X4447844Y2510789D02*
G01*
X4447844Y1551609D01*
X4318431Y1422196D01*
X4267581Y1422196D01*
X4025900Y1180515D01*
X4025900Y520700D01*
X4499940Y3782060D02*
G01*
X4447844Y3729964D01*
X4447844Y2510789D01*
X3276600Y5600700D02*
G01*
X3276600Y5494045D01*
X3276600Y5494045D02*
G01*
X4188002Y4582642D01*
X4188002Y4029379D01*
X4267682Y3949700D01*
X4332300Y3949700D01*
X4499940Y3782060D01*
X4499940Y3782060D02*
G01*
X4874259Y3782060D01*
X4940300Y3848100D01*
X3276600Y5854700D02*
G01*
X3276600Y5600700D01*
X5956300Y3848100D02*
G01*
X5956300Y3954754D01*
X5956300Y3954754D02*
G01*
X5982970Y3954754D01*
X6210300Y4182084D01*
X6210300Y4381500D01*
X3276600Y6362700D02*
G01*
X3276600Y6616700D01*
X3276600Y6108700D02*
G01*
X3276600Y6362700D01*
X3276600Y5854700D02*
G01*
X3276600Y6108700D01*
X8051876Y5930976D02*
G01*
X7807680Y5686780D01*
X7617790Y5686780D01*
X6888962Y4957953D01*
X6786752Y4957953D01*
X6210300Y4381500D01*
X6845300Y2336800D02*
G01*
X6479514Y2702585D01*
X6479514Y2768600D01*
X6845300Y1828800D02*
G01*
X6741033Y1933067D01*
X6741033Y2232532D01*
X6845300Y2336800D01*
X6197600Y2768600D02*
G01*
X6479514Y2768600D01*
X6845300Y1320800D02*
G01*
X6729120Y1436979D01*
X6729120Y1712620D01*
X6845300Y1828800D01*
X6845300Y812800D02*
G01*
X6729120Y928979D01*
X6729120Y1204620D01*
X6845300Y1320800D01*
X2895600Y5600700D02*
G01*
X3002254Y5600700D01*
X4292600Y3314700D02*
G01*
X4122623Y3484676D01*
X4122623Y4568317D01*
X3362629Y5328310D01*
X3274644Y5328310D01*
X3002254Y5600700D01*
X2895600Y5600700D02*
G01*
X2895600Y5854700D01*
X2895600Y6362700D02*
G01*
X2895600Y6616700D01*
X2895600Y6108700D02*
G01*
X2895600Y6362700D01*
X2895600Y5854700D02*
G01*
X2895600Y6108700D01*
X3263900Y520700D02*
G01*
X3263900Y1030376D01*
X3844239Y1610715D01*
X3844239Y1891309D01*
X3883659Y1930730D01*
X4018457Y1930730D01*
X4292600Y2204872D01*
X4292600Y2311400D01*
X3962400Y4076700D02*
G01*
X4080052Y4194352D01*
X4080052Y4441647D01*
X3962400Y4559300D01*
X6832600Y6629400D02*
G01*
X8057083Y6629400D01*
X8724341Y5962142D01*
X8724341Y4255058D01*
X9448800Y3530600D01*
X406400Y2527300D02*
G01*
X406400Y2420645D01*
X406400Y2044700D02*
G01*
X406400Y2151354D01*
X406400Y2151354D02*
G01*
X433070Y2151354D01*
X517525Y2235809D01*
X517525Y2336190D01*
X433070Y2420645D01*
X406400Y2420645D01*
X660400Y2044700D02*
G01*
X771525Y2155825D01*
X771525Y2416175D01*
X660400Y2527300D01*
X914400Y2044700D02*
G01*
X1025525Y2155825D01*
X1025525Y2416175D01*
X914400Y2527300D01*
X1168400Y2044700D02*
G01*
X1279525Y2155825D01*
X1279525Y2416175D01*
X1168400Y2527300D01*
X1422400Y2044700D02*
G01*
X1533525Y2155825D01*
X1533525Y2416175D01*
X1422400Y2527300D01*
X1676400Y2044700D02*
G01*
X1787525Y2155825D01*
X1787525Y2416175D01*
X1676400Y2527300D01*
X1930400Y2044700D02*
G01*
X2041525Y2155825D01*
X2041525Y2416175D01*
X1930400Y2527300D01*
X2184400Y2044700D02*
G01*
X2295525Y2155825D01*
X2295525Y2416175D01*
X2184400Y2527300D01*
X2438400Y2044700D02*
G01*
X2549525Y2155825D01*
X2549525Y2416175D01*
X2438400Y2527300D01*
X2692400Y2044700D02*
G01*
X2803525Y2155825D01*
X2803525Y2416175D01*
X2692400Y2527300D01*
X2946400Y2044700D02*
G01*
X3057525Y2155825D01*
X3057525Y2416175D01*
X2946400Y2527300D01*
X3200400Y2044700D02*
G01*
X3311525Y2155825D01*
X3311525Y2416175D01*
X3200400Y2527300D01*
X406400Y3835400D02*
G01*
X299567Y3942232D01*
X299567Y4211167D01*
X406400Y4318000D01*
X406400Y4559300D02*
G01*
X406400Y4452645D01*
X406400Y4076700D02*
G01*
X406400Y4183354D01*
X406400Y4183354D02*
G01*
X433070Y4183354D01*
X517525Y4267809D01*
X517525Y4368190D01*
X433070Y4452645D01*
X406400Y4452645D01*
X660400Y4076700D02*
G01*
X771525Y4187825D01*
X771525Y4448175D01*
X660400Y4559300D01*
X914400Y4076700D02*
G01*
X1025525Y4187825D01*
X1025525Y4448175D01*
X914400Y4559300D01*
X1168400Y4076700D02*
G01*
X1279525Y4187825D01*
X1279525Y4448175D01*
X1168400Y4559300D01*
X1422400Y4076700D02*
G01*
X1533525Y4187825D01*
X1533525Y4448175D01*
X1422400Y4559300D01*
X1930400Y4076700D02*
G01*
X2041525Y4187825D01*
X2041525Y4448175D01*
X1930400Y4559300D01*
X2692400Y4076700D02*
G01*
X2803525Y4187825D01*
X2803525Y4448175D01*
X2692400Y4559300D01*
X3200400Y4076700D02*
G01*
X3311525Y4187825D01*
X3311525Y4448175D01*
X3200400Y4559300D01*
X3454400Y4076700D02*
G01*
X3565525Y4187825D01*
X3565525Y4448175D01*
X3454400Y4559300D01*
X3708400Y4076700D02*
G01*
X3826052Y4194352D01*
X3826052Y4441647D01*
X3708400Y4559300D01*
X3454400Y1803400D02*
G01*
X3343275Y1914525D01*
X3343275Y2121560D01*
X3454400Y2232685D01*
X3454400Y2286000D01*
X3200400Y1803400D02*
G01*
X3089275Y1914525D01*
X3089275Y2121560D01*
X3200400Y2232685D01*
X3200400Y2286000D01*
X2946400Y1803400D02*
G01*
X2835275Y1914525D01*
X2835275Y2121560D01*
X2946400Y2232685D01*
X2946400Y2286000D01*
X2692400Y1803400D02*
G01*
X2581275Y1914525D01*
X2581275Y2121560D01*
X2692400Y2232685D01*
X2692400Y2286000D01*
X2438400Y1803400D02*
G01*
X2327275Y1914525D01*
X2327275Y2121560D01*
X2438400Y2232685D01*
X2438400Y2286000D01*
X2184400Y1803400D02*
G01*
X2073275Y1914525D01*
X2073275Y2121560D01*
X2184400Y2232685D01*
X2184400Y2286000D01*
X1930400Y1803400D02*
G01*
X1819275Y1914525D01*
X1819275Y2121560D01*
X1930400Y2232685D01*
X1930400Y2286000D01*
X1676400Y1803400D02*
G01*
X1565275Y1914525D01*
X1565275Y2121560D01*
X1676400Y2232685D01*
X1676400Y2286000D01*
X1422400Y1803400D02*
G01*
X1311275Y1914525D01*
X1311275Y2121560D01*
X1422400Y2232685D01*
X1422400Y2286000D01*
X1168400Y1803400D02*
G01*
X1057275Y1914525D01*
X1057275Y2121560D01*
X1168400Y2232685D01*
X1168400Y2286000D01*
X3708400Y3835400D02*
G01*
X3597275Y3946525D01*
X3597275Y4153560D01*
X3708400Y4264685D01*
X3708400Y4318000D01*
X1676400Y3835400D02*
G01*
X1565275Y3946525D01*
X1565275Y4153560D01*
X1676400Y4264685D01*
X1676400Y4318000D01*
X3962400Y4318000D02*
G01*
X3962400Y4211345D01*
X3962400Y3835400D02*
G01*
X3962400Y3942054D01*
X3962400Y3942054D02*
G01*
X3935729Y3942054D01*
X3852341Y4025442D01*
X3852341Y4126737D01*
X3936949Y4211345D01*
X3962400Y4211345D01*
X914400Y1803400D02*
G01*
X803275Y1914525D01*
X803275Y2121560D01*
X914400Y2232685D01*
X914400Y2286000D01*
X660400Y1803400D02*
G01*
X538657Y1925142D01*
X538657Y2164257D01*
X660400Y2286000D01*
X3454400Y3835400D02*
G01*
X3343275Y3946525D01*
X3343275Y4153560D01*
X3454400Y4264685D01*
X3454400Y4318000D01*
X2946400Y3835400D02*
G01*
X2835275Y3946525D01*
X2835275Y4153560D01*
X2946400Y4264685D01*
X2946400Y4318000D01*
X2184400Y3835400D02*
G01*
X2073275Y3946525D01*
X2073275Y4153560D01*
X2184400Y4264685D01*
X2184400Y4318000D01*
X1422400Y3835400D02*
G01*
X1311275Y3946525D01*
X1311275Y4153560D01*
X1422400Y4264685D01*
X1422400Y4318000D01*
X1168400Y3835400D02*
G01*
X1057275Y3946525D01*
X1057275Y4153560D01*
X1168400Y4264685D01*
X1168400Y4318000D01*
X914400Y3835400D02*
G01*
X803275Y3946525D01*
X803275Y4153560D01*
X914400Y4264685D01*
X914400Y4318000D01*
X660400Y3835400D02*
G01*
X538657Y3957142D01*
X538657Y4196257D01*
X660400Y4318000D01*
X3454400Y2044700D02*
G01*
X3565525Y2155825D01*
X3565525Y2416175D01*
X3454400Y2527300D01*
X8178800Y2514600D02*
G01*
X8545855Y2147544D01*
X9513798Y2147544D01*
X9650984Y2284729D01*
X9650984Y5601207D01*
X9562591Y5689600D01*
X2946400Y4076700D02*
G01*
X3057525Y4187825D01*
X3057525Y4448175D01*
X2946400Y4559300D01*
X3200400Y3835400D02*
G01*
X3089275Y3946525D01*
X3089275Y4153560D01*
X3200400Y4264685D01*
X3200400Y4318000D01*
X4292600Y2057400D02*
G01*
X4114418Y1879219D01*
X4114418Y1700326D01*
X3517900Y1103807D01*
X3517900Y520700D01*
X5956300Y3289300D02*
G01*
X5956300Y3395954D01*
X5956300Y3395954D02*
G01*
X5982970Y3395954D01*
X6519036Y3932021D01*
X6519036Y4436516D01*
X6824979Y4742459D01*
X6889597Y4742459D01*
X7562570Y5415432D01*
X7675194Y5415432D01*
X7751419Y5491657D01*
X7983194Y5491657D01*
X8051876Y5422976D01*
X2514600Y5854700D02*
G01*
X2514600Y5600700D01*
X2514600Y6362700D02*
G01*
X2514600Y6616700D01*
X2514600Y6108700D02*
G01*
X2514600Y6362700D01*
X2514600Y5854700D02*
G01*
X2514600Y6108700D01*
X10439400Y4584700D02*
G01*
X10439400Y4478045D01*
X6845300Y558800D02*
G01*
X8166100Y1879600D01*
X9491090Y1879600D01*
X10228732Y2617241D01*
X10228732Y4267377D01*
X10439400Y4478045D01*
X4292600Y1803400D02*
G01*
X3919067Y1429867D01*
X3919067Y667867D01*
X3771900Y520700D01*
X8432800Y2514600D02*
G01*
X8242477Y2704922D01*
X8242477Y3381095D01*
X1562607Y5689600D02*
G01*
X1597939Y5689600D01*
X1919198Y5368340D01*
X1919198Y4876545D01*
X1817878Y4775225D01*
X1817878Y3215208D01*
X2093036Y2940050D01*
X9448800Y2514600D02*
G01*
X9604527Y2670327D01*
X9604527Y5323763D01*
X9268942Y5659348D01*
X9268942Y6168491D01*
X8691422Y6746011D01*
X6791909Y6746011D01*
X6408597Y6362700D01*
X4292600Y6362700D01*
X6771893Y2576372D02*
G01*
X6954824Y2393442D01*
X6954824Y1684324D01*
X6845300Y1574800D01*
X6845300Y1066800D02*
G01*
X6957568Y1179068D01*
X6957568Y1462531D01*
X6845300Y1574800D01*
X5177383Y2715132D02*
G01*
X4632833Y2170582D01*
X4632833Y1596110D01*
X4466767Y1430045D01*
X5302834Y4127500D02*
G01*
X5302834Y3796664D01*
X5247436Y3741267D01*
X5193893Y3741267D01*
X5081066Y3628440D01*
X5081066Y2811449D01*
X5177383Y2715132D01*
X5302834Y4127500D02*
G01*
X5194300Y4127500D01*
X5448300Y4127500D02*
G01*
X5302834Y4127500D01*
X3644900Y5600700D02*
G01*
X3644900Y5494045D01*
X5702300Y4127500D02*
G01*
X5575300Y4254500D01*
X5575300Y4405477D01*
X4994732Y4986045D01*
X4152900Y4986045D01*
X3644900Y5494045D01*
X5956300Y4127500D02*
G01*
X5956300Y4234154D01*
X3644900Y5854700D02*
G01*
X3644900Y5600700D01*
X3644900Y6362700D02*
G01*
X3644900Y6616700D01*
X3644900Y6108700D02*
G01*
X3644900Y6362700D01*
X3644900Y5854700D02*
G01*
X3644900Y6108700D01*
X7670800Y6070600D02*
G01*
X7670800Y6049670D01*
X6846214Y5225084D01*
X6777075Y5225084D01*
X6062954Y4510963D01*
X6062954Y4314113D01*
X5982995Y4234154D01*
X5956300Y4234154D01*
X4940300Y4381500D02*
G01*
X4940300Y4127500D01*
X4721047Y1500504D02*
G01*
X4914900Y1694357D01*
X4914900Y1930400D01*
X5702300Y4381500D02*
G01*
X4991100Y5092700D01*
X4292600Y5092700D01*
X3708400Y2044700D02*
G01*
X3826052Y2162352D01*
X3826052Y2409647D01*
X3708400Y2527300D01*
X3708400Y1803400D02*
G01*
X3597275Y1914525D01*
X3597275Y2121560D01*
X3708400Y2232685D01*
X3708400Y2286000D01*
X6705015Y4491507D02*
G01*
X6705015Y3835857D01*
X5642863Y2773705D01*
X5617336Y2773705D01*
X5583021Y2739389D01*
X5583021Y2713862D01*
X5332501Y2463342D01*
X5332501Y1921382D01*
X4852898Y1441780D01*
X4564303Y1441780D01*
X4419955Y1297431D01*
X4419955Y1168755D01*
X4292600Y1041400D01*
X9448800Y2260600D02*
G01*
X7858379Y3851020D01*
X7578979Y3851020D01*
X6832600Y4597400D01*
X6832600Y5359400D02*
G01*
X5956300Y6235700D01*
X4198924Y6235700D01*
X3663721Y6770903D01*
X2024989Y6770903D01*
X1690801Y6436715D01*
X1690801Y6069787D01*
X1564843Y5943828D01*
X1514170Y5943828D01*
X1436801Y5866460D01*
X1436801Y5276850D01*
X1519809Y5193842D01*
X1675942Y5193842D01*
X1803400Y5321300D01*
D11*
G01*
X6197600Y2768600D03*
G01*
X4914900Y1930400D03*
D12*
G01*
X10439400Y4267200D03*
G01*
X10439400Y4584700D03*
G01*
X5448300Y2946400D03*
D13*
G01*
X406400Y4318000D03*
G01*
X660400Y4318000D03*
G01*
X914400Y4318000D03*
G01*
X1168400Y4318000D03*
G01*
X1422400Y4318000D03*
G01*
X1676400Y4318000D03*
G01*
X1930400Y4318000D03*
G01*
X2184400Y4318000D03*
G01*
X2438400Y4318000D03*
G01*
X2692400Y4318000D03*
G01*
X2946400Y4318000D03*
G01*
X3200400Y4318000D03*
G01*
X3454400Y4318000D03*
G01*
X3708400Y4318000D03*
D14*
G01*
X3962400Y4318000D03*
D13*
G01*
X406400Y3835400D03*
G01*
X660400Y3835400D03*
G01*
X914400Y3835400D03*
G01*
X1168400Y3835400D03*
G01*
X1422400Y3835400D03*
G01*
X1676400Y3835400D03*
G01*
X1930400Y3835400D03*
G01*
X2184400Y3835400D03*
G01*
X2438400Y3835400D03*
G01*
X2692400Y3835400D03*
G01*
X2946400Y3835400D03*
G01*
X3200400Y3835400D03*
G01*
X3454400Y3835400D03*
G01*
X3708400Y3835400D03*
D14*
G01*
X3962400Y3835400D03*
D13*
G01*
X406400Y2286000D03*
G01*
X660400Y2286000D03*
G01*
X914400Y2286000D03*
G01*
X1168400Y2286000D03*
G01*
X1422400Y2286000D03*
G01*
X1676400Y2286000D03*
G01*
X1930400Y2286000D03*
G01*
X2184400Y2286000D03*
G01*
X2438400Y2286000D03*
G01*
X2692400Y2286000D03*
G01*
X2946400Y2286000D03*
G01*
X3200400Y2286000D03*
G01*
X3454400Y2286000D03*
G01*
X3708400Y2286000D03*
D14*
G01*
X3962400Y2286000D03*
D13*
G01*
X406400Y1803400D03*
G01*
X660400Y1803400D03*
G01*
X914400Y1803400D03*
G01*
X1168400Y1803400D03*
G01*
X1422400Y1803400D03*
G01*
X1676400Y1803400D03*
G01*
X1930400Y1803400D03*
G01*
X2184400Y1803400D03*
G01*
X2438400Y1803400D03*
G01*
X2692400Y1803400D03*
G01*
X2946400Y1803400D03*
G01*
X3200400Y1803400D03*
G01*
X3454400Y1803400D03*
G01*
X3708400Y1803400D03*
D14*
G01*
X3962400Y1803400D03*
D13*
G01*
X4940300Y4127500D03*
G01*
X5194300Y4127500D03*
G01*
X5448300Y4127500D03*
G01*
X5702300Y4127500D03*
D14*
G01*
X5956300Y4127500D03*
D13*
G01*
X4940300Y3848100D03*
G01*
X5194300Y3848100D03*
G01*
X5448300Y3848100D03*
G01*
X5702300Y3848100D03*
D14*
G01*
X5956300Y3848100D03*
D13*
G01*
X4940300Y3568700D03*
G01*
X5194300Y3568700D03*
G01*
X5448300Y3568700D03*
G01*
X5702300Y3568700D03*
D14*
G01*
X5956300Y3568700D03*
D13*
G01*
X4940300Y3289300D03*
G01*
X5194300Y3289300D03*
G01*
X5448300Y3289300D03*
G01*
X5702300Y3289300D03*
D14*
G01*
X5956300Y3289300D03*
D15*
G01*
X9562591Y5689600D03*
G01*
X1562607Y5689600D03*
D13*
G01*
X2755900Y520700D03*
G01*
X3009900Y520700D03*
G01*
X3263900Y520700D03*
G01*
X3517900Y520700D03*
G01*
X3771900Y520700D03*
D14*
G01*
X4025900Y520700D03*
D16*
G01*
X3009900Y1143000D03*
G01*
X3771900Y1143000D03*
D17*
G01*
X3962400Y2819400D03*
D13*
G01*
X3962400Y3073400D03*
D19*
G01*
X1295400Y5321300D03*
G01*
X1549400Y5321300D03*
G01*
X1803400Y5321300D03*
G01*
X2057400Y5321300D03*
G01*
X2057400Y6083300D03*
G01*
X1803400Y6083300D03*
G01*
X1549400Y6083300D03*
G01*
X1295400Y6083300D03*
D13*
G01*
X3644900Y6616700D03*
G01*
X3644900Y6362700D03*
G01*
X3644900Y6108700D03*
G01*
X3644900Y5854700D03*
D17*
G01*
X3644900Y5600700D03*
D13*
G01*
X3276600Y6616700D03*
G01*
X3276600Y6362700D03*
G01*
X3276600Y6108700D03*
G01*
X3276600Y5854700D03*
D17*
G01*
X3276600Y5600700D03*
D20*
G01*
X9067876Y5676976D03*
G01*
X9067876Y5930976D03*
G01*
X9067876Y6184976D03*
G01*
X9067876Y5422976D03*
G01*
X9067876Y5168976D03*
G01*
X8051876Y5676976D03*
G01*
X8051876Y5422976D03*
G01*
X8051876Y5168976D03*
G01*
X8051876Y4914976D03*
G01*
X8051876Y5930976D03*
G01*
X8051876Y6184976D03*
G01*
X8051800Y6438900D03*
D13*
G01*
X2895600Y6616700D03*
G01*
X2895600Y6362700D03*
G01*
X2895600Y6108700D03*
G01*
X2895600Y5854700D03*
D17*
G01*
X2895600Y5600700D03*
D13*
G01*
X2514600Y6616700D03*
G01*
X2514600Y6362700D03*
G01*
X2514600Y6108700D03*
G01*
X2514600Y5854700D03*
D17*
G01*
X2514600Y5600700D03*
D21*
G01*
X6832600Y2832100D03*
G01*
X6845300Y2336800D03*
G01*
X6845300Y2082800D03*
G01*
X6845300Y1828800D03*
G01*
X6845300Y1574800D03*
G01*
X6845300Y1320800D03*
G01*
X6845300Y1066800D03*
G01*
X6845300Y812800D03*
G01*
X6845300Y558800D03*
G01*
X6832600Y6629400D03*
G01*
X6832600Y6375400D03*
G01*
X6832600Y6121400D03*
G01*
X6832600Y5867400D03*
G01*
X6832600Y5613400D03*
G01*
X6832600Y5359400D03*
G01*
X6832600Y5105400D03*
G01*
X6832600Y4851400D03*
G01*
X6832600Y4597400D03*
G01*
X6832600Y4343400D03*
G01*
X6832600Y4089400D03*
G01*
X6832600Y3835400D03*
G01*
X6832600Y3581400D03*
G01*
X6832600Y3327400D03*
G01*
X6832600Y3073400D03*
G01*
X4292600Y3060700D03*
G01*
X4292600Y3314700D03*
G01*
X4292600Y3568700D03*
G01*
X4292600Y3822700D03*
G01*
X4292600Y4076700D03*
G01*
X4292600Y4330700D03*
G01*
X4292600Y4584700D03*
G01*
X4292600Y4838700D03*
G01*
X4292600Y5092700D03*
G01*
X4292600Y5346700D03*
G01*
X4292600Y5600700D03*
G01*
X4292600Y5854700D03*
G01*
X4292600Y6108700D03*
G01*
X4292600Y6362700D03*
G01*
X4292600Y6616700D03*
G01*
X4292600Y533400D03*
G01*
X4292600Y787400D03*
G01*
X4292600Y1041400D03*
G01*
X4292600Y1295400D03*
G01*
X4292600Y1549400D03*
G01*
X4292600Y1803400D03*
G01*
X4292600Y2057400D03*
G01*
X4292600Y2311400D03*
G01*
X4292600Y2819400D03*
D22*
G01*
X5435600Y1727200D03*
G01*
X5664200Y1727200D03*
D17*
G01*
X7391400Y2705100D03*
G01*
X7391400Y2451100D03*
D21*
G01*
X6210300Y4381500D03*
G01*
X5956300Y4381500D03*
G01*
X5702300Y4381500D03*
G01*
X5448300Y4381500D03*
G01*
X5194300Y4381500D03*
G01*
X4940300Y4381500D03*
D17*
G01*
X8940800Y2514600D03*
D13*
G01*
X8686800Y2514600D03*
G01*
X8432800Y2514600D03*
G01*
X8178800Y2514600D03*
D17*
G01*
X7124700Y2044700D03*
D13*
G01*
X3962400Y4559300D03*
G01*
X3708400Y4559300D03*
G01*
X3454400Y4559300D03*
G01*
X3200400Y4559300D03*
G01*
X2946400Y4559300D03*
G01*
X2692400Y4559300D03*
G01*
X2438400Y4559300D03*
G01*
X2184400Y4559300D03*
G01*
X1930400Y4559300D03*
G01*
X1676400Y4559300D03*
G01*
X1422400Y4559300D03*
G01*
X1168400Y4559300D03*
G01*
X914400Y4559300D03*
G01*
X660400Y4559300D03*
D17*
G01*
X406400Y4559300D03*
D13*
G01*
X3962400Y4076700D03*
G01*
X3708400Y4076700D03*
G01*
X3454400Y4076700D03*
G01*
X3200400Y4076700D03*
G01*
X2946400Y4076700D03*
G01*
X2692400Y4076700D03*
G01*
X2438400Y4076700D03*
G01*
X2184400Y4076700D03*
G01*
X1930400Y4076700D03*
G01*
X1676400Y4076700D03*
G01*
X1422400Y4076700D03*
G01*
X1168400Y4076700D03*
G01*
X914400Y4076700D03*
G01*
X660400Y4076700D03*
D17*
G01*
X406400Y4076700D03*
D13*
G01*
X3962400Y2527300D03*
G01*
X3708400Y2527300D03*
G01*
X3454400Y2527300D03*
G01*
X3200400Y2527300D03*
G01*
X2946400Y2527300D03*
G01*
X2692400Y2527300D03*
G01*
X2438400Y2527300D03*
G01*
X2184400Y2527300D03*
G01*
X1930400Y2527300D03*
G01*
X1676400Y2527300D03*
G01*
X1422400Y2527300D03*
G01*
X1168400Y2527300D03*
G01*
X914400Y2527300D03*
G01*
X660400Y2527300D03*
D17*
G01*
X406400Y2527300D03*
D13*
G01*
X3962400Y2044700D03*
G01*
X3708400Y2044700D03*
G01*
X3454400Y2044700D03*
G01*
X3200400Y2044700D03*
G01*
X2946400Y2044700D03*
G01*
X2692400Y2044700D03*
G01*
X2438400Y2044700D03*
G01*
X2184400Y2044700D03*
G01*
X1930400Y2044700D03*
G01*
X1676400Y2044700D03*
G01*
X1422400Y2044700D03*
G01*
X1168400Y2044700D03*
G01*
X914400Y2044700D03*
G01*
X660400Y2044700D03*
D17*
G01*
X406400Y2044700D03*
D13*
G01*
X7670800Y4038600D03*
G01*
X7670800Y4292600D03*
G01*
X7670800Y4546600D03*
G01*
X7670800Y4800600D03*
G01*
X7670800Y5054600D03*
G01*
X7670800Y5308600D03*
G01*
X7670800Y5562600D03*
G01*
X7670800Y5816600D03*
G01*
X7670800Y6070600D03*
D17*
G01*
X7670800Y6324600D03*
D13*
G01*
X9448800Y1498600D03*
G01*
X9448800Y1752600D03*
G01*
X9448800Y2006600D03*
G01*
X9448800Y2260600D03*
G01*
X9448800Y2514600D03*
G01*
X9448800Y2768600D03*
G01*
X9448800Y3022600D03*
G01*
X9448800Y3276600D03*
G01*
X9448800Y3530600D03*
D17*
G01*
X9448800Y3784600D03*
D23*
G01*
X5817565Y3949344D03*
G01*
X8547125Y3924274D03*
G01*
X5199888Y5102377D03*
G01*
X7761376Y5418302D03*
G01*
X4447844Y2510789D03*
G01*
X8242477Y3381095D03*
G01*
X2093036Y2940050D03*
G01*
X6771893Y2576372D03*
G01*
X5177383Y2715132D03*
G01*
X4466767Y1430045D03*
G01*
X4721047Y1500504D03*
G01*
X6705015Y4491507D03*
M02*
