<?xml version="1.0" encoding="utf-8"?>
<!-- Generator: Adobe Illustrator 23.0.3, SVG Export Plug-In . SVG Version: 6.00 Build 0)  -->
<svg version="1.1" id="Layer_1" xmlns="http://www.w3.org/2000/svg" xmlns:xlink="http://www.w3.org/1999/xlink" x="0px" y="0px"
	 viewBox="0 0 332.7 156.9" style="enable-background:new 0 0 332.7 156.9;" xml:space="preserve">
<style type="text/css">
	.st0{fill:#FFFFFF;stroke:#2E3192;stroke-miterlimit:10;}
	.st1{fill:#FFFFFF;stroke:#ED1C24;stroke-miterlimit:10;}
	.st2{fill:none;stroke:#000000;stroke-miterlimit:10;}
	.st3{fill:none;stroke:#2E3192;stroke-miterlimit:10;}
</style>
<path class="st0" d="M42.5,93.5h22.7c3.1,0,5.7,2.5,5.7,5.7V129c0,3.1-2.5,5.7-5.7,5.7H42.5c-3.1,0-5.7-2.5-5.7-5.7V99.2
	C36.9,96.1,39.4,93.5,42.5,93.5z"/>
<path class="st0" d="M92.1,93.5h22.7c3.1,0,5.7,2.5,5.7,5.7V129c0,3.1-2.5,5.7-5.7,5.7H92.1c-3.1,0-5.7-2.5-5.7-5.7V99.2
	C86.5,96.1,89,93.5,92.1,93.5z"/>
<path class="st0" d="M182.8,93.5l-11.3,0c-3.1,0-5.7,2.5-5.7,5.7v2.8c0,3.1,2.5,5.7,5.7,5.7l11.3,0c3.1,0,5.7-2.5,5.7-5.7v-2.8
	C188.5,96.1,186,93.5,182.8,93.5z"/>
<path class="st0" d="M177.2,36.9h-25.5c-3.9,0-7.1-3.2-7.1-7.1v-8.5c0-3.9,3.2-7.1,7.1-7.1h25.5c3.9,0,7.1,3.2,7.1,7.1v8.5
	C184.3,33.7,181.1,36.9,177.2,36.9z"/>
<circle class="st1" cx="226.8" cy="24.1" r="8.2"/>
<path class="st0" d="M252,79.4L252,79.4c-15.7,0-28.3,12.7-28.3,28.3v0c0,15.7,12.7,28.3,28.3,28.3h0c15.7,0,28.3-12.7,28.3-28.3v0
	C280.3,92.1,267.7,79.4,252,79.4z"/>
<path class="st0" d="M182.8,120.5l-11.3,0c-3.1,0-5.7,2.5-5.7,5.7v2.8c0,3.1,2.5,5.7,5.7,5.7l11.3,0c3.1,0,5.7-2.5,5.7-5.7v-2.8
	C188.5,123,186,120.5,182.8,120.5z"/>
<polygon class="st2" points="0,0 0,155.9 0,155.9 331.7,155.9 331.7,155.9 331.7,0 331.7,0 0,0 "/>
<path class="st3" d="M198.4,73.7c0,7.8-6.3,14.2-14.2,14.2H163c0,0,0,0,0,0v4.3c0,3.1-2.5,5.7-5.7,5.7h-24.1c-3.1,0-5.7-2.5-5.7-5.7
	V60.9c0-3.1,2.5-5.7,5.7-5.7h24.1c2.6,0,4.9,1.8,5.5,4.3c0,0,0,0,0,0h21.4C192.1,59.5,198.4,65.9,198.4,73.7L198.4,73.7z"/>
</svg>
